# Blender 5.1.1
# www.blender.org
mtllib base2.mtl
o robotic_arm.005
v -95.770309 117.879082 -50.628380
v -95.069328 117.387146 -50.633385
v -95.063469 117.141533 -50.630482
v -94.908615 117.210320 -50.629414
v -94.749710 117.364296 -50.629375
v -95.783119 117.548515 -50.629642
v -95.801727 117.722603 -50.627277
v -95.580162 117.238663 -50.630123
v -95.416862 117.146011 -50.626854
v -95.211281 117.115395 -50.629566
v -94.657387 117.584206 -50.626759
v -95.070343 117.843513 -50.633045
v -95.709991 117.378807 -50.629677
v -94.787743 118.068413 -50.628864
v -95.325623 118.118431 -50.633984
v -95.587135 117.842117 -50.633480
v -95.324860 117.886765 -50.634464
v -95.287857 118.264755 -50.628986
v -94.938026 118.190742 -50.630974
v -94.663620 117.830360 -50.629539
v -95.522446 117.767921 -49.147591
v -95.529037 117.736778 -49.387329
v -95.510986 117.574516 -49.387329
v -95.407890 117.444595 -49.387321
v -95.252068 117.384361 -49.387321
v -95.413528 117.443985 -49.147583
v -95.223244 117.384140 -49.147591
v -95.073326 117.425316 -49.147587
v -95.087158 117.417931 -49.387321
v -94.976395 117.514931 -49.147587
v -94.986649 117.501556 -49.387321
v -94.921867 117.645058 -49.147602
v -94.927505 117.618103 -49.387318
v -94.940582 117.818184 -49.387325
v -95.005440 117.904243 -49.147583
v -95.135941 117.985909 -49.147575
v -95.096191 117.971436 -49.387333
v -95.300880 117.989342 -49.147583
v -95.313538 117.991104 -49.387318
v -95.445183 117.908295 -49.147575
v -95.472389 117.875885 -49.387318
v -94.936302 117.791626 -49.147587
v -95.524452 117.613586 -49.147598
v -95.627838 117.134193 -50.585995
v -95.392250 117.025078 -50.585999
v -95.355247 117.016914 -50.313446
v -95.099106 117.009605 -50.297428
v -95.164955 117.008369 -50.586002
v -95.023933 117.034119 -50.312500
v -94.967682 117.055962 -50.585999
v -94.935280 117.067070 -49.387318
v -95.076805 117.018799 -49.669605
v -95.230537 117.002037 -49.387321
v -95.482697 117.055573 -49.387325
v -95.496826 117.058319 -49.667648
v -95.695915 117.188011 -49.387321
v -95.889847 117.510452 -50.586002
v -95.788887 117.300865 -50.586002
v -94.741333 117.207169 -49.387318
v -94.759094 117.186234 -50.586006
v -94.620270 117.368393 -49.387321
v -94.549698 117.575653 -49.387321
v -94.534271 117.738243 -50.586002
v -94.546364 117.786964 -49.387321
v -94.613632 118.003105 -49.387321
v -94.633835 118.039680 -50.585999
v -94.789963 118.225983 -49.387321
v -95.028931 118.349075 -49.387321
v -95.057678 118.357147 -50.586002
v -95.234535 118.377129 -49.387321
v -95.345245 118.371300 -50.586002
v -95.442253 118.343185 -49.387321
v -95.600395 118.266747 -50.585999
v -95.633400 118.243263 -49.387325
v -95.793007 118.079834 -49.387321
v -95.764854 118.117355 -50.586002
v -95.899811 117.845291 -50.586006
v -95.908463 117.797951 -49.387325
v -95.875504 117.458130 -49.387325
v -95.780952 117.849747 -50.585995
v -95.676498 118.060547 -50.586025
v -95.452927 118.225151 -50.585995
v -95.241013 118.269119 -50.585995
v -94.814659 118.244873 -50.586002
v -94.980064 118.221535 -50.585945
v -94.757385 118.032516 -50.586037
v -94.657852 117.811668 -50.586002
v -94.599113 117.409798 -50.586002
v -94.656975 117.590775 -50.585983
v -94.736809 117.379066 -50.586010
v -94.924927 117.195023 -50.585987
v -95.227364 117.108032 -50.585915
v -95.517082 117.189728 -50.586002
v -95.688080 117.343979 -50.586021
v -95.803001 117.595963 -50.586010
v -95.464485 118.214714 -50.629448
v -95.695465 118.024467 -50.629871
v -94.834106 116.864197 -50.259636
v -94.834366 117.054939 -49.717140
v -94.835052 117.092407 -50.271061
v -95.617615 116.864197 -49.716736
v -95.617218 117.047592 -50.260590
v -94.834114 116.864197 -49.716736
v -95.617615 116.864197 -50.259636
v -95.583221 118.114601 -50.709736
v -95.597374 118.126259 -50.630779
v -95.583221 117.889191 -50.709736
v -95.328262 117.889191 -50.709736
v -95.328262 118.114601 -50.709736
v -95.585571 117.386642 -50.634464
v -95.579308 117.833893 -50.703217
v -95.077156 117.836563 -50.700562
v -95.579369 117.392738 -50.700562
v -95.585587 117.885590 -50.634140
v -95.111519 118.255386 -50.629436
v -95.077217 117.395409 -50.703217
v -94.835487 117.121941 -50.311478
v -95.626907 117.133537 -50.311943
v -95.616882 117.094246 -50.277122
v -95.494438 117.055809 -50.306332
v -95.391617 116.999199 -50.277058
v -95.234131 117.003654 -50.308956
v -95.203918 116.975235 -50.273144
v -95.355064 116.951363 -50.260525
v -94.978287 117.007309 -50.267258
v -95.627914 117.135277 -49.656628
v -94.830231 117.126587 -49.674095
v -94.965446 117.057770 -49.656075
v -94.953796 117.042572 -49.694035
v -94.976837 117.007729 -49.708763
v -95.201401 117.004303 -49.667473
v -95.219009 116.958916 -49.711960
v -95.317528 116.994186 -49.688633
v -95.362511 117.017700 -49.657822
v -95.415398 116.991753 -49.707497
v -95.615845 117.095863 -49.701824
v -95.886261 116.708710 -49.008133
v -96.116615 116.709053 -48.832771
v -96.279404 116.707535 -48.646152
v -96.416275 116.708298 -48.407166
v -96.501030 116.708366 -48.127682
v -96.521576 116.708687 -47.870308
v -96.484085 116.708481 -47.574409
v -96.372017 116.709305 -47.289204
v -96.199455 116.707603 -47.036743
v -95.903206 116.709633 -46.787663
v -94.399719 116.708221 -46.900024
v -93.990654 116.708046 -47.533470
v -93.937943 116.709076 -47.863491
v -93.989738 116.709045 -48.261860
v -94.151604 116.707916 -48.603943
v -94.397896 116.708862 -48.884537
v -94.743515 116.708221 -49.091740
v -95.618805 118.197456 -49.122837
v -95.616577 116.708458 -49.125992
v -95.618660 117.233658 -49.123360
v -95.414383 118.197433 -49.173470
v -95.123222 118.197464 -49.179611
v -94.843697 118.197449 -49.126171
v -94.843323 117.233543 -49.123272
v -95.083969 117.234016 -49.178486
v -95.022659 116.708168 -49.166557
v -95.412628 117.233627 -49.172104
v -95.298576 116.708984 -49.185101
v -94.756493 118.228676 -49.096630
v -95.600487 116.709137 -46.655430
v -95.283424 116.708092 -46.602718
v -94.994774 116.707932 -46.624527
v -94.723389 116.708160 -46.706341
v -94.992706 118.731567 -49.037205
v -94.992714 118.744400 -48.673565
v -96.364906 116.682762 -48.118122
v -96.476608 116.682709 -48.153694
v -96.314217 116.682770 -48.550858
v -96.229195 116.682762 -48.473167
v -96.034981 116.682777 -48.719994
v -96.103180 116.682709 -48.811562
v -95.743187 116.682755 -48.930149
v -95.779648 116.682724 -49.039963
v -95.366898 116.682716 -49.039890
v -94.412422 116.682739 -46.917645
v -94.641632 116.682762 -46.901714
v -94.775940 116.682739 -46.713020
v -94.905975 116.682732 -46.788315
v -95.212128 116.682678 -46.618690
v -95.187546 116.682777 -46.740837
v -95.497528 116.682755 -46.771568
v -95.739693 116.682732 -46.728977
v -95.751495 116.682770 -46.865818
v -96.118164 116.682693 -46.986061
v -95.994354 116.682755 -47.028030
v -96.352211 116.682732 -47.304180
v -96.214340 116.682716 -47.289970
v -96.369316 116.682777 -47.674725
v -96.480377 116.682709 -47.671341
v -95.252716 116.682655 -49.166798
v -94.787224 116.682770 -49.081173
v -94.705139 116.682716 -48.923546
v -94.459877 116.682724 -48.899555
v -94.384270 116.682762 -48.678600
v -94.218597 116.682755 -48.442574
v -94.143150 116.682693 -48.556320
v -94.108139 116.682739 -48.161194
v -94.079201 116.682770 -47.846214
v -94.121300 116.682747 -47.582832
v -93.988174 116.682747 -47.650093
v -94.109962 116.682724 -47.300453
v -94.248505 116.682755 -47.286251
v -94.430885 116.682755 -47.065674
v -96.471504 117.453117 -47.673611
v -96.210701 117.455368 -48.681328
v -95.746559 118.218033 -47.474995
v -95.746552 117.845184 -47.723392
v -95.746567 117.931900 -48.190178
v -95.746559 118.353226 -48.290665
v -95.746559 118.154785 -48.303864
v -95.746567 118.594383 -48.092903
v -95.746506 118.453514 -47.540409
v -95.746559 117.818954 -47.969753
v -95.746567 118.583191 -47.678112
v -95.746559 118.006920 -47.542137
v -95.746559 118.492622 -48.213268
v -95.746574 118.648651 -47.867424
v -94.211281 117.454567 -48.626900
v -94.715446 117.868217 -48.104851
v -94.715454 117.976212 -47.558216
v -94.715424 118.545471 -47.625904
v -94.715439 118.036568 -48.262836
v -94.715446 117.852364 -47.722389
v -94.715462 118.218750 -47.475800
v -94.715439 118.630142 -48.001083
v -94.715439 118.539223 -48.173122
v -94.715439 118.390373 -48.275459
v -94.715431 118.232056 -48.309666
v -94.715439 117.812767 -47.886761
v -94.715446 118.637093 -47.797112
v -94.715431 118.424789 -47.526657
v -95.227379 118.376579 -49.040565
v -95.727211 118.228767 -49.084602
v -95.590538 118.729744 -47.188736
v -95.745758 117.523323 -49.066593
v -94.671516 117.444145 -49.052448
v -94.638046 117.454773 -49.011871
v -94.684349 117.478691 -49.040630
v -94.716972 117.526871 -49.068489
v -93.972496 117.454536 -47.935921
v -94.015648 117.453537 -47.541546
v -94.312943 117.453568 -47.026127
v -94.388680 117.448273 -48.845688
v -94.501450 117.429565 -48.952885
v -94.112808 117.434334 -47.261658
v -93.948204 117.426445 -47.769112
v -94.373390 117.426804 -46.933773
v -93.947372 117.423241 -47.998432
v -94.531807 117.432037 -46.815250
v -94.015228 117.429077 -47.470287
v -94.208824 117.421509 -47.107777
v -94.067635 117.452240 -48.391258
v -94.059204 117.421356 -48.430035
v -93.982452 117.430679 -48.202610
v -94.159546 117.428810 -48.605183
v -94.307686 117.417313 -48.796959
v -94.711609 117.484123 -46.716595
v -94.715584 117.530678 -46.727047
v -94.683884 117.480797 -46.752125
v -94.637749 117.429161 -46.752148
v -94.634705 117.453987 -46.779106
v -95.817329 117.457108 -46.777374
v -95.745018 117.519997 -46.718952
v -95.814240 117.435287 -46.747272
v -95.762634 117.496361 -46.736305
v -96.430275 117.450294 -48.303570
v -96.349030 117.454292 -47.315327
v -96.483459 117.452599 -48.058498
v -96.141663 117.452705 -47.013138
v -95.972755 117.449127 -48.919746
v -96.158699 117.433403 -48.782379
v -96.436699 117.430496 -47.444199
v -96.307152 117.433464 -48.596462
v -96.516563 117.432228 -47.859863
v -96.437607 117.419754 -48.353340
v -96.327957 117.427185 -47.217976
v -96.002327 117.422348 -48.926262
v -96.165543 117.422241 -47.004833
v -96.512566 117.420921 -48.039742
v -96.499146 117.427948 -47.674053
v -95.974876 117.431961 -46.846104
v -95.790855 117.440506 -49.052681
v -95.786507 117.472458 -49.035641
v -95.821770 117.454575 -49.013577
v -95.618721 118.191536 -49.327194
v -95.615372 117.337013 -49.334888
v -95.618774 117.337013 -49.231663
v -94.848351 117.337013 -49.335461
v -94.843407 118.190498 -49.327633
v -95.236130 117.336967 -49.295326
v -94.931396 118.116547 -49.337181
v -95.530617 117.486908 -49.337181
v -94.843262 117.337021 -49.232159
v -95.479118 118.064758 -49.286613
v -95.530617 118.116547 -49.337181
v -94.931396 117.486908 -49.337181
v -94.127205 116.708488 -47.219463
v -93.969749 116.682716 -48.046352
v -95.652748 118.745071 -48.602348
v -95.670341 118.298058 -49.040573
v -94.978180 118.348557 -49.040501
v -94.966698 118.742638 -48.618069
v -95.674423 118.740631 -48.526398
v -95.652649 118.736412 -49.034840
v -94.798424 118.728828 -48.553059
v -94.959114 118.734535 -47.157627
v -95.198311 118.739311 -47.119850
v -95.439568 118.740837 -47.148544
v -95.744400 118.732620 -48.483952
v -94.982582 118.065567 -49.286953
v -94.982918 117.538681 -49.286602
v -95.479172 117.538094 -49.286797
v -95.745110 118.258499 -49.045078
v -95.366348 118.228401 -49.179081
v -95.099747 118.229073 -49.176464
v -94.717453 118.249695 -49.054150
v -95.744125 118.735466 -47.303272
v -94.717361 118.734375 -48.481400
v -95.741531 118.236366 -46.718605
v -94.718948 118.737877 -47.310402
v -94.930092 118.228371 -46.637722
v -95.276352 118.229454 -46.601597
v -95.590233 118.229980 -46.654613
v -94.720749 118.233627 -46.716942
v -94.717842 118.536316 -47.056282
v -95.049797 116.682762 -49.031750
v -94.978439 116.734337 -49.019432
v -94.587669 116.734261 -48.857792
v -94.276924 116.734352 -48.544888
v -94.117989 116.734299 -48.201180
v -94.077568 116.734344 -47.777683
v -96.067101 116.734291 -47.100864
v -96.239395 116.734253 -47.332733
v -96.365044 116.734268 -47.670475
v -96.378586 116.734283 -48.000832
v -96.323433 116.734360 -48.260265
v -96.170105 116.734337 -48.567444
v -95.926109 116.734375 -48.812668
v -95.646515 116.734375 -48.971115
v -94.191826 116.734291 -47.394146
v -94.388329 116.734344 -47.102142
v -94.683174 116.734306 -46.878307
v -94.965279 116.734329 -46.771961
v -95.266945 116.734314 -46.740528
v -95.558823 116.734306 -46.788639
v -95.840607 116.734299 -46.913399
v -95.301796 116.734253 -49.044952
v -95.514793 116.677750 -48.861496
v -95.166298 116.679214 -48.901058
v -94.934486 116.681030 -48.855888
v -94.227135 116.682755 -47.603142
v -94.536499 116.682755 -47.102242
v -94.729645 116.018227 -46.955894
v -94.752380 116.682755 -46.951023
v -94.979591 116.682755 -46.866043
v -95.213509 116.682755 -46.834076
v -95.512291 116.682755 -46.871056
v -95.853905 116.682755 -47.037655
v -96.103348 116.682755 -47.310497
v -96.219254 116.682755 -47.567196
v -96.264069 116.682755 -47.818253
v -96.239189 116.682755 -48.096516
v -96.103943 116.682755 -48.430923
v -95.851707 116.682755 -48.694778
v -95.627098 116.682846 -48.822292
v -94.696564 116.682755 -48.756596
v -94.409599 116.682755 -48.500881
v -94.267349 116.682755 -48.239548
v -94.201057 116.682755 -47.973904
v -94.201111 116.027824 -47.960060
v -96.217056 116.009392 -48.813412
v -96.304100 116.008751 -48.811306
v -96.211380 116.018929 -48.213394
v -96.358849 116.007553 -48.887772
v -95.514435 116.021378 -48.868732
v -96.334526 116.009354 -48.961979
v -96.252472 116.008591 -46.741901
v -96.358879 116.008682 -46.833630
v -96.325142 116.006172 -46.907768
v -94.107323 116.007988 -48.867500
v -94.358459 116.682747 -48.283508
v -94.510002 116.682755 -48.506798
v -94.763100 116.682755 -48.717243
v -95.130035 116.682755 -48.829082
v -95.466309 116.682747 -48.805195
v -95.733231 116.682747 -48.690319
v -95.387520 116.682755 -46.913448
v -95.063568 116.682747 -46.917877
v -94.738792 116.682755 -47.032684
v -94.491531 116.682755 -47.248825
v -94.329613 116.682747 -47.516506
v -94.262306 116.682747 -47.905441
v -95.942146 116.682762 -48.521317
v -96.109299 116.682747 -48.268024
v -96.192581 116.682755 -47.962311
v -96.170204 116.682747 -47.642883
v -96.010628 116.682755 -47.289703
v -95.713181 116.682755 -47.030243
v -95.130051 116.940529 -46.908478
v -95.464989 116.940536 -46.927502
v -95.825539 116.940544 -47.103767
v -96.040634 116.940536 -47.343529
v -96.177567 116.940544 -47.658737
v -94.420265 116.940544 -48.398148
v -94.285240 116.940536 -48.064693
v -94.274391 116.940529 -47.724617
v -94.378014 116.940529 -47.416004
v -94.607414 116.940536 -47.125713
v -94.894196 116.940536 -46.964790
v -96.177155 116.940529 -48.070587
v -96.022522 116.940544 -48.428822
v -95.773720 116.940536 -48.664288
v -95.561119 116.940529 -48.774147
v -95.279732 116.940529 -48.832981
v -94.918823 116.940536 -48.784985
v -94.637062 116.940529 -48.627232
v -94.248581 115.909393 -48.901382
v -96.515114 115.909409 -49.094418
v -96.309296 115.909409 -48.889256
v -94.209892 115.909325 -48.849037
v -96.454781 115.909424 -49.151859
v -96.239494 115.909401 -46.879272
v -94.158531 115.909409 -46.866154
v -94.152061 115.909431 -48.887028
v -96.511604 115.909409 -46.634979
v -96.225235 115.909424 -48.935791
v -96.212982 115.909355 -46.832535
v -96.273697 115.909401 -48.851181
v -94.220673 115.909416 -46.880924
v -96.306778 115.909317 -46.864693
v -94.216164 115.909416 -48.945187
v -96.293442 115.909431 -48.936813
v -94.018967 115.909416 -49.154892
v -96.275124 115.945549 -46.788399
v -96.220169 115.945518 -46.812450
v -96.311241 115.945496 -46.839584
v -96.276497 115.945518 -46.883507
v -96.196098 115.945465 -46.767323
v -96.292114 115.945518 -46.748352
v -96.357597 115.945435 -46.825520
v -96.320099 116.009300 -46.759106
v -96.304543 115.945496 -46.922039
v -96.305748 115.945488 -48.879005
v -96.296623 115.945503 -48.937218
v -96.310524 115.945496 -48.977249
v -96.352783 115.945503 -48.918564
v -96.338692 115.945496 -48.847900
v -96.279724 115.945518 -48.807560
v -94.191246 115.945442 -48.849937
v -94.148697 115.945496 -48.907532
v -94.252075 115.945450 -48.891426
v -94.205971 115.945511 -48.947937
v -94.293930 115.945496 -48.922211
v -94.113297 115.945496 -48.866440
v -94.118904 115.945488 -48.945801
v -94.118591 116.008949 -48.948601
v -94.255005 116.008377 -48.977013
v -94.245079 115.945496 -46.852951
v -94.197365 115.945557 -46.887409
v -94.980782 116.645599 -48.906681
v -95.481392 116.645226 -48.903061
v -94.986786 116.645767 -49.002068
v -95.475220 116.645767 -49.002068
v -94.978424 116.014885 -49.002865
v -95.481155 116.015640 -49.002510
v -94.947899 116.020729 -48.869614
v -94.979263 116.020424 -48.915833
v -94.654297 116.020439 -48.729767
v -94.402351 116.025185 -47.245331
v -95.864746 116.025414 -48.689434
v -94.303993 116.021149 -47.404312
v -94.240738 116.019592 -47.557552
v -94.582550 116.018494 -47.054142
v -95.683052 116.020050 -48.802341
v -94.200233 116.021065 -47.748646
v -96.052544 116.023041 -48.499664
v -95.065842 116.025696 -46.845703
v -95.572914 116.020683 -46.888008
v -94.836014 116.030495 -46.910637
v -95.354950 116.027237 -46.837948
v -95.764427 116.027214 -46.980240
v -95.927605 116.025459 -47.102951
v -94.805260 116.020668 -48.813614
v -94.479553 116.024956 -48.582127
v -94.318962 116.020592 -48.365150
v -94.242500 116.027222 -48.175213
v -96.163437 116.019066 -47.407459
v -96.041977 116.019592 -47.220184
v -96.250053 116.026009 -47.679668
v -96.138184 116.021355 -48.371353
v -96.262825 116.020493 -47.990410
v -95.483788 116.018631 -48.918736
v -94.176941 116.007637 -48.992474
vn -0.0344 0.0099 -0.9994
vn -0.0291 0.0004 -0.9996
vn -0.0333 0.0074 -0.9994
vn -0.0272 0.0036 -0.9996
vn -0.0271 0.0037 -0.9996
vn -0.0041 -0.0119 -0.9999
vn -0.0056 -0.0111 -0.9999
vn -0.0137 -0.0061 -0.9999
vn 0.0120 -0.0116 -0.9999
vn -0.0142 -0.0067 -0.9999
vn 0.0026 -0.0307 -0.9995
vn 0.0025 -0.0304 -0.9995
vn 0.0024 -0.0301 -0.9995
vn 0.0046 -0.0046 -1.0000
vn 0.0256 0.0008 -0.9997
vn -0.0058 0.0082 -0.9999
vn -0.0034 0.0085 -1.0000
vn 0.0056 0.0094 -0.9999
vn 0.0021 -0.0293 -0.9996
vn -0.0365 -0.0307 -0.9989
vn 0.0083 -0.0111 -0.9999
vn -0.0226 0.0129 -0.9997
vn 0.0199 0.0021 -0.9998
vn -0.0069 0.0298 -0.9995
vn -0.0068 0.0357 -0.9993
vn -0.0007 0.0343 -0.9994
vn -0.0386 0.0020 -0.9993
vn -0.0121 -0.0050 -0.9999
vn 0.0180 0.0044 -0.9998
vn 0.0144 0.0004 -0.9999
vn 0.0116 0.0040 -0.9999
vn 0.0142 0.0011 -0.9999
vn -0.0082 0.0353 -0.9993
vn -0.0555 -0.0130 -0.9984
vn -0.0012 -0.0151 -0.9999
vn -0.0006 -0.0184 -0.9998
vn 0.0004 -0.0243 -0.9997
vn 0.0009 -0.0274 -0.9996
vn 0.0072 0.0095 -0.9999
vn -0.0109 0.0314 -0.9994
vn 0.0089 0.0075 -0.9999
vn -0.9259 0.3771 -0.0235
vn -0.9996 0.0130 0.0258
vn -0.9932 -0.1105 -0.0378
vn -0.8362 -0.5468 0.0421
vn -0.7831 -0.6215 -0.0200
vn -0.3606 -0.9327 -0.0109
vn -0.2999 -0.9533 0.0352
vn 0.1994 -0.9796 -0.0249
vn 0.2649 -0.9642 0.0144
vn 0.6396 -0.7686 -0.0132
vn 0.6787 -0.7343 0.0119
vn 0.8917 -0.4525 -0.0128
vn 0.9221 -0.3864 0.0218
vn 0.9974 0.0652 -0.0307
vn 0.9952 0.0980 -0.0070
vn 0.8514 0.5227 0.0427
vn 0.7002 0.7110 -0.0658
vn 0.5302 0.8471 0.0368
vn 0.0901 0.9949 -0.0451
vn 0.0207 0.9998 0.0063
vn -0.4894 0.8715 0.0323
vn -0.5867 0.8087 -0.0428
vn -0.8756 0.4819 0.0343
vn -0.0000 -0.0000 1.0000
vn 0.0001 -0.0000 1.0000
vn -0.0000 0.0001 1.0000
vn -0.0000 -0.0002 1.0000
vn -0.0002 -0.0000 1.0000
vn -0.0002 -0.0001 1.0000
vn -0.7186 -0.6954 0.0008
vn -0.5060 -0.8625 -0.0003
vn -0.4197 -0.9061 -0.0538
vn -0.2688 -0.9632 0.0076
vn -0.1083 -0.9940 -0.0151
vn -0.0732 -0.9967 -0.0353
vn 0.0445 -0.9990 -0.0059
vn 0.2976 -0.9525 -0.0639
vn 0.2344 -0.9717 -0.0294
vn 0.4223 -0.9063 0.0145
vn 0.5291 -0.8470 -0.0512
vn 0.5849 -0.8098 0.0462
vn 0.6444 -0.7647 0.0003
vn 0.4515 -0.8920 -0.0198
vn 0.3309 -0.9437 -0.0045
vn 0.2147 -0.9749 0.0590
vn 0.1157 -0.9933 0.0040
vn -0.0839 -0.9963 -0.0168
vn -0.2075 -0.9772 0.0446
vn -0.2898 -0.9571 0.0052
vn -0.5051 -0.8629 0.0170
vn -0.5273 -0.8490 0.0331
vn -0.9009 -0.4340 -0.0082
vn -0.8327 -0.5536 0.0125
vn -0.7191 -0.6949 -0.0097
vn -0.6107 -0.7919 0.0009
vn 0.6661 -0.7459 0.0032
vn 0.7996 -0.6005 -0.0013
vn 0.8132 -0.5819 -0.0058
vn 0.9466 -0.3224 0.0056
vn 0.9810 -0.1936 -0.0137
vn 0.9998 -0.0158 0.0107
vn 0.9548 0.2972 -0.0024
vn 0.9495 0.3136 -0.0064
vn 0.7842 0.6205 0.0057
vn 0.7503 0.6611 -0.0050
vn 0.4579 0.8890 0.0046
vn 0.4194 0.9078 -0.0039
vn 0.1352 0.9908 0.0034
vn 0.0492 0.9987 -0.0094
vn -0.1614 0.9868 0.0101
vn -0.3791 0.9253 -0.0090
vn -0.4632 0.8862 0.0046
vn -0.6724 0.7402 -0.0040
vn -0.7154 0.6987 0.0051
vn -0.8958 0.4444 -0.0071
vn -0.9253 0.3790 0.0083
vn -0.9995 -0.0297 -0.0084
vn -0.9953 -0.0965 0.0077
vn -0.0000 -0.0000 -1.0000
vn -0.0001 0.0001 -1.0000
vn 0.0001 -0.0001 -1.0000
vn -0.0002 0.0002 -1.0000
vn -0.0000 0.0001 -1.0000
vn -0.0000 -0.0001 -1.0000
vn -0.0000 -0.0002 -1.0000
vn -0.0000 -0.0003 -1.0000
vn -0.0002 -0.0003 -1.0000
vn -0.0002 -0.0000 -1.0000
vn 0.0002 0.0002 -1.0000
vn 0.0003 0.0001 -1.0000
vn -0.0001 -0.0000 -1.0000
vn -0.0002 0.0001 -1.0000
vn -0.0000 0.0006 -1.0000
vn -0.0001 0.0008 -1.0000
vn 0.0002 0.0003 -1.0000
vn -0.0001 -0.0001 -1.0000
vn -0.0001 -0.0002 -1.0000
vn -0.8931 0.4424 0.0820
vn -0.9747 0.1949 -0.1096
vn -0.9699 0.0843 0.2285
vn -0.9410 -0.0962 -0.3244
vn -0.9183 -0.3958 0.0114
vn -0.9027 -0.4117 0.1246
vn -0.7230 -0.6694 -0.1711
vn -0.6640 -0.7358 0.1331
vn -0.4728 -0.8424 -0.2586
vn -0.2551 -0.9044 0.3420
vn -0.1467 -0.9651 -0.2168
vn 0.1728 -0.9797 -0.1017
vn 0.2652 -0.9219 0.2823
vn 0.4012 -0.9007 -0.1664
vn 0.6959 -0.7181 0.0083
vn 0.6989 -0.7144 0.0354
vn 0.9133 -0.3817 -0.1419
vn 0.9346 -0.3524 0.0475
vn 0.9999 0.0040 -0.0114
vn 0.9924 0.0238 -0.1210
vn 0.9103 0.4102 0.0556
vn 0.8619 0.4502 -0.2334
vn 0.6370 0.7502 0.1773
vn 0.6297 0.7746 0.0582
vn 0.3304 0.8939 -0.3028
vn 0.1750 0.9601 0.2181
vn 0.0521 0.9863 -0.1568
vn -0.2017 0.9719 0.1212
vn -0.2688 0.9503 -0.1568
vn -0.5530 0.8315 -0.0526
vn -0.5877 0.7981 0.1329
vn -0.6984 0.6708 -0.2495
vn -0.8890 0.4579 0.0079
vn 1.0000 0.0013 -0.0000
vn 1.0000 0.0021 -0.0003
vn 1.0000 0.0034 -0.0007
vn 1.0000 0.0041 -0.0010
vn 0.9985 -0.0547 -0.0049
vn -1.0000 0.0022 -0.0000
vn -1.0000 0.0038 0.0006
vn -1.0000 0.0029 0.0002
vn -1.0000 0.0075 0.0018
vn -1.0000 0.0078 0.0019
vn 0.0580 0.0022 0.9983
vn -0.0051 -0.0642 0.9979
vn -0.0013 -0.0555 0.9985
vn -0.0003 -0.0514 0.9987
vn -0.0017 -0.0572 0.9984
vn -0.0000 -0.0503 0.9987
vn 0.0084 -0.0854 0.9963
vn -0.0013 -0.0064 -1.0000
vn -0.0004 -0.0091 -1.0000
vn -0.0017 -0.0052 -1.0000
vn 0.0032 -0.0500 -0.9987
vn -0.0000 -0.0102 -0.9999
vn -0.0086 -0.0619 -0.9980
vn -0.0000 -1.0000 -0.0000
vn 0.9993 0.0008 -0.0369
vn 0.9991 0.0027 -0.0428
vn 0.9990 0.0034 -0.0450
vn 0.9994 -0.0000 -0.0347
vn 0.0044 -0.9989 -0.0474
vn -0.0000 -0.9995 -0.0322
vn -0.9845 -0.0458 -0.1695
vn -0.9995 -0.0000 -0.0312
vn 0.0282 0.9983 -0.0514
vn -0.0000 0.9893 -0.1461
vn 0.9940 0.0018 -0.1090
vn 0.9946 0.0010 -0.1033
vn 0.9949 0.0005 -0.1005
vn 0.9937 0.0023 -0.1117
vn 0.0047 -0.9930 -0.1180
vn 0.0011 -0.9958 -0.0917
vn -0.9956 -0.0004 -0.0936
vn -0.9938 -0.0032 -0.1109
vn -0.0047 0.9930 -0.1176
vn -0.0026 0.9948 -0.1021
vn 0.0053 0.0060 -1.0000
vn -0.0053 -0.0060 -1.0000
vn 0.4198 -0.7307 -0.5384
vn -0.3645 -0.6680 -0.6488
vn -0.1390 -0.3301 -0.9337
vn -0.3588 -0.8504 -0.3848
vn -0.2421 -0.7549 -0.6095
vn -0.1567 -0.4271 -0.8905
vn -0.0763 -0.8644 -0.4969
vn -0.0242 -0.3430 -0.9390
vn -0.0924 -0.8164 -0.5700
vn 0.0894 -0.7420 -0.6644
vn 0.1295 -0.8044 -0.5799
vn 0.1429 -0.9796 -0.1413
vn 0.1355 -0.7863 -0.6028
vn 0.3069 -0.6503 -0.6949
vn -0.9695 -0.2452 0.0024
vn -0.9564 -0.2922 -0.0007
vn 1.0000 0.0034 -0.0082
vn 0.2142 -0.4970 0.8409
vn 0.2139 -0.5121 0.8318
vn 0.4523 -0.7714 0.4477
vn 0.2525 -0.8691 0.4253
vn 0.2618 -0.5174 0.8147
vn 0.1497 -0.7829 0.6038
vn 0.0951 -0.7153 0.6923
vn -0.0726 -0.6835 0.7263
vn -0.0335 -0.8176 0.5748
vn -0.1090 -0.7421 0.6614
vn -0.2968 -0.9170 0.2665
vn -0.1331 -0.6237 0.7703
vn -0.3878 -0.7740 0.5005
vn -0.3905 -0.7430 0.5436
vn -0.4004 0.0033 -0.9163
vn -0.2503 -0.0263 -0.9678
vn -0.5140 0.0148 -0.8577
vn -0.6057 -0.0072 -0.7956
vn -0.6766 0.0119 -0.7362
vn -0.7535 0.0020 -0.6574
vn -0.7814 0.0128 -0.6239
vn -0.8678 0.0008 -0.4970
vn -0.8813 0.0093 -0.4724
vn -0.9570 -0.0067 -0.2901
vn -0.9725 0.0129 -0.2326
vn -0.9968 -0.0063 -0.0795
vn -0.9997 0.0073 -0.0227
vn -0.9920 0.0051 0.1258
vn -0.9956 -0.0079 0.0932
vn -0.9649 0.0161 0.2620
vn -0.9307 -0.0049 0.3657
vn -0.9012 0.0123 0.4333
vn -0.8256 -0.0053 0.5643
vn -0.7952 0.0107 0.6062
vn -0.6436 -0.0036 0.7654
vn -0.6406 -0.0018 0.7678
vn -0.6429 -0.0032 0.7660
vn -0.6398 -0.0013 0.7686
vn -0.5241 0.0169 0.8515
vn -0.3725 -0.0060 0.9280
vn -0.3990 0.0007 0.9170
vn -0.4003 0.0004 0.9164
vn -0.3932 0.0017 0.9195
vn 0.4368 0.0053 0.8995
vn 0.5118 -0.0062 0.8591
vn 0.5123 -0.0064 0.8588
vn 0.5132 -0.0067 0.8583
vn 0.5135 -0.0068 0.8581
vn 0.5993 0.0156 0.8004
vn 0.7266 0.0057 0.6870
vn 0.7607 -0.0146 0.6490
vn 0.8478 0.0140 0.5301
vn 0.9058 0.0067 0.4236
vn 0.9171 -0.0037 0.3987
vn 0.9757 0.0141 0.2187
vn 0.9875 -0.0066 0.1577
vn 0.9999 0.0139 0.0034
vn 0.9916 -0.0113 -0.1289
vn 0.9856 0.0039 -0.1693
vn 0.9472 0.0167 -0.3203
vn 0.9038 -0.0128 -0.4277
vn 0.8678 0.0087 -0.4968
vn 0.7911 0.0077 -0.6116
vn 0.7515 -0.0141 -0.6596
vn 0.6275 0.0163 -0.7785
vn 0.5142 -0.0075 -0.8576
vn 0.5071 -0.0043 -0.8619
vn 0.5127 -0.0068 -0.8586
vn 0.5050 -0.0033 -0.8631
vn 0.3570 0.0150 -0.9340
vn -0.2268 0.3329 -0.9153
vn -0.2472 0.2123 -0.9454
vn -0.0208 -0.1469 -0.9889
vn 0.0095 0.0918 -0.9957
vn 0.1877 -0.0415 -0.9813
vn 0.2180 0.2764 -0.9360
vn 0.3218 -0.0027 -0.9468
vn 0.2236 -0.0160 -0.9746
vn 0.2589 0.0083 -0.9659
vn 0.0670 -0.0148 -0.9976
vn -0.0194 0.0205 -0.9996
vn -0.1827 -0.0154 -0.9830
vn -0.2302 0.0040 -0.9731
vn 0.6112 0.0027 -0.7915
vn 0.2987 -0.0005 -0.9543
vn -0.3325 0.0005 -0.9431
vn -0.3072 0.0036 -0.9516
vn -0.4700 -0.0102 -0.8826
vn -0.3937 0.0017 0.9192
vn -0.3895 0.0021 0.9210
vn -0.1658 0.0004 0.9862
vn -0.1646 0.0002 0.9864
vn -0.1665 0.0006 0.9860
vn -0.1640 -0.0000 0.9865
vn 0.0753 -0.0011 0.9972
vn 0.1038 0.0042 0.9946
vn 0.2886 -0.0040 0.9574
vn 0.3538 0.0059 0.9353
vn 0.4227 0.0056 0.9063
vn -0.0023 1.0000 0.0041
vn 0.0072 0.9994 -0.0353
vn -0.0012 0.9998 -0.0200
vn -0.1152 0.9933 -0.0024
vn 0.0348 0.9994 -0.0029
vn 0.0049 0.9982 0.0598
vn 0.0043 0.9995 0.0298
vn -0.0156 0.9999 -0.0038
vn 0.0060 1.0000 0.0031
vn 0.0045 1.0000 0.0029
vn 0.0056 1.0000 0.0031
vn 0.0041 1.0000 0.0029
vn 0.0005 -1.0000 -0.0001
vn 0.0005 -1.0000 0.0001
vn 0.0001 -1.0000 -0.0001
vn 0.0003 -1.0000 0.0005
vn 0.0001 -1.0000 0.0003
vn -0.0000 -1.0000 0.0005
vn 0.0001 -1.0000 0.0006
vn 0.0001 -1.0000 0.0005
vn -0.0001 -1.0000 -0.0001
vn -0.0001 -1.0000 -0.0002
vn -0.0002 -1.0000 -0.0001
vn 0.0001 -1.0000 -0.0002
vn -0.0000 -1.0000 -0.0007
vn -0.0001 -1.0000 -0.0008
vn -0.0000 -1.0000 -0.0005
vn 0.0001 -1.0000 -0.0003
vn 0.0003 -1.0000 -0.0003
vn 0.0003 -1.0000 -0.0002
vn -0.0000 -1.0000 -0.0002
vn -0.0000 -1.0000 -0.0003
vn -0.0001 -1.0000 0.0001
vn -0.0003 -1.0000 0.0003
vn -0.0005 -1.0000 0.0002
vn -0.0006 -1.0000 0.0002
vn -0.0003 -1.0000 0.0001
vn -0.0002 -1.0000 0.0001
vn -0.0003 -1.0000 -0.0000
vn -0.0000 -1.0000 -0.0001
vn 0.0011 1.0000 -0.0011
vn -0.0152 0.9999 0.0022
vn -0.0123 0.9999 -0.0010
vn -0.0114 0.9999 -0.0007
vn -0.0108 0.9999 -0.0006
vn 0.0057 1.0000 0.0014
vn -0.0622 0.9978 -0.0230
vn -0.0092 1.0000 -0.0001
vn -1.0000 -0.0007 -0.0006
vn -1.0000 0.0001 -0.0015
vn -1.0000 -0.0021 -0.0001
vn -1.0000 -0.0023 0.0008
vn -1.0000 0.0030 0.0066
vn -1.0000 0.0037 0.0074
vn -1.0000 -0.0020 0.0009
vn -1.0000 -0.0009 0.0013
vn -1.0000 -0.0020 -0.0001
vn -1.0000 0.0054 -0.0037
vn -1.0000 0.0071 -0.0044
vn -1.0000 0.0038 -0.0046
vn -1.0000 0.0042 0.0051
vn -1.0000 0.0062 0.0044
vn -1.0000 0.0017 -0.0020
vn -1.0000 0.0051 0.0044
vn -1.0000 0.0086 0.0030
vn -1.0000 0.0093 -0.0023
vn -1.0000 0.0036 -0.0049
vn -0.9996 0.0271 0.0002
vn -0.0004 1.0000 0.0004
vn -0.0014 1.0000 0.0018
vn -0.0020 1.0000 0.0018
vn 0.0016 1.0000 0.0003
vn 0.0014 1.0000 0.0004
vn 0.0372 0.9992 -0.0128
vn 0.0006 1.0000 -0.0002
vn 1.0000 -0.0014 -0.0003
vn 1.0000 -0.0021 -0.0009
vn 1.0000 -0.0018 -0.0010
vn 1.0000 0.0025 0.0085
vn 1.0000 0.0081 0.0042
vn 1.0000 0.0062 0.0030
vn 1.0000 -0.0000 -0.0028
vn 1.0000 0.0001 -0.0025
vn 1.0000 -0.0001 0.0001
vn 1.0000 -0.0007 -0.0000
vn 1.0000 0.0020 -0.0054
vn 1.0000 0.0077 -0.0023
vn 1.0000 0.0032 -0.0040
vn 0.9999 0.0097 -0.0035
vn 1.0000 0.0027 -0.0048
vn 1.0000 -0.0005 0.0069
vn 0.9999 0.0079 0.0068
vn 1.0000 0.0063 0.0071
vn 0.9999 0.0099 0.0051
vn 0.9996 0.0286 0.0013
vn 0.9999 0.0161 -0.0005
vn 0.2151 0.7112 -0.6693
vn 0.1710 0.6592 -0.7322
vn 0.0802 0.7121 -0.6975
vn 0.0055 0.6801 -0.7331
vn -0.1311 0.7398 -0.6599
vn -0.1951 0.6350 -0.7474
vn -0.3207 0.6815 -0.6578
vn -0.4319 0.6891 -0.5819
vn -0.3396 0.7116 -0.6151
vn 0.3033 0.7128 -0.6324
vn 0.3039 0.7129 -0.6320
vn 0.3037 0.7128 -0.6322
vn 0.3029 0.7128 -0.6326
vn 0.4604 0.6776 -0.5734
vn -0.4155 0.6909 0.5916
vn 0.3583 0.7322 0.5792
vn 0.3148 0.7070 0.6333
vn -0.2499 0.7069 0.6616
vn -0.2294 0.7107 0.6651
vn -0.1165 0.7079 0.6966
vn -0.0779 0.7166 0.6932
vn 0.0758 0.7051 0.7051
vn 0.1230 0.7145 0.6887
vn 0.2363 0.7028 0.6710
vn 0.8285 0.5600 -0.0014
vn 0.8438 0.5367 -0.0007
vn 0.4596 0.8881 -0.0009
vn 0.4784 0.8781 -0.0004
vn -0.8022 0.5971 0.0011
vn -0.7801 0.6257 0.0016
vn -0.5816 0.8135 -0.0024
vn -0.4523 0.8919 -0.0001
vn 0.7327 0.0140 -0.6804
vn 0.8621 0.4183 -0.2861
vn 0.6275 0.4503 -0.6352
vn 0.3619 0.7841 -0.5042
vn 0.0974 0.9894 -0.1074
vn 0.2826 0.9453 0.1630
vn 0.4392 0.8932 -0.0963
vn 0.3300 0.8412 0.4282
vn 0.3856 0.7876 0.4807
vn 0.5935 0.7623 0.2582
vn 0.5253 0.7915 -0.3123
vn 0.5442 0.8367 0.0617
vn 0.3671 0.7708 -0.5207
vn 0.6808 0.7268 -0.0905
vn 0.5433 0.7016 -0.4611
vn 0.5429 0.7023 -0.4604
vn 0.5449 0.6992 -0.4627
vn 0.6120 0.5566 0.5619
vn 0.3700 0.6623 0.6515
vn 0.7727 0.5676 -0.2842
vn 0.7739 0.6333 -0.0060
vn 0.5411 0.7401 0.3993
vn 0.5454 0.6984 -0.4635
vn 0.6787 0.6392 -0.3615
vn 0.8231 0.5386 0.1800
vn 0.5804 0.4373 -0.6869
vn 0.7817 0.1996 0.5908
vn 0.5984 0.6930 0.4020
vn 0.6522 0.5193 0.5522
vn 0.9507 0.0114 -0.3099
vn -0.7445 0.6540 -0.1341
vn -0.7190 0.5256 0.4547
vn -0.3664 0.7350 0.5705
vn -0.1349 0.9778 -0.1601
vn -0.4666 0.8705 0.1566
vn -0.3939 0.8932 -0.2168
vn -0.3426 0.8659 -0.3644
vn -0.3206 0.8464 0.4252
vn -0.4653 0.8851 0.0133
vn -0.6720 0.7363 0.0800
vn -0.6669 0.6680 0.3304
vn -0.4748 0.8159 0.3299
vn -0.5460 0.7150 -0.4366
vn -0.6644 0.7272 0.1726
vn -0.6634 0.6773 -0.3180
vn -0.6186 0.6175 0.4858
vn -0.4265 0.6292 -0.6498
vn -0.7521 0.6565 -0.0580
vn -0.4783 0.6671 -0.5711
vn -0.5360 0.5857 0.6079
vn -0.7742 0.6086 -0.1738
vn -0.4053 0.7100 -0.5759
vn -0.8278 0.5243 -0.1997
vn -0.8063 0.3603 -0.4691
vn -0.6256 0.4317 -0.6498
vn -0.9070 0.0131 -0.4209
vn -0.9995 -0.0036 -0.0328
vn -1.0000 -0.0001 0.0009
vn -1.0000 -0.0001 0.0002
vn -1.0000 -0.0000 -0.0004
vn -1.0000 -0.0002 0.0010
vn 0.9988 -0.0053 -0.0491
vn 1.0000 0.0003 0.0013
vn 1.0000 0.0004 0.0010
vn 1.0000 0.0004 0.0009
vn 0.0022 0.9991 -0.0429
vn 0.0025 0.9994 -0.0357
vn 0.0066 0.9994 -0.0345
vn -0.0070 0.9996 -0.0290
vn -0.0009 0.9993 -0.0372
vn 0.0013 0.9990 -0.0441
vn 0.0001 -1.0000 0.0001
vn -0.0000 -1.0000 -0.0009
vn -0.0001 -1.0000 -0.0000
vn -0.0003 0.1292 -0.9916
vn -0.0001 0.1309 -0.9914
vn -0.0000 0.1319 -0.9913
vn -0.0004 0.1285 -0.9917
vn 0.1079 -0.0000 -0.9942
vn 0.0369 0.0089 -0.9993
vn -0.0005 -0.0141 -0.9999
vn -0.0001 -0.0123 -0.9999
vn -0.0000 -0.0115 -0.9999
vn -0.0007 -0.0148 -0.9999
vn -0.0270 -0.0000 -0.9996
vn -0.1054 0.0085 -0.9944
vn -0.1613 -0.7141 -0.6813
vn -0.1224 -0.6673 -0.7347
vn -0.0117 -0.7578 -0.6524
vn 0.1189 -0.6630 -0.7391
vn 0.1547 -0.7162 -0.6805
vn -0.0002 -0.0002 -1.0000
vn -0.0007 -0.0007 -1.0000
vn 0.0004 0.0003 -1.0000
vn 0.0002 -0.7010 -0.7132
vn 0.0005 -0.6993 -0.7148
vn 0.0006 -0.6983 -0.7158
vn -0.0000 -0.7018 -0.7123
vn -0.7004 -0.0000 -0.7138
vn -0.7007 -0.0000 -0.7135
vn -0.7003 -0.0000 -0.7138
vn 0.7003 0.0001 -0.7138
vn 0.7000 0.0001 -0.7142
vn 0.6996 0.0002 -0.7145
vn 0.7006 -0.0000 -0.7135
vn -0.0001 0.7007 -0.7135
vn -0.0004 0.6993 -0.7148
vn -0.0006 0.6986 -0.7156
vn -0.0000 0.7015 -0.7127
vn 0.1978 -0.6460 -0.7372
vn 0.0950 -0.8517 -0.5153
vn 0.0566 -0.5015 -0.8633
vn -0.1282 -0.7069 -0.6956
vn -0.1154 -0.8701 -0.4791
vn -0.3554 -0.4632 -0.8119
vn -0.3407 -0.8068 -0.4827
vn -0.4396 -0.6887 -0.5766
vn -0.5534 -0.6750 -0.4880
vn -0.4676 -0.7988 -0.3785
vn -0.7166 -0.5651 -0.4088
vn -0.4975 -0.8433 -0.2036
vn -0.8146 -0.5249 -0.2468
vn -0.7524 -0.6561 -0.0593
vn -0.5192 -0.8547 -0.0041
vn 0.5864 -0.6376 0.4995
vn 0.4509 -0.8183 0.3564
vn 0.7713 -0.5405 0.3361
vn 0.5429 -0.8183 0.1890
vn 0.8387 -0.5283 0.1324
vn 0.5470 -0.8368 0.0255
vn 0.9492 -0.2895 -0.1235
vn 0.4381 -0.8865 -0.1490
vn 0.8085 -0.4485 -0.3811
vn 0.5306 -0.7064 -0.4685
vn 0.4369 -0.8041 -0.4031
vn 0.4162 -0.5892 -0.6925
vn 0.3112 -0.7672 -0.5609
vn -0.8457 -0.5229 0.1067
vn -0.5548 -0.8091 0.1939
vn -0.6907 -0.6694 0.2735
vn -0.6056 -0.6823 0.4094
vn -0.4633 -0.8181 0.3406
vn -0.5658 -0.4701 0.6774
vn -0.2965 -0.8494 0.4365
vn -0.3669 -0.4014 0.8392
vn -0.1063 -0.8547 0.5081
vn -0.1132 -0.7368 0.6666
vn 0.0694 -0.3839 0.9208
vn 0.1124 -0.8473 0.5191
vn 0.2205 -0.6473 0.7297
vn 0.3076 -0.7791 0.5463
vn 0.3914 -0.6474 0.6540
vn -0.9992 0.0403 -0.0010
vn 0.0005 0.0126 -0.9999
vn -0.0028 0.0126 -0.9999
vn 0.0006 0.0091 -1.0000
vn 0.0012 0.0087 -1.0000
vn -0.0023 0.0132 -0.9999
vn 0.9993 0.0379 -0.0013
vn 0.8406 0.3847 -0.3813
vn -0.9274 0.2800 -0.2483
vn 0.1872 0.9403 -0.2843
vn 0.0312 0.9970 0.0707
vn -0.1302 0.9661 0.2231
vn 0.2065 -0.1660 0.9643
vn -0.0255 0.1296 0.9912
vn -0.0780 -0.1283 0.9887
vn -0.2944 0.1833 0.9379
vn -0.3653 -0.2939 0.8832
vn -0.5693 0.3462 0.7457
vn -0.6696 -0.3305 0.6651
vn -0.8004 0.2092 0.5618
vn -0.8911 -0.1903 0.4120
vn -0.9257 0.1050 0.3634
vn -0.9888 -0.1157 0.0944
vn -0.9918 -0.0897 0.0911
vn 0.6266 -0.1855 -0.7570
vn 0.7546 0.1695 -0.6339
vn 0.7983 -0.1040 -0.5932
vn 0.9185 0.1395 -0.3700
vn 0.9361 -0.0489 -0.3484
vn 0.9960 -0.0793 -0.0408
vn 0.9717 0.2360 0.0096
vn 0.9566 -0.2089 0.2033
vn 0.9097 0.2267 0.3478
vn 0.8759 -0.2043 0.4372
vn 0.7658 0.2242 0.6028
vn 0.6911 -0.2233 0.6874
vn 0.5702 0.2187 0.7919
vn 0.4802 -0.2268 0.8474
vn 0.2724 0.2310 0.9341
vn -0.9600 0.2343 -0.1535
vn -0.9261 -0.2572 -0.2760
vn -0.9036 0.1824 -0.3876
vn -0.8038 -0.2483 -0.5407
vn -0.7578 0.1822 -0.6266
vn -0.6135 -0.0514 -0.7880
vn -0.5999 -0.1246 -0.7903
vn -0.3923 0.0991 -0.9145
vn -0.3506 -0.1081 -0.9303
vn -0.1650 0.1206 -0.9789
vn -0.1024 -0.1518 -0.9831
vn 0.0974 0.1560 -0.9829
vn 0.1612 -0.1320 -0.9780
vn 0.3462 0.1027 -0.9325
vn 0.4006 -0.1428 -0.9050
vn 0.5454 0.1891 -0.8166
vn 0.0001 -1.0000 -0.0000
vn -0.0002 -1.0000 -0.0000
vn -0.0000 -1.0000 0.0002
vn -0.0000 -1.0000 0.0003
vn 0.0001 -1.0000 0.0002
vn 1.0000 -0.0002 -0.0041
vn 0.9972 0.0251 0.0701
vn 0.9783 -0.0058 0.2073
vn 0.9243 0.0073 0.3815
vn 0.7277 -0.0008 0.6859
vn 0.5553 0.0217 0.8314
vn 0.5736 0.0136 0.8190
vn 0.3922 0.0067 0.9199
vn 0.3503 0.0131 0.9366
vn 0.2720 -0.0059 0.9623
vn 0.1354 0.0129 0.9907
vn 0.0268 -0.0117 0.9996
vn -0.1228 0.0206 0.9922
vn -0.2237 -0.0045 0.9746
vn -0.4344 0.0171 0.9005
vn -0.4375 0.0185 0.8990
vn -0.4334 0.0166 0.9011
vn -0.4383 0.0189 0.8987
vn -0.6009 -0.0120 0.7992
vn -0.7160 0.0109 0.6980
vn -0.7378 0.0236 0.6746
vn -0.8390 -0.0035 0.5442
vn -0.9112 0.0224 0.4114
vn -0.9530 -0.0072 0.3030
vn -0.9843 0.0161 0.1758
vn -0.9991 -0.0126 0.0412
vn -0.9958 0.0213 -0.0890
vn -0.9744 -0.0012 -0.2248
vn -0.9267 0.0272 -0.3748
vn -0.9073 0.0091 -0.4203
vn -0.8317 -0.0070 -0.5552
vn -0.7108 0.0179 -0.7032
vn -0.7228 0.0087 -0.6910
vn -0.4937 0.0027 -0.8696
vn -0.5273 0.0189 -0.8495
vn -0.3664 0.0029 -0.9304
vn -0.3291 0.0102 -0.9442
vn 0.3654 0.0119 -0.9308
vn 0.3850 0.0163 -0.9228
vn 0.4855 -0.0044 -0.8742
vn 0.6452 0.0102 -0.7640
vn 0.6651 0.0214 -0.7464
vn 0.8036 -0.0120 -0.5950
vn 0.8781 0.0222 -0.4780
vn 0.9277 -0.0015 -0.3733
vn 0.9702 0.0130 -0.2422
vn 0.9820 -0.0041 -0.1889
vn -0.0000 1.0000 -0.0000
vn -0.0003 1.0000 -0.0004
vn -0.0037 1.0000 -0.0061
vn -0.0041 1.0000 -0.0072
vn 0.0061 0.9998 -0.0199
vn 0.0019 0.9987 -0.0501
vn 0.0012 0.9988 -0.0497
vn -0.0028 0.9989 -0.0478
vn -0.0033 0.9989 -0.0474
vn -0.0130 0.9969 -0.0773
vn 0.0109 0.9951 -0.0978
vn 0.0005 1.0000 0.0011
vn -0.0000 1.0000 0.0007
vn 0.0006 1.0000 0.0011
vn -0.0000 1.0000 0.0001
vn -0.0000 1.0000 -0.0001
vn -0.0002 1.0000 -0.0000
vn 0.0001 1.0000 -0.0000
vn 0.0001 1.0000 -0.0001
vn 0.0137 -0.0329 0.9994
vn -0.0567 0.0374 0.9977
vn -0.3372 -0.0501 0.9401
vn -0.4383 0.0646 0.8965
vn -0.6557 -0.0714 0.7516
vn -0.7433 0.0527 0.6669
vn -0.9169 -0.0236 0.3983
vn -0.9113 -0.0007 0.4118
vn -0.9973 -0.0242 0.0698
vn 0.6387 -0.0441 -0.7682
vn 0.7258 0.0369 -0.6869
vn 0.8263 -0.0513 -0.5609
vn 0.9255 0.0552 -0.3748
vn 0.9670 -0.0659 -0.2459
vn 0.9971 0.0691 -0.0318
vn 0.9827 -0.0732 0.1701
vn 0.9466 0.0538 0.3179
vn 0.8549 -0.0411 0.5171
vn 0.7833 0.0565 0.6190
vn 0.6568 -0.0636 0.7514
vn 0.4883 0.0652 0.8702
vn 0.3329 -0.0474 0.9418
vn 0.2322 0.0244 0.9724
vn -0.9982 0.0593 -0.0010
vn -0.9635 -0.0526 -0.2625
vn -0.9164 0.0617 -0.3956
vn -0.8330 -0.0625 -0.5497
vn -0.6866 0.0462 -0.7255
vn -0.6288 -0.0203 -0.7773
vn -0.4590 0.0176 -0.8883
vn -0.3951 -0.0347 -0.9180
vn -0.2045 0.0426 -0.9780
vn -0.0707 -0.0561 -0.9959
vn 0.1316 0.0614 -0.9894
vn 0.2907 -0.0750 -0.9539
vn 0.4875 0.0657 -0.8706
vn -0.0000 1.0000 -0.0002
vn 0.0007 -1.0000 -0.0001
vn 0.0002 -1.0000 -0.0001
vn 0.0002 -1.0000 -0.0000
vn -0.0005 -1.0000 -0.0000
vn -0.0011 -1.0000 -0.0000
vn -0.0006 -1.0000 -0.0022
vn 0.0003 -1.0000 -0.0000
vn -0.0004 -1.0000 -0.0000
vn 0.0014 -1.0000 0.0001
vn 0.0014 -1.0000 0.0003
vn -0.0000 -1.0000 0.0001
vn -0.0008 -1.0000 -0.0022
vn -0.0013 -1.0000 -0.0021
vn -0.0015 -1.0000 -0.0000
vn 0.0006 -1.0000 -0.0000
vn 0.7443 -0.3165 0.5881
vn 0.2005 0.3143 0.9279
vn -0.0014 1.0000 -0.0001
vn -0.0016 1.0000 -0.0000
vn -0.0012 1.0000 -0.0002
vn 0.0007 1.0000 0.0009
vn 0.0006 1.0000 0.0007
vn -0.0004 1.0000 0.0006
vn -0.0005 1.0000 0.0006
vn 0.2456 -0.0554 -0.9678
vn -0.1891 0.2168 -0.9577
vn 0.8617 0.1812 0.4739
vn 0.9088 0.0710 0.4112
vn 0.8864 -0.0411 -0.4611
vn 0.7437 0.2198 -0.6313
vn 0.9451 0.0869 0.3150
vn 0.9782 -0.1398 0.1533
vn 0.7249 0.1212 -0.6781
vn -0.0150 0.0099 0.9998
vn -0.0002 1.0000 0.0001
vn -0.0236 -0.0682 -0.9974
vn 0.8007 0.1630 0.5765
vn 0.9489 -0.0608 0.3095
vn 0.9629 0.1893 -0.1921
vn 0.8090 -0.1084 -0.5778
vn 0.5568 0.1663 -0.8139
vn -0.5315 0.2541 -0.8081
vn -0.7776 -0.2542 -0.5751
vn 0.7818 0.2352 -0.5775
vn 0.5381 -0.2973 -0.7887
vn 0.0002 1.0000 -0.0000
vn -0.0013 1.0000 -0.0004
vn 0.0004 1.0000 -0.0001
vn -0.9929 0.0961 0.0703
vn -0.9904 0.0109 0.1375
vn -0.6010 0.0380 0.7984
vn 0.5702 -0.2262 0.7897
vn -0.2200 0.3080 0.9256
vn -0.9995 0.0046 -0.0314
vn -0.9980 0.0094 -0.0622
vn 0.9999 0.0132 0.0088
vn 0.9980 0.0033 -0.0627
vn -0.0005 1.0000 0.0044
vn -0.0002 1.0000 0.0028
vn -0.0007 1.0000 0.0054
vn -0.0000 1.0000 0.0018
vn -0.0000 0.0007 -1.0000
vn -0.0005 0.0010 -1.0000
vn -0.0007 0.0013 -1.0000
vn -0.8522 0.0163 -0.5230
vn -0.7769 0.0065 -0.6296
vn 0.7394 -0.0010 -0.6732
vn 0.8273 0.0102 -0.5617
vn 0.1185 0.7605 -0.6384
vn -0.0073 0.1258 -0.9920
vn -0.0772 0.7542 -0.6521
vt 0.880293 0.551008
vt 0.880426 0.550593
vt 0.881034 0.550539
vt 0.880655 0.550269
vt 0.880972 0.550015
vt 0.881516 0.552659
vt 0.881154 0.552569
vt 0.881750 0.552095
vt 0.881936 0.552659
vt 0.880718 0.552292
vt 0.880441 0.551916
vt 0.882209 0.551057
vt 0.882452 0.552469
vt 0.882859 0.550402
vt 0.882531 0.550080
vt 0.880578 0.551575
vt 0.880288 0.551467
vt 0.883118 0.551497
vt 0.882884 0.552063
vt 0.881298 0.549883
vt 0.881082 0.550441
vt 0.881675 0.550702
vt 0.881907 0.550175
vt 0.882140 0.549880
vt 0.883077 0.550831
vt 0.881688 0.549816
vt 0.916681 0.535245
vt 0.916679 0.535592
vt 0.916084 0.535513
vt 0.916083 0.535897
vt 0.916679 0.535995
vt 0.916085 0.536316
vt 0.916681 0.536315
vt 0.916680 0.584187
vt 0.916679 0.584577
vt 0.916084 0.584173
vt 0.916083 0.584648
vt 0.916679 0.584985
vt 0.916083 0.585019
vt 0.916680 0.585232
vt 0.916084 0.585257
vt 0.916083 0.624330
vt 0.916111 0.624042
vt 0.916663 0.624272
vt 0.916686 0.623950
vt 0.916083 0.623545
vt 0.916663 0.623585
vt 0.916606 0.623304
vt 0.826937 0.647192
vt 0.826939 0.646804
vt 0.827534 0.647029
vt 0.827535 0.646704
vt 0.826939 0.646263
vt 0.827535 0.646294
vt 0.827533 0.645936
vt 0.826937 0.645869
vt 0.916086 0.535162
vt 0.900055 0.579952
vt 0.900392 0.579741
vt 0.901319 0.580767
vt 0.899888 0.580287
vt 0.899888 0.580613
vt 0.900045 0.580944
vt 0.900323 0.581155
vt 0.900638 0.581227
vt 0.901001 0.581130
vt 0.901132 0.579940
vt 0.901333 0.580268
vt 0.900794 0.579736
vt 0.793756 0.613829
vt 0.793753 0.615459
vt 0.793754 0.613148
vt 0.794088 0.613845
vt 0.794344 0.613150
vt 0.794436 0.613828
vt 0.794737 0.613839
vt 0.794910 0.613150
vt 0.795073 0.613868
vt 0.795259 0.613830
vt 0.795398 0.613150
vt 0.795724 0.613832
vt 0.795912 0.613148
vt 0.795954 0.616128
vt 0.795477 0.616130
vt 0.795736 0.615416
vt 0.795403 0.615462
vt 0.795127 0.615429
vt 0.794745 0.616131
vt 0.794818 0.615434
vt 0.794417 0.615458
vt 0.794117 0.616130
vt 0.794082 0.615433
vt 0.793582 0.616127
vt 0.881216 0.545567
vt 0.880698 0.545593
vt 0.880954 0.542596
vt 0.880288 0.542631
vt 0.880288 0.545615
vt 0.882922 0.566944
vt 0.882501 0.563973
vt 0.882895 0.564058
vt 0.882375 0.566832
vt 0.881990 0.563919
vt 0.881562 0.566778
vt 0.881465 0.563910
vt 0.880924 0.563947
vt 0.880808 0.566833
vt 0.880360 0.564055
vt 0.880288 0.566944
vt 0.789381 0.616129
vt 0.788786 0.613158
vt 0.789381 0.613148
vt 0.788776 0.616139
vt 0.788275 0.613169
vt 0.788062 0.616154
vt 0.787759 0.613180
vt 0.787428 0.616169
vt 0.787285 0.613191
vt 0.787020 0.616179
vt 0.882726 0.545503
vt 0.882500 0.542529
vt 0.882910 0.542516
vt 0.882047 0.545529
vt 0.881798 0.542557
vt 0.874052 0.545602
vt 0.874771 0.545880
vt 0.874186 0.545865
vt 0.874806 0.545621
vt 0.875315 0.545835
vt 0.875375 0.546211
vt 0.875817 0.546301
vt 0.875696 0.546643
vt 0.876086 0.546964
vt 0.875861 0.547281
vt 0.876087 0.547629
vt 0.875667 0.547981
vt 0.875813 0.548251
vt 0.875273 0.548436
vt 0.875237 0.548791
vt 0.874776 0.548669
vt 0.874428 0.548989
vt 0.874215 0.548711
vt 0.873757 0.548862
vt 0.873604 0.548479
vt 0.873245 0.548528
vt 0.873092 0.547889
vt 0.872932 0.548133
vt 0.872732 0.547604
vt 0.872973 0.547150
vt 0.872732 0.546959
vt 0.873143 0.546603
vt 0.872940 0.546421
vt 0.873307 0.545974
vt 0.873591 0.546081
vt 0.873378 0.570342
vt 0.873830 0.570111
vt 0.874103 0.570998
vt 0.874347 0.570035
vt 0.874582 0.570999
vt 0.874899 0.570131
vt 0.875540 0.570527
vt 0.874898 0.571195
vt 0.875103 0.571545
vt 0.875981 0.571252
vt 0.876035 0.572049
vt 0.875097 0.571952
vt 0.875819 0.572621
vt 0.874885 0.572297
vt 0.875411 0.573091
vt 0.874744 0.573386
vt 0.874517 0.572468
vt 0.874161 0.573386
vt 0.874198 0.572446
vt 0.873687 0.573239
vt 0.873911 0.572299
vt 0.873243 0.572927
vt 0.872923 0.572511
vt 0.873639 0.571881
vt 0.872732 0.571983
vt 0.872742 0.571284
vt 0.873712 0.571351
vt 0.873022 0.570695
vt 0.903485 0.640002
vt 0.903380 0.640075
vt 0.903383 0.639549
vt 0.903482 0.640391
vt 0.903380 0.640706
vt 0.903489 0.640824
vt 0.903491 0.641244
vt 0.903383 0.641330
vt 0.903496 0.641590
vt 0.905735 0.619604
vt 0.905625 0.619762
vt 0.905627 0.619331
vt 0.905725 0.620013
vt 0.905623 0.620486
vt 0.905732 0.620525
vt 0.905734 0.620892
vt 0.905625 0.621234
vt 0.905733 0.621274
vt 0.905735 0.621664
vt 0.905627 0.621695
vt 0.901506 0.647621
vt 0.901581 0.647080
vt 0.901619 0.647586
vt 0.901679 0.647064
vt 0.901686 0.646515
vt 0.901578 0.646468
vt 0.901628 0.645961
vt 0.901506 0.645869
vt 0.809797 0.641593
vt 0.809906 0.641114
vt 0.809903 0.641669
vt 0.809793 0.641219
vt 0.809798 0.640787
vt 0.809907 0.640465
vt 0.809800 0.640348
vt 0.809906 0.639938
vt 0.809798 0.639910
vt 0.809793 0.639580
vt 0.809904 0.639383
vt 0.903496 0.639383
vt 0.903491 0.639639
vt 0.862066 0.639496
vt 0.862056 0.640798
vt 0.861592 0.639492
vt 0.861489 0.640819
vt 0.861415 0.639383
vt 0.905627 0.603130
vt 0.905623 0.601780
vt 0.906083 0.603131
vt 0.906199 0.601741
vt 0.906199 0.603171
vt 0.868650 0.632498
vt 0.868535 0.632848
vt 0.868175 0.632502
vt 0.868505 0.633906
vt 0.868768 0.634391
vt 0.868192 0.634391
vt 0.868419 0.633431
vt 0.888386 0.633151
vt 0.888169 0.632498
vt 0.888625 0.632499
vt 0.888525 0.634087
vt 0.888737 0.634443
vt 0.888169 0.634445
vt 0.895116 0.612043
vt 0.893766 0.613991
vt 0.893766 0.612043
vt 0.895116 0.613991
vt 0.930767 0.547659
vt 0.930950 0.547089
vt 0.930950 0.547665
vt 0.930767 0.547099
vt 0.879727 0.657823
vt 0.879539 0.658465
vt 0.879539 0.657817
vt 0.879726 0.658457
vt 0.914664 0.657848
vt 0.914468 0.658415
vt 0.914468 0.657817
vt 0.914656 0.658409
vt 0.844221 0.658488
vt 0.844410 0.657817
vt 0.844410 0.658493
vt 0.844214 0.657854
vt 0.926536 0.534014
vt 0.925976 0.534648
vt 0.925976 0.534014
vt 0.926536 0.534647
vt 0.921296 0.554163
vt 0.921124 0.555278
vt 0.921130 0.554181
vt 0.921296 0.555298
vt 0.899065 0.653307
vt 0.899230 0.652039
vt 0.899239 0.653287
vt 0.899065 0.652024
vt 0.921124 0.560630
vt 0.921297 0.559519
vt 0.921288 0.560615
vt 0.921124 0.559498
vt 0.894865 0.652024
vt 0.894697 0.653292
vt 0.894692 0.652044
vt 0.894865 0.653309
vt 0.906720 0.546731
vt 0.905623 0.547973
vt 0.905623 0.546726
vt 0.906720 0.547979
vt 0.916589 0.667780
vt 0.916589 0.668148
vt 0.916492 0.668120
vt 0.793783 0.613917
vt 0.888506 0.633062
vt 0.888742 0.632502
vt 0.794346 0.613918
vt 0.888446 0.633527
vt 0.794814 0.613929
vt 0.795373 0.613943
vt 0.794439 0.613960
vt 0.873793 0.662931
vt 0.873901 0.663378
vt 0.873793 0.663448
vt 0.906296 0.603258
vt 0.906296 0.601628
vt 0.861415 0.640915
vt 0.868621 0.632801
vt 0.868828 0.632513
vt 0.795432 0.615368
vt 0.868565 0.633113
vt 0.794776 0.615324
vt 0.795376 0.615332
vt 0.939865 0.626924
vt 0.939918 0.627185
vt 0.939804 0.627185
vt 0.794530 0.615382
vt 0.935366 0.653421
vt 0.935366 0.653910
vt 0.935314 0.653663
vt 0.935314 0.615976
vt 0.935396 0.616240
vt 0.935314 0.616449
vt 0.793784 0.615347
vt 0.794287 0.615335
vt 0.851871 0.598352
vt 0.852181 0.600379
vt 0.851499 0.600375
vt 0.851756 0.598557
vt 0.851216 0.598601
vt 0.850908 0.600373
vt 0.850813 0.598573
vt 0.872818 0.565834
vt 0.872809 0.565366
vt 0.874617 0.565701
vt 0.874612 0.565234
vt 0.872805 0.564768
vt 0.874573 0.564626
vt 0.872801 0.564071
vt 0.874571 0.563845
vt 0.872799 0.563430
vt 0.874597 0.563397
vt 0.872796 0.562696
vt 0.874585 0.562936
vt 0.874591 0.562366
vt 0.872798 0.561990
vt 0.874583 0.561807
vt 0.872795 0.561367
vt 0.874572 0.561282
vt 0.872804 0.560756
vt 0.874599 0.560892
vt 0.868395 0.572187
vt 0.868205 0.570383
vt 0.868532 0.570391
vt 0.868055 0.570173
vt 0.867745 0.572189
vt 0.865565 0.570264
vt 0.865599 0.572193
vt 0.865365 0.570400
vt 0.865071 0.570393
vt 0.864702 0.572192
vt 0.864617 0.570405
vt 0.864115 0.570418
vt 0.863851 0.572190
vt 0.863790 0.570386
vt 0.874578 0.603037
vt 0.872793 0.603558
vt 0.872774 0.603122
vt 0.874587 0.603700
vt 0.872804 0.604231
vt 0.874588 0.604457
vt 0.872813 0.604780
vt 0.874587 0.605446
vt 0.872793 0.605293
vt 0.872814 0.605889
vt 0.874583 0.606373
vt 0.872791 0.606374
vt 0.872813 0.606932
vt 0.874570 0.607208
vt 0.872774 0.607433
vt 0.900724 0.587440
vt 0.899888 0.587463
vt 0.900419 0.585655
vt 0.900006 0.585629
vt 0.899888 0.585427
vt 0.851934 0.596598
vt 0.852719 0.596681
vt 0.852206 0.596678
vt 0.852840 0.596605
vt 0.853443 0.596687
vt 0.853502 0.596609
vt 0.854132 0.596694
vt 0.854346 0.596619
vt 0.854112 0.599091
vt 0.854346 0.600400
vt 0.853520 0.599083
vt 0.853661 0.600392
vt 0.852977 0.600384
vt 0.852703 0.599077
vt 0.852187 0.599074
vt 0.846345 0.565562
vt 0.848245 0.566290
vt 0.844662 0.565085
vt 0.868047 0.568392
vt 0.867721 0.568408
vt 0.866996 0.568410
vt 0.867013 0.572193
vt 0.866303 0.572194
vt 0.866139 0.568413
vt 0.865586 0.568400
vt 0.839192 0.601248
vt 0.837433 0.601019
vt 0.837261 0.597978
vt 0.837486 0.602284
vt 0.839127 0.601386
vt 0.839127 0.602291
vt 0.837486 0.601208
vt 0.837259 0.600914
vt 0.839810 0.597998
vt 0.839812 0.600909
vt 0.838019 0.597594
vt 0.838618 0.597523
vt 0.844134 0.532922
vt 0.843954 0.531736
vt 0.844405 0.532869
vt 0.844242 0.531779
vt 0.844436 0.530854
vt 0.844196 0.530697
vt 0.844815 0.530172
vt 0.844612 0.529974
vt 0.845449 0.529541
vt 0.845316 0.529286
vt 0.846330 0.529124
vt 0.846560 0.528768
vt 0.847111 0.529019
vt 0.849507 0.533959
vt 0.848950 0.534088
vt 0.849403 0.533602
vt 0.848695 0.534604
vt 0.848346 0.534470
vt 0.847661 0.535007
vt 0.847673 0.534697
vt 0.846900 0.534744
vt 0.846323 0.534944
vt 0.846240 0.534612
vt 0.845580 0.534310
vt 0.845293 0.534461
vt 0.844937 0.533753
vt 0.844593 0.533772
vt 0.847736 0.528795
vt 0.848000 0.529149
vt 0.848611 0.529112
vt 0.848884 0.529625
vt 0.849523 0.529830
vt 0.849383 0.530139
vt 0.849765 0.530786
vt 0.850150 0.531014
vt 0.849960 0.531548
vt 0.850260 0.531994
vt 0.849960 0.532211
vt 0.850099 0.532900
vt 0.849764 0.532989
vt 0.874489 0.533748
vt 0.873514 0.532932
vt 0.874443 0.528188
vt 0.873642 0.528783
vt 0.872820 0.531390
vt 0.872839 0.530433
vt 0.873135 0.529539
vt 0.872958 0.531998
vt 0.831831 0.598468
vt 0.831277 0.598185
vt 0.832852 0.596292
vt 0.832846 0.602128
vt 0.831065 0.602125
vt 0.831115 0.600245
vt 0.832044 0.599629
vt 0.831641 0.600079
vt 0.832110 0.599017
vt 0.830183 0.598706
vt 0.829842 0.597733
vt 0.830437 0.598408
vt 0.830530 0.600081
vt 0.829828 0.600669
vt 0.831024 0.596341
vt 0.830209 0.599738
vt 0.830047 0.599267
vt 0.830784 0.598216
vt 0.874534 0.521128
vt 0.872848 0.523784
vt 0.874439 0.520147
vt 0.872922 0.518233
vt 0.873715 0.518857
vt 0.873921 0.522839
vt 0.874285 0.522258
vt 0.846576 0.562646
vt 0.846279 0.563097
vt 0.845936 0.561385
vt 0.845413 0.561334
vt 0.845509 0.560177
vt 0.844656 0.564948
vt 0.845763 0.563320
vt 0.846443 0.561767
vt 0.848127 0.560238
vt 0.846609 0.562240
vt 0.845267 0.563269
vt 0.844567 0.562247
vt 0.844649 0.562711
vt 0.843954 0.563256
vt 0.844921 0.563064
vt 0.846480 0.559652
vt 0.844841 0.560593
vt 0.845053 0.561463
vt 0.844706 0.561778
vt 0.839717 0.602446
vt 0.839166 0.602305
vt 0.853792 0.596318
vt 0.795865 0.658281
vt 0.795908 0.657817
vt 0.796319 0.658281
vt 0.853173 0.596243
vt 0.890145 0.652780
vt 0.890491 0.652024
vt 0.890491 0.653125
vt 0.852072 0.596428
vt 0.837304 0.602415
vt 0.837259 0.602316
vt 0.837445 0.602305
vt 0.839814 0.602341
vt 0.839611 0.601087
vt 0.837643 0.597694
vt 0.837272 0.596533
vt 0.839213 0.597618
vt 0.839814 0.597369
vt 0.839810 0.596530
vt 0.837648 0.596374
vt 0.838428 0.596243
vt 0.866493 0.567140
vt 0.839289 0.596333
vt 0.865894 0.567152
vt 0.846488 0.565518
vt 0.848233 0.560315
vt 0.872800 0.518164
vt 0.872732 0.523854
vt 0.832906 0.602086
vt 0.832979 0.596370
vt 0.874577 0.533801
vt 0.874577 0.528084
vt 0.846563 0.565565
vt 0.846578 0.565444
vt 0.873190 0.523642
vt 0.872764 0.523884
vt 0.873473 0.523378
vt 0.874205 0.519448
vt 0.874502 0.521791
vt 0.873177 0.518327
vt 0.873567 0.518626
vt 0.874442 0.519970
vt 0.874050 0.522787
vt 0.874600 0.520715
vt 0.874595 0.521285
vt 0.864416 0.570339
vt 0.865341 0.570338
vt 0.872736 0.605801
vt 0.872734 0.604646
vt 0.873971 0.519063
vt 0.873676 0.523260
vt 0.872732 0.603729
vt 0.872732 0.607102
vt 0.944165 0.623343
vt 0.944231 0.623438
vt 0.944165 0.623497
vt 0.872732 0.518075
vt 0.848245 0.560249
vt 0.833059 0.602060
vt 0.833005 0.601985
vt 0.874053 0.528364
vt 0.874450 0.528114
vt 0.874111 0.533518
vt 0.872920 0.529862
vt 0.873272 0.532724
vt 0.873646 0.533182
vt 0.872732 0.530898
vt 0.872771 0.530436
vt 0.874651 0.562048
vt 0.873185 0.529297
vt 0.872941 0.532123
vt 0.874648 0.561303
vt 0.847405 0.668162
vt 0.847458 0.667780
vt 0.847458 0.668245
vt 0.874651 0.563892
vt 0.874038 0.533536
vt 0.873583 0.528763
vt 0.874649 0.564503
vt 0.826243 0.663428
vt 0.826199 0.663544
vt 0.826199 0.662931
vt 0.833059 0.596328
vt 0.944165 0.666800
vt 0.944231 0.666843
vt 0.944165 0.666900
vt 0.831098 0.596243
vt 0.900414 0.612436
vt 0.900158 0.612436
vt 0.900396 0.610312
vt 0.899888 0.610297
vt 0.899888 0.612693
vt 0.899916 0.622634
vt 0.900139 0.624755
vt 0.899888 0.624755
vt 0.900399 0.622616
vt 0.900399 0.625012
vt 0.905623 0.554107
vt 0.905991 0.553411
vt 0.906124 0.554106
vt 0.906131 0.552179
vt 0.906006 0.552687
vt 0.905623 0.552179
vt 0.910920 0.560510
vt 0.911078 0.559534
vt 0.911177 0.560498
vt 0.910920 0.558583
vt 0.911177 0.558591
vt 0.824292 0.623725
vt 0.826000 0.623911
vt 0.824512 0.623911
vt 0.826218 0.623728
vt 0.826001 0.625477
vt 0.826207 0.625849
vt 0.824512 0.625477
vt 0.824302 0.625849
vt 0.919135 0.657817
vt 0.918978 0.658331
vt 0.918864 0.657817
vt 0.925976 0.544942
vt 0.925976 0.543985
vt 0.926235 0.544437
vt 0.925976 0.612054
vt 0.925976 0.611237
vt 0.926275 0.611678
vt 0.921123 0.643734
vt 0.921382 0.643368
vt 0.921382 0.644337
vt 0.835243 0.658413
vt 0.835388 0.657817
vt 0.835515 0.658413
vt 0.825867 0.625349
vt 0.824634 0.624041
vt 0.825868 0.624039
vt 0.824635 0.625351
vt 0.916083 0.619104
vt 0.916238 0.617669
vt 0.916238 0.618979
vt 0.916083 0.617539
vt 0.831879 0.653514
vt 0.831879 0.652024
vt 0.832005 0.652152
vt 0.854236 0.600462
vt 0.847124 0.528677
vt 0.853089 0.600450
vt 0.845682 0.529011
vt 0.846439 0.528740
vt 0.851766 0.600442
vt 0.845066 0.529406
vt 0.844570 0.529927
vt 0.844243 0.530449
vt 0.872745 0.565128
vt 0.844001 0.531090
vt 0.872738 0.564136
vt 0.843954 0.532449
vt 0.864721 0.572255
vt 0.850087 0.533105
vt 0.874643 0.603220
vt 0.850299 0.532281
vt 0.874650 0.603979
vt 0.850298 0.531450
vt 0.874653 0.604917
vt 0.850015 0.530492
vt 0.874646 0.606253
vt 0.848768 0.529124
vt 0.849483 0.529716
vt 0.900574 0.587510
vt 0.847838 0.528751
vt 0.872733 0.562937
vt 0.844162 0.533161
vt 0.872732 0.562028
vt 0.845072 0.534369
vt 0.844549 0.533817
vt 0.872734 0.561244
vt 0.845897 0.534864
vt 0.868036 0.572255
vt 0.846692 0.535069
vt 0.847491 0.535074
vt 0.866831 0.572256
vt 0.848191 0.534907
vt 0.865722 0.572256
vt 0.848825 0.534599
vt 0.873845 0.633464
vt 0.873028 0.634185
vt 0.873160 0.632635
vt 0.900091 0.605477
vt 0.900978 0.604413
vt 0.900978 0.606053
vt 0.900026 0.606097
vt 0.899888 0.604378
vt 0.911607 0.542667
vt 0.910920 0.542006
vt 0.911499 0.541354
vt 0.911607 0.541249
vt 0.873028 0.632499
vt 0.874997 0.626148
vt 0.874868 0.626308
vt 0.874868 0.625432
vt 0.874997 0.626908
vt 0.874869 0.627072
vt 0.874998 0.627673
vt 0.874870 0.627916
vt 0.874999 0.628298
vt 0.893902 0.524648
vt 0.893771 0.524977
vt 0.893778 0.524208
vt 0.893898 0.525230
vt 0.893767 0.525827
vt 0.893895 0.525926
vt 0.893766 0.526879
vt 0.893894 0.526708
vt 0.893907 0.569563
vt 0.893776 0.569785
vt 0.893785 0.569187
vt 0.893898 0.570336
vt 0.893769 0.570454
vt 0.893894 0.571360
vt 0.893766 0.571347
vt 0.893768 0.572148
vt 0.893898 0.572420
vt 0.893772 0.572734
vt 0.893907 0.573182
vt 0.893782 0.573369
vt 0.874999 0.623725
vt 0.874998 0.624343
vt 0.874870 0.623925
vt 0.874869 0.624662
vt 0.874997 0.625174
vt 0.893895 0.527364
vt 0.893768 0.527835
vt 0.893898 0.528105
vt 0.893772 0.528567
vt 0.893902 0.528659
vt 0.893895 0.590173
vt 0.893898 0.590714
vt 0.893766 0.590063
vt 0.893771 0.590819
vt 0.893900 0.591382
vt 0.893772 0.591531
vt 0.893900 0.592087
vt 0.893772 0.592284
vt 0.893899 0.592853
vt 0.893770 0.593004
vt 0.893896 0.593474
vt 0.893766 0.593691
vt 0.893891 0.594060
vt 0.848568 0.554854
vt 0.847634 0.555349
vt 0.843954 0.552886
vt 0.849207 0.554162
vt 0.849631 0.553151
vt 0.849631 0.552100
vt 0.849382 0.551333
vt 0.848885 0.550611
vt 0.848255 0.550120
vt 0.847460 0.549792
vt 0.846608 0.549732
vt 0.845960 0.549852
vt 0.845214 0.550197
vt 0.844557 0.550806
vt 0.844188 0.551422
vt 0.843973 0.552121
vt 0.844480 0.554266
vt 0.844121 0.553603
vt 0.844992 0.554813
vt 0.845787 0.555277
vt 0.846644 0.555451
vt 0.880721 0.615351
vt 0.879080 0.615895
vt 0.879093 0.615388
vt 0.880728 0.616223
vt 0.879081 0.616327
vt 0.879091 0.616652
vt 0.809079 0.616501
vt 0.810731 0.616362
vt 0.810713 0.616912
vt 0.810732 0.615947
vt 0.809080 0.615889
vt 0.810701 0.615664
vt 0.809080 0.615290
vt 0.810714 0.615070
vt 0.809080 0.614706
vt 0.810710 0.614368
vt 0.809080 0.614008
vt 0.810726 0.613873
vt 0.810709 0.613467
vt 0.809079 0.613286
vt 0.810713 0.613148
vt 0.821043 0.613148
vt 0.819391 0.613599
vt 0.819408 0.613311
vt 0.821039 0.613819
vt 0.819388 0.614061
vt 0.821037 0.614454
vt 0.819404 0.614736
vt 0.821037 0.615077
vt 0.819391 0.615508
vt 0.821039 0.615770
vt 0.819389 0.616064
vt 0.821043 0.616605
vt 0.819398 0.616459
vt 0.819404 0.616780
vt 0.899179 0.639383
vt 0.899179 0.641126
vt 0.898721 0.640962
vt 0.905623 0.607469
vt 0.906286 0.607458
vt 0.906286 0.609092
vt 0.857685 0.632501
vt 0.858257 0.632498
vt 0.857651 0.634135
vt 0.858114 0.634146
vt 0.858540 0.634142
vt 0.858540 0.632511
vt 0.905971 0.566195
vt 0.905623 0.566195
vt 0.905645 0.564554
vt 0.906225 0.564548
vt 0.906338 0.566195
vt 0.879087 0.613713
vt 0.879081 0.613244
vt 0.880728 0.613148
vt 0.880720 0.613950
vt 0.879073 0.614339
vt 0.880719 0.614670
vt 0.879089 0.614845
vt 0.858674 0.589692
vt 0.858031 0.590059
vt 0.858423 0.589666
vt 0.857811 0.589940
vt 0.857001 0.590055
vt 0.857090 0.590225
vt 0.856457 0.590124
vt 0.856079 0.589812
vt 0.855908 0.589917
vt 0.855398 0.589322
vt 0.855222 0.589378
vt 0.855036 0.589148
vt 0.854984 0.588730
vt 0.854727 0.588585
vt 0.857828 0.585171
vt 0.858508 0.585483
vt 0.858037 0.585423
vt 0.858716 0.585856
vt 0.858961 0.585856
vt 0.859253 0.586523
vt 0.859331 0.586333
vt 0.859590 0.586934
vt 0.859494 0.587303
vt 0.859590 0.588398
vt 0.859121 0.588992
vt 0.859487 0.588081
vt 0.859161 0.589216
vt 0.854763 0.588100
vt 0.854539 0.587697
vt 0.854740 0.587346
vt 0.854689 0.586813
vt 0.854963 0.586590
vt 0.855000 0.586192
vt 0.855428 0.585944
vt 0.855423 0.585720
vt 0.856004 0.585328
vt 0.856227 0.585405
vt 0.856888 0.585077
vt 0.857195 0.585245
vt 0.887320 0.615253
vt 0.887961 0.614635
vt 0.887961 0.615419
vt 0.887320 0.614457
vt 0.887960 0.613921
vt 0.887318 0.613695
vt 0.860334 0.623904
vt 0.859690 0.624362
vt 0.859695 0.623725
vt 0.860330 0.624494
vt 0.860328 0.625274
vt 0.859687 0.625235
vt 0.859688 0.626029
vt 0.893766 0.558440
vt 0.894412 0.558069
vt 0.894402 0.558740
vt 0.893774 0.557749
vt 0.894417 0.557434
vt 0.893777 0.556860
vt 0.894417 0.556464
vt 0.893774 0.556038
vt 0.894410 0.555576
vt 0.893766 0.555366
vt 0.887318 0.617374
vt 0.887960 0.616999
vt 0.887959 0.617552
vt 0.887320 0.616645
vt 0.887961 0.616272
vt 0.887320 0.615856
vt 0.860330 0.626298
vt 0.859691 0.626791
vt 0.860334 0.627192
vt 0.859695 0.627426
vt 0.893773 0.543086
vt 0.893768 0.542443
vt 0.894412 0.542878
vt 0.894408 0.542341
vt 0.893766 0.541904
vt 0.894407 0.541666
vt 0.893766 0.541198
vt 0.894407 0.540828
vt 0.893768 0.540307
vt 0.894412 0.539928
vt 0.893773 0.539624
vt 0.806304 0.598274
vt 0.804699 0.600908
vt 0.806047 0.597506
vt 0.805478 0.596784
vt 0.804765 0.596383
vt 0.804179 0.596243
vt 0.803346 0.596289
vt 0.802449 0.596726
vt 0.801914 0.597322
vt 0.801573 0.598105
vt 0.801573 0.599129
vt 0.801956 0.600020
vt 0.802574 0.600606
vt 0.803103 0.600880
vt 0.803802 0.601027
vt 0.805940 0.599948
vt 0.805400 0.600517
vt 0.806276 0.599119
vt 0.844465 0.539928
vt 0.843954 0.539417
vt 0.844504 0.539809
vt 0.844464 0.544961
vt 0.843954 0.545532
vt 0.844697 0.545041
vt 0.844553 0.540022
vt 0.849650 0.544928
vt 0.844104 0.539274
vt 0.844631 0.544925
vt 0.849804 0.544965
vt 0.850159 0.539275
vt 0.849684 0.540035
vt 0.849828 0.539940
vt 0.844674 0.539812
vt 0.849588 0.539904
vt 0.893828 0.672554
vt 0.893828 0.672665
vt 0.893738 0.672639
vt 0.893738 0.672468
vt 0.931018 0.600455
vt 0.930767 0.600345
vt 0.930879 0.600303
vt 0.930997 0.599986
vt 0.931018 0.600111
vt 0.930873 0.600147
vt 0.930779 0.600094
vt 0.903389 0.668089
vt 0.903392 0.667923
vt 0.903548 0.668021
vt 0.903548 0.667780
vt 0.935322 0.565143
vt 0.935471 0.564968
vt 0.935474 0.565165
vt 0.935314 0.564988
vt 0.935314 0.564784
vt 0.935474 0.564740
vt 0.821100 0.672689
vt 0.821189 0.672583
vt 0.821190 0.672686
vt 0.821099 0.672556
vt 0.821190 0.672468
vt 0.944165 0.522510
vt 0.944241 0.522558
vt 0.944165 0.522703
vt 0.920870 0.668109
vt 0.920789 0.667948
vt 0.920920 0.668016
vt 0.920920 0.667869
vt 0.920851 0.667780
vt 0.925120 0.667997
vt 0.925120 0.667780
vt 0.925278 0.667938
vt 0.859647 0.672468
vt 0.859718 0.672627
vt 0.859580 0.672627
vt 0.935471 0.639467
vt 0.935469 0.639628
vt 0.935314 0.639559
vt 0.935315 0.639738
vt 0.935471 0.639848
vt 0.925276 0.668080
vt 0.939894 0.662580
vt 0.939806 0.662682
vt 0.939804 0.662534
vt 0.944165 0.592947
vt 0.944165 0.592803
vt 0.944254 0.592855
vt 0.944257 0.579677
vt 0.944199 0.579824
vt 0.944165 0.579677
vt 0.939894 0.662433
vt 0.933844 0.667921
vt 0.933705 0.668087
vt 0.933723 0.667914
vt 0.933705 0.667780
vt 0.939960 0.635822
vt 0.939804 0.636017
vt 0.939804 0.635820
vt 0.939962 0.636024
vt 0.936392 0.672468
vt 0.936506 0.672473
vt 0.936392 0.672626
vt 0.833984 0.672604
vt 0.833985 0.672468
vt 0.834074 0.672544
vt 0.834074 0.672685
vt 0.809266 0.645950
vt 0.809496 0.647518
vt 0.809288 0.647508
vt 0.809512 0.645952
vt 0.910920 0.624805
vt 0.911171 0.626353
vt 0.910964 0.626373
vt 0.911153 0.624799
vt 0.872364 0.653269
vt 0.872118 0.652041
vt 0.872364 0.652024
vt 0.872127 0.653256
vt 0.899888 0.600178
vt 0.899900 0.598611
vt 0.901113 0.598610
vt 0.901137 0.600178
vt 0.809163 0.647501
vt 0.809163 0.645869
vt 0.911303 0.626350
vt 0.911303 0.624708
vt 0.856293 0.590171
vt 0.921207 0.564831
vt 0.921207 0.566074
vt 0.921123 0.565292
vt 0.855239 0.589510
s 1
g robotic_arm.005_brazoRobot
usemtl brazoRobot
f 6/1/1 7/2/2 16/3/3
f 1/4/4 97/5/5 16/3/3
f 3/6/6 10/7/7 2/8/8
f 7/2/2 1/4/4 16/3/3
f 4/9/9 3/6/9 2/8/9
f 9/10/10 2/8/8 10/7/7
f 9/10/11 8/11/12 2/8/13
f 4/9/14 12/12/14 5/13/14
f 4/9/15 2/8/15 12/12/15
f 19/14/16 12/12/17 115/15/18
f 8/11/12 110/16/19 2/8/13
f 8/11/20 13/17/20 110/16/20
f 20/18/21 11/19/21 12/12/21
f 97/5/22 106/20/22 114/21/22
f 17/22/23 15/23/23 115/15/23
f 15/23/24 18/24/25 115/15/26
f 13/17/27 16/3/27 110/16/27
f 13/17/28 6/1/28 16/3/28
f 5/13/29 12/12/29 11/19/29
f 19/14/30 14/25/31 12/12/32
f 96/26/33 18/24/25 15/23/24
f 114/21/34 16/3/34 97/5/34
f 114/21/35 17/22/36 16/3/37
f 17/22/36 12/12/38 16/3/37
f 17/22/39 115/15/18 12/12/17
f 96/26/33 15/23/24 106/20/40
f 14/25/31 20/18/41 12/12/32
f 41/27/42 22/28/42 21/29/42
f 22/28/43 43/30/43 21/29/43
f 22/28/44 23/31/44 43/30/44
f 23/31/45 26/32/45 43/30/45
f 23/31/46 24/33/46 26/32/46
f 24/34/47 25/35/47 26/36/47
f 25/35/48 27/37/48 26/36/48
f 25/35/49 29/38/49 27/37/49
f 29/38/50 28/39/50 27/37/50
f 29/38/51 31/40/51 28/39/51
f 31/40/52 30/41/52 28/39/52
f 31/42/53 33/43/53 30/44/53
f 33/43/54 32/45/54 30/44/54
f 33/43/55 34/46/55 32/45/55
f 34/46/56 42/47/56 32/45/56
f 34/46/57 35/48/57 42/47/57
f 34/49/58 37/50/58 35/51/58
f 37/50/59 36/52/59 35/51/59
f 37/50/60 39/53/60 36/52/60
f 39/53/61 38/54/61 36/52/61
f 39/53/62 40/55/62 38/54/62
f 39/53/63 41/56/63 40/55/63
f 41/27/64 21/29/64 40/57/64
f 36/58/65 38/59/65 26/60/65
f 35/61/65 36/58/65 26/60/65
f 42/62/65 35/61/65 26/60/65
f 32/63/66 42/62/65 26/60/65
f 32/63/66 26/60/65 30/64/67
f 28/65/67 30/64/67 26/60/65
f 27/66/68 28/65/67 26/60/65
f 21/67/69 43/68/70 26/60/65
f 40/69/65 21/67/69 26/60/65
f 38/59/65 40/69/65 26/60/65
f 118/70/71 126/71/71 44/72/71
f 120/73/72 118/70/72 44/72/72
f 120/73/73 44/72/73 45/74/73
f 45/74/74 46/75/74 120/73/74
f 46/75/75 45/74/75 122/76/75
f 45/74/76 48/77/76 122/76/76
f 48/77/77 47/78/77 122/76/77
f 49/79/78 47/78/78 48/77/78
f 49/79/79 48/77/79 50/80/79
f 50/80/80 117/81/80 49/79/80
f 50/80/81 60/82/81 117/81/81
f 59/83/82 51/84/82 127/85/82
f 117/81/83 60/82/83 127/85/83
f 128/86/84 127/85/84 51/84/84
f 51/84/85 52/87/85 128/86/85
f 51/84/86 53/88/86 52/87/86
f 131/89/87 52/87/87 53/88/87
f 53/88/88 134/90/88 131/89/88
f 134/90/89 53/88/89 54/91/89
f 55/92/90 134/90/90 54/91/90
f 54/91/91 126/71/91 55/92/91
f 54/91/92 56/93/92 126/71/92
f 57/94/93 58/95/93 79/96/93
f 58/95/94 56/97/94 79/96/94
f 58/95/95 44/98/95 56/97/95
f 44/72/96 126/71/96 56/93/96
f 60/82/97 59/83/97 127/85/97
f 60/99/98 61/100/98 59/101/98
f 60/99/99 88/102/99 61/100/99
f 88/102/100 62/103/100 61/100/100
f 88/102/101 63/104/101 62/103/101
f 63/104/102 64/105/102 62/103/102
f 63/104/103 65/106/103 64/105/103
f 63/104/104 66/107/104 65/106/104
f 66/107/105 67/108/105 65/106/105
f 66/107/106 84/109/106 67/108/106
f 84/110/107 68/111/107 67/112/107
f 84/110/108 69/113/108 68/111/108
f 69/113/109 70/114/109 68/111/109
f 69/113/110 71/115/110 70/114/110
f 71/115/111 72/116/111 70/114/111
f 71/115/112 73/117/112 72/116/112
f 73/117/113 74/118/113 72/116/113
f 73/117/114 76/119/114 74/118/114
f 76/120/115 75/121/115 74/122/115
f 76/120/116 77/123/116 75/121/116
f 77/123/117 78/124/117 75/121/117
f 77/123/118 57/94/118 78/124/118
f 57/94/119 79/96/119 78/124/119
f 77/125/120 81/126/121 80/127/122
f 77/125/120 76/128/123 81/126/121
f 76/128/123 73/129/124 81/126/121
f 73/129/124 82/130/120 81/126/121
f 73/129/124 71/131/125 82/130/120
f 71/131/125 83/132/126 82/130/120
f 71/131/125 69/133/127 83/132/126
f 69/133/127 85/134/128 83/132/126
f 69/133/127 84/135/129 85/134/128
f 84/135/129 86/136/130 85/134/128
f 84/135/129 66/137/131 86/136/130
f 66/137/131 87/138/120 86/136/130
f 66/137/131 63/139/132 87/138/120
f 63/139/132 89/140/132 87/138/120
f 63/139/132 88/141/124 89/140/132
f 88/141/124 90/142/120 89/140/132
f 88/141/124 60/143/132 90/142/120
f 60/143/132 91/144/133 90/142/120
f 60/143/132 50/145/123 91/144/133
f 50/145/123 92/146/134 91/144/133
f 50/145/123 48/147/135 92/146/134
f 48/147/135 45/148/136 92/146/134
f 45/148/136 93/149/120 92/146/134
f 45/148/136 44/150/125 93/149/120
f 44/150/125 94/151/137 93/149/120
f 44/150/125 58/152/138 94/151/137
f 58/152/138 57/153/132 94/151/137
f 57/153/132 95/154/132 94/151/137
f 57/153/132 77/125/120 95/154/132
f 77/125/120 80/127/122 95/154/132
f 70/155/65 72/156/65 39/157/65
f 72/156/65 74/158/65 39/157/65
f 74/158/65 41/159/65 39/157/65
f 74/158/65 75/160/65 41/159/65
f 75/160/65 78/161/65 41/159/65
f 78/161/65 22/162/65 41/159/65
f 78/161/65 23/163/65 22/162/65
f 78/161/65 79/164/65 23/163/65
f 79/164/65 56/165/65 23/163/65
f 56/165/65 24/166/65 23/163/65
f 56/165/65 54/167/65 24/166/65
f 54/167/65 25/168/65 24/166/65
f 54/167/65 53/169/65 25/168/65
f 53/169/65 51/170/65 25/168/65
f 51/170/65 29/171/65 25/168/65
f 51/170/65 59/172/65 29/171/65
f 59/172/65 31/173/65 29/171/65
f 59/172/65 61/174/65 31/173/65
f 61/174/65 33/175/65 31/173/65
f 61/174/65 62/176/65 33/175/65
f 62/176/65 64/177/65 33/175/65
f 64/177/65 34/178/65 33/175/65
f 64/177/65 65/179/65 34/178/65
f 65/179/65 67/180/65 34/178/65
f 67/180/65 37/181/65 34/178/65
f 67/180/65 68/182/65 37/181/65
f 68/182/65 39/157/65 37/181/65
f 68/182/65 70/155/65 39/157/65
f 1/183/139 80/184/139 81/185/139
f 1/183/140 7/186/140 80/184/140
f 7/186/141 95/187/141 80/184/141
f 7/186/142 6/188/142 95/187/142
f 6/188/143 13/189/143 95/187/143
f 13/189/144 94/190/144 95/187/144
f 13/189/145 8/191/145 94/190/145
f 8/192/146 93/193/146 94/194/146
f 8/192/147 9/195/147 93/193/147
f 9/195/148 92/196/148 93/193/148
f 9/195/149 10/197/149 92/196/149
f 10/197/150 3/198/150 92/196/150
f 3/198/151 91/199/151 92/196/151
f 3/198/152 4/200/152 91/199/152
f 4/200/153 5/201/153 91/199/153
f 5/201/154 90/202/154 91/199/154
f 5/203/155 11/204/155 90/205/155
f 11/204/156 89/206/156 90/205/156
f 11/204/157 87/207/157 89/206/157
f 11/204/158 20/208/158 87/207/158
f 20/208/159 86/209/159 87/207/159
f 20/208/160 14/210/160 86/209/160
f 14/211/161 85/212/161 86/213/161
f 14/211/162 19/214/162 85/212/162
f 19/214/163 115/215/163 85/212/163
f 115/215/164 83/216/164 85/212/164
f 115/215/165 18/217/165 83/216/165
f 18/217/166 82/218/166 83/216/166
f 18/217/167 96/219/167 82/218/167
f 96/219/168 106/220/168 82/218/168
f 106/220/169 81/221/169 82/218/169
f 106/222/170 97/223/170 81/185/170
f 97/223/171 1/183/171 81/185/171
f 103/224/172 98/225/173 99/226/174
f 100/227/175 99/226/174 98/225/173
f 100/227/176 127/228/176 99/226/176
f 104/229/177 101/230/178 102/231/179
f 136/232/180 119/233/181 101/230/178
f 102/231/179 101/230/178 119/233/181
f 99/234/182 130/235/182 103/236/182
f 135/237/183 136/238/183 101/239/183
f 132/240/184 103/236/185 130/235/186
f 132/240/184 101/239/187 103/236/185
f 132/240/188 135/237/188 101/239/188
f 124/241/189 104/242/190 102/243/191
f 125/244/192 100/245/192 98/246/192
f 124/241/189 98/246/193 104/242/190
f 124/241/194 125/244/194 98/246/194
f 104/247/195 103/248/195 101/249/195
f 104/247/195 98/250/195 103/248/195
f 108/251/196 15/252/197 17/253/198
f 108/251/196 109/254/199 15/252/197
f 107/255/200 17/256/200 114/257/200
f 107/255/201 108/258/201 17/256/201
f 105/259/202 114/260/202 106/261/202
f 105/259/203 107/262/203 114/260/203
f 109/263/204 106/264/204 15/265/204
f 109/263/205 105/266/205 106/264/205
f 105/267/120 108/268/120 107/269/120
f 105/267/120 109/270/120 108/268/120
f 12/271/206 116/272/207 112/273/208
f 12/271/206 2/274/209 116/272/207
f 2/275/210 113/276/210 116/277/210
f 2/275/211 110/278/211 113/276/211
f 110/279/212 111/280/212 113/281/212
f 110/279/213 16/282/213 111/280/213
f 16/283/214 112/284/214 111/285/214
f 16/283/215 12/286/215 112/284/215
f 116/287/216 111/288/216 112/289/216
f 116/287/217 113/290/217 111/288/217
f 125/291/218 117/292/218 100/293/218
f 118/70/219 120/73/219 119/294/219
f 121/295/220 102/243/220 119/296/220
f 121/297/221 119/294/221 120/73/221
f 46/75/222 121/297/222 120/73/222
f 124/241/223 102/243/223 121/295/223
f 122/76/224 121/297/224 46/75/224
f 123/298/225 124/241/225 121/295/225
f 122/76/226 123/299/226 121/297/226
f 47/78/227 123/299/227 122/76/227
f 47/78/228 125/300/228 123/299/228
f 125/300/229 124/301/229 123/299/229
f 125/300/230 47/78/230 49/79/230
f 117/302/231 125/303/231 49/304/231
f 136/232/232 118/305/232 119/233/232
f 136/232/233 126/306/233 118/305/233
f 117/307/234 127/228/234 100/227/234
f 99/234/235 129/308/235 130/235/235
f 99/234/236 127/309/236 129/308/236
f 128/86/237 129/310/237 127/85/237
f 52/87/238 129/310/238 128/86/238
f 52/311/239 130/235/239 129/308/239
f 132/312/240 130/313/240 52/87/240
f 131/89/241 132/312/241 52/87/241
f 133/314/242 132/315/242 131/316/242
f 134/90/243 133/317/243 131/89/243
f 135/318/244 132/319/244 133/320/244
f 55/92/245 133/317/245 134/90/245
f 55/321/246 135/322/246 133/323/246
f 136/324/247 135/325/247 55/92/247
f 126/71/248 136/324/248 55/92/248
f 241/326/249 155/327/249 137/328/249
f 137/328/250 288/329/250 241/326/250
f 137/328/251 283/330/251 288/329/251
f 137/328/252 138/331/252 283/330/252
f 138/331/253 277/332/253 283/330/253
f 138/333/254 139/334/254 277/335/254
f 139/334/255 279/336/255 277/335/255
f 139/334/256 140/337/256 279/336/256
f 140/337/257 281/338/257 279/336/257
f 140/337/258 141/339/258 281/338/258
f 141/339/259 285/340/259 281/338/259
f 141/339/260 142/341/260 285/340/260
f 142/341/261 280/342/261 285/340/261
f 142/341/262 143/343/262 280/342/262
f 143/343/263 286/344/263 280/342/263
f 143/343/264 278/345/264 286/344/264
f 143/343/265 144/346/265 278/345/265
f 144/346/266 282/347/266 278/345/266
f 144/346/267 145/348/267 282/347/267
f 145/348/268 284/349/268 282/347/268
f 145/348/269 146/350/270 284/349/271
f 146/350/270 287/351/272 284/349/271
f 146/352/273 270/353/273 287/354/273
f 269/355/274 270/353/274 146/352/274
f 269/355/275 146/352/276 166/356/277
f 263/357/278 169/358/278 266/359/278
f 266/359/279 169/358/280 255/360/281
f 147/361/282 255/360/281 169/358/280
f 147/361/283 253/362/283 255/360/283
f 147/361/284 257/363/284 253/362/284
f 147/361/285 303/364/285 257/363/285
f 303/364/286 251/365/286 257/363/286
f 303/366/287 256/367/287 251/368/287
f 303/366/288 148/369/288 256/367/288
f 148/369/289 252/370/289 256/367/289
f 148/369/290 149/371/290 252/370/290
f 149/371/291 254/372/291 252/370/291
f 149/371/292 150/373/292 254/372/292
f 150/373/293 260/374/293 254/372/293
f 150/373/294 259/375/294 260/374/294
f 150/373/295 151/376/295 259/375/295
f 151/376/296 261/377/296 259/375/296
f 151/376/297 262/378/297 261/377/297
f 151/376/298 152/379/298 262/378/298
f 152/379/299 250/380/299 262/378/299
f 152/381/300 153/382/301 250/383/302
f 250/383/302 153/382/301 242/384/303
f 245/385/304 242/384/304 153/382/304
f 239/386/305 157/387/305 154/388/305
f 239/386/306 320/389/306 157/387/306
f 320/389/307 158/390/307 157/387/307
f 320/389/308 321/391/308 158/390/308
f 321/391/309 159/392/309 158/390/309
f 165/393/310 159/392/310 321/391/310
f 165/393/311 160/394/311 159/392/311
f 153/395/312 161/396/312 160/394/312
f 153/395/313 162/397/313 161/396/313
f 162/397/314 164/398/314 161/396/314
f 163/399/315 161/396/315 164/398/315
f 163/399/316 164/398/316 155/327/316
f 156/400/317 163/399/317 155/327/317
f 245/401/318 153/402/318 165/403/318
f 160/394/319 165/393/319 153/395/319
f 156/400/320 239/386/320 154/388/320
f 156/400/321 155/327/321 239/386/321
f 155/327/322 241/326/322 239/386/322
f 269/355/275 166/356/277 325/404/323
f 166/356/277 329/405/324 325/404/323
f 166/356/325 328/406/326 329/405/327
f 166/356/325 167/407/328 328/406/326
f 167/407/329 168/408/329 328/406/329
f 168/408/330 327/409/330 328/406/330
f 168/408/331 169/358/331 327/409/331
f 169/358/332 330/410/332 327/409/332
f 169/358/333 263/357/333 330/410/333
f 308/411/334 309/412/334 323/413/334
f 310/414/335 171/415/335 170/416/335
f 310/414/336 305/417/336 171/415/336
f 315/418/337 323/413/337 309/412/337
f 308/411/338 326/419/338 324/420/338
f 305/417/339 309/412/339 308/411/339
f 308/411/340 171/415/340 305/417/340
f 314/421/341 308/411/341 323/413/341
f 314/421/342 313/422/343 308/411/344
f 313/422/343 326/419/345 308/411/344
f 195/423/346 173/424/347 194/425/346
f 173/424/347 172/426/347 194/425/346
f 173/424/347 175/427/348 172/426/347
f 173/424/347 174/428/195 175/427/348
f 174/428/195 176/429/349 175/427/348
f 174/428/195 177/430/349 176/429/349
f 177/430/349 178/431/350 176/429/349
f 177/430/349 179/432/350 178/431/350
f 179/432/350 180/433/351 178/431/350
f 179/432/350 196/434/352 180/433/351
f 196/434/352 332/435/353 180/433/351
f 181/436/354 182/437/355 209/438/356
f 181/436/354 183/439/348 182/437/355
f 183/439/348 184/440/357 182/437/355
f 183/439/348 185/441/358 184/440/357
f 185/441/358 186/442/359 184/440/357
f 185/441/358 187/443/360 186/442/359
f 185/441/358 188/444/361 187/443/360
f 188/444/361 189/445/362 187/443/360
f 188/444/361 191/446/362 189/445/362
f 188/444/361 190/447/363 191/446/362
f 190/447/363 193/448/348 191/446/362
f 190/447/363 192/449/348 193/448/348
f 192/449/348 194/425/346 193/448/348
f 192/449/348 195/423/346 194/425/346
f 196/434/352 197/450/364 332/435/353
f 197/450/364 198/451/365 332/435/353
f 197/450/364 199/452/366 198/451/365
f 199/452/366 200/453/367 198/451/365
f 199/452/366 202/454/368 200/453/367
f 202/454/368 201/455/369 200/453/367
f 202/454/368 203/456/370 201/455/369
f 202/454/368 304/457/371 203/456/370
f 304/457/371 204/458/372 203/456/370
f 304/457/371 206/459/354 204/458/372
f 206/459/354 205/460/373 204/458/372
f 206/459/354 207/461/356 205/460/373
f 207/461/356 208/462/356 205/460/373
f 207/461/356 181/436/354 208/462/356
f 181/436/354 209/438/356 208/462/356
f 290/463/374 211/464/374 268/465/374
f 268/465/375 211/464/375 275/466/375
f 274/467/376 210/468/377 211/464/378
f 273/469/379 275/466/379 211/464/379
f 211/464/380 272/470/380 274/467/380
f 273/469/381 211/464/378 210/468/377
f 214/471/382 216/472/383 241/473/384
f 269/474/385 325/475/386 212/476/387
f 213/477/388 269/474/385 221/478/389
f 214/471/382 241/473/384 219/479/390
f 217/480/391 315/481/392 222/482/393
f 218/483/394 212/476/387 323/484/395
f 216/472/383 319/485/396 241/473/384
f 220/486/397 323/484/395 223/487/398
f 218/483/394 323/484/395 220/486/397
f 212/476/387 325/475/386 323/484/395
f 221/478/389 269/474/385 212/476/387
f 213/477/388 219/479/390 269/474/385
f 219/479/390 241/473/384 269/474/385
f 217/480/391 223/487/399 315/481/392
f 315/481/392 319/485/396 215/488/400
f 223/487/401 323/484/401 315/481/401
f 222/482/393 315/481/392 215/488/400
f 216/472/383 215/488/400 319/485/396
f 246/489/402 243/490/403 247/491/404
f 243/490/403 267/492/405 248/493/406
f 224/494/407 246/489/407 258/495/407
f 224/494/408 243/490/403 246/489/402
f 248/493/406 247/491/404 243/490/403
f 235/496/409 245/401/410 225/497/411
f 230/498/412 237/499/413 331/500/414
f 245/401/410 322/501/415 228/502/416
f 226/503/417 264/504/418 229/505/417
f 234/506/419 228/502/416 322/501/415
f 226/503/417 230/498/412 264/504/418
f 231/507/420 232/508/421 324/509/422
f 233/510/423 234/506/419 324/509/422
f 229/505/417 264/504/418 235/496/409
f 230/498/412 330/511/424 264/504/418
f 232/508/421 233/510/423 324/509/422
f 228/502/416 225/497/411 245/401/410
f 235/496/409 264/504/418 245/401/410
f 326/512/425 331/500/414 237/499/413
f 227/513/426 236/514/427 326/512/425
f 234/506/419 322/501/415 324/509/422
f 236/514/428 324/509/428 326/512/428
f 326/512/425 237/499/413 227/513/426
f 231/507/420 324/509/422 236/514/429
f 331/500/414 330/511/424 230/498/412
f 165/515/430 307/516/430 308/411/430
f 321/391/431 307/517/431 165/393/431
f 321/518/432 238/519/432 307/520/432
f 320/389/433 238/521/433 321/391/433
f 320/522/434 306/523/434 238/524/434
f 320/389/435 239/386/435 306/525/435
f 239/526/436 319/527/436 306/528/436
f 309/412/437 319/527/437 315/418/437
f 309/412/438 306/528/438 319/527/438
f 322/529/439 165/515/440 308/411/441
f 311/530/442 322/529/439 308/411/441
f 311/530/443 324/420/443 322/529/443
f 240/531/444 323/413/444 325/532/444
f 326/419/445 312/533/445 331/534/445
f 312/533/446 330/535/446 331/534/446
f 325/532/447 329/536/447 240/531/447
f 329/536/448 314/421/448 240/531/448
f 329/536/449 328/537/449 314/421/449
f 328/537/450 313/422/450 314/421/450
f 328/406/451 327/409/451 313/538/451
f 327/539/452 312/533/452 313/422/452
f 327/409/453 330/410/453 312/540/453
f 264/504/454 244/541/454 245/401/454
f 264/504/455 265/542/455 244/541/455
f 265/543/456 243/490/456 244/544/456
f 267/492/457 243/490/457 265/543/457
f 271/545/458 269/474/458 241/473/458
f 241/473/459 289/546/459 271/545/459
f 289/547/460 268/465/460 271/548/460
f 289/547/461 290/463/461 268/465/461
f 245/401/462 165/403/462 322/501/462
f 242/549/463 245/401/463 244/541/463
f 242/549/464 244/541/464 243/550/464
f 243/490/465 250/551/465 242/552/465
f 243/490/466 224/494/466 249/553/466
f 247/491/467 248/493/467 251/554/467
f 258/495/468 246/489/468 260/555/468
f 248/493/469 267/492/469 255/556/469
f 248/493/470 255/556/470 253/557/470
f 247/491/471 251/554/471 256/558/471
f 224/494/472 258/495/472 261/559/472
f 246/489/473 247/491/473 252/560/473
f 249/553/474 250/551/474 243/490/474
f 246/489/475 254/561/475 260/555/475
f 249/553/476 224/494/477 261/559/478
f 248/562/479 253/362/479 257/363/479
f 267/563/480 266/359/480 255/360/480
f 260/374/481 259/375/481 258/564/481
f 246/565/482 252/370/482 254/372/482
f 248/493/483 257/566/483 251/554/483
f 249/553/476 261/559/478 262/567/484
f 258/564/485 259/375/485 261/377/485
f 247/568/486 256/367/486 252/370/486
f 249/569/487 262/378/487 250/380/487
f 264/570/488 263/571/488 265/572/488
f 265/543/489 263/573/489 267/492/489
f 267/563/490 263/357/490 266/359/490
f 263/574/491 264/504/491 330/511/491
f 270/575/492 269/474/492 271/545/492
f 270/575/493 271/545/493 268/576/493
f 268/465/494 287/577/494 270/578/494
f 211/464/495 290/463/495 276/579/495
f 210/468/496 278/580/496 273/469/496
f 211/464/497 279/581/497 272/470/497
f 211/464/498 276/579/498 277/582/498
f 268/465/499 275/466/499 287/577/499
f 274/467/500 280/583/500 210/468/500
f 210/468/501 280/583/501 286/584/501
f 273/585/502 278/345/502 282/347/502
f 275/466/503 273/469/503 282/586/503
f 211/464/504 277/582/504 279/581/504
f 210/468/505 286/584/505 278/580/505
f 279/581/506 281/587/506 272/470/506
f 275/588/507 282/347/507 284/349/507
f 276/589/508 290/590/508 283/591/508
f 280/342/509 274/592/509 285/340/509
f 276/579/510 283/593/510 277/582/510
f 275/466/511 284/594/511 287/577/511
f 274/592/512 272/595/512 285/340/512
f 290/596/513 288/597/513 283/598/513
f 272/595/514 281/338/514 285/340/514
f 241/473/515 288/599/515 289/546/515
f 289/600/516 288/601/516 290/602/516
f 241/473/517 319/485/517 239/603/517
f 292/604/518 293/605/518 291/606/518
f 293/605/519 154/607/520 291/606/521
f 293/605/519 156/608/522 154/607/520
f 295/609/523 299/610/523 294/611/523
f 295/609/524 159/612/524 299/610/525
f 159/612/524 160/613/526 299/610/525
f 295/614/527 158/615/528 159/616/529
f 154/617/530 157/618/530 291/619/530
f 157/618/531 158/615/528 291/619/532
f 158/615/528 295/614/527 291/619/532
f 299/620/533 296/621/373 294/622/534
f 296/621/373 293/623/535 292/624/534
f 296/621/373 292/624/534 294/622/534
f 291/625/536 297/626/537 301/627/538
f 291/625/536 295/628/539 297/626/537
f 295/628/540 302/629/540 297/626/540
f 295/628/541 294/630/541 302/629/541
f 294/630/542 298/631/543 302/629/544
f 294/630/542 292/632/545 298/631/543
f 292/632/546 301/627/546 298/631/546
f 292/632/547 291/625/547 301/627/547
f 293/633/548 163/634/548 156/635/548
f 293/636/549 296/637/549 163/638/549
f 161/639/550 163/640/550 296/641/550
f 161/642/551 296/643/551 299/644/551
f 160/645/552 161/646/552 299/647/552
f 317/648/137 300/649/553 316/650/554
f 317/648/137 318/651/555 300/649/553
f 301/627/556 316/650/557 300/649/558
f 301/627/556 297/626/559 316/650/557
f 297/626/560 317/648/561 316/650/562
f 297/626/560 302/629/561 317/648/561
f 298/652/563 300/653/564 318/654/565
f 298/652/563 301/655/566 300/653/564
f 302/629/567 318/651/568 317/648/569
f 302/656/567 298/657/570 318/658/568
f 197/659/571 162/397/571 153/395/571
f 197/450/572 196/434/572 162/660/572
f 196/661/573 164/398/573 162/397/573
f 196/434/574 155/662/574 164/663/574
f 196/434/575 179/432/575 155/662/575
f 179/664/576 137/328/576 155/327/576
f 179/432/577 177/430/577 137/665/577
f 177/430/578 138/666/578 137/665/578
f 177/430/579 139/667/579 138/666/579
f 177/430/580 174/428/580 139/667/580
f 174/668/581 140/337/581 139/334/581
f 174/428/582 173/424/582 140/669/582
f 173/670/583 141/339/583 140/337/583
f 173/670/584 142/341/584 141/339/584
f 173/424/585 195/423/585 142/671/585
f 181/672/586 303/364/586 147/361/586
f 181/436/587 207/461/587 303/673/587
f 207/674/588 148/369/588 303/366/588
f 207/461/589 206/459/589 148/675/589
f 206/676/590 149/371/590 148/369/590
f 206/459/591 304/457/591 149/677/591
f 304/678/592 150/373/592 149/371/592
f 304/457/593 202/454/593 150/679/593
f 202/680/594 151/376/594 150/373/594
f 202/454/595 152/681/595 151/682/595
f 202/454/596 199/452/596 152/681/596
f 199/683/597 153/382/597 152/381/597
f 199/452/598 197/450/598 153/684/598
f 195/685/599 143/343/599 142/341/599
f 195/423/600 192/449/600 143/686/600
f 192/687/601 144/346/601 143/343/601
f 192/449/602 145/688/602 144/689/602
f 192/449/603 190/447/603 145/688/603
f 190/690/604 146/350/604 145/348/604
f 190/447/605 188/444/605 146/691/605
f 188/692/606 166/356/606 146/352/606
f 188/444/607 185/441/607 166/693/607
f 185/441/608 167/694/608 166/693/608
f 185/695/609 168/408/609 167/407/609
f 185/441/610 183/439/610 168/696/610
f 183/697/611 169/358/611 168/408/611
f 183/439/612 181/436/612 169/698/612
f 181/672/613 147/361/613 169/358/613
f 310/699/614 306/700/614 305/701/614
f 238/702/615 310/703/616 170/704/617
f 238/702/615 170/704/617 307/705/618
f 238/702/615 306/706/619 310/703/616
f 307/707/620 170/708/620 171/709/620
f 171/709/621 308/710/621 307/707/621
f 306/700/622 309/711/622 305/701/622
f 324/420/623 311/530/623 308/411/623
f 312/533/624 326/419/624 313/422/624
f 240/531/625 314/421/625 323/413/625
f 180/712/626 353/713/626 345/714/626
f 180/712/627 332/715/627 353/713/627
f 332/715/628 333/716/628 353/713/628
f 332/715/629 198/717/629 333/716/629
f 198/717/630 334/718/630 333/716/630
f 198/717/631 200/719/631 334/718/631
f 200/720/632 335/721/632 334/722/632
f 200/720/633 201/723/633 335/721/633
f 201/723/634 336/724/634 335/721/634
f 201/723/635 203/725/635 336/724/635
f 203/725/636 337/726/636 336/724/636
f 203/725/637 204/727/637 337/726/637
f 191/728/638 338/729/638 352/730/638
f 191/728/639 193/731/639 338/729/639
f 193/731/640 339/732/640 338/729/640
f 193/731/641 194/733/641 339/732/641
f 194/733/642 340/734/642 339/732/642
f 194/733/643 341/735/643 340/734/643
f 194/733/644 172/736/644 341/735/644
f 172/736/645 342/737/645 341/735/645
f 172/736/646 175/738/646 342/737/646
f 175/738/647 343/739/647 342/737/647
f 175/740/648 176/741/648 343/742/648
f 176/741/649 344/743/649 343/742/649
f 176/741/650 178/744/650 344/743/650
f 178/744/651 345/714/651 344/743/651
f 178/744/652 180/712/652 345/714/652
f 204/727/653 205/745/653 337/726/653
f 205/745/654 346/746/654 337/726/654
f 205/745/655 208/747/655 346/746/655
f 208/747/656 347/748/656 346/746/656
f 208/747/657 209/749/657 347/748/657
f 209/750/658 182/751/658 347/752/658
f 182/751/659 348/753/659 347/752/659
f 182/751/660 184/754/660 348/753/660
f 184/754/661 349/755/661 348/753/661
f 184/754/662 186/756/662 349/755/662
f 186/756/663 350/757/663 349/755/663
f 186/756/664 187/758/664 350/757/664
f 187/758/665 351/759/665 350/757/665
f 187/758/666 189/760/666 351/759/666
f 189/760/667 352/761/667 351/759/667
f 189/760/668 191/762/668 352/761/668
f 336/763/195 337/764/669 351/765/195
f 335/766/669 336/763/195 351/765/195
f 335/766/669 351/765/195 334/767/195
f 334/767/195 351/765/195 333/768/195
f 333/768/195 351/765/195 353/769/195
f 345/770/670 353/769/195 351/765/195
f 344/771/195 345/770/670 351/765/195
f 344/771/195 351/765/195 343/772/669
f 343/772/669 351/765/195 342/773/195
f 341/774/363 342/773/195 351/765/195
f 340/775/348 341/774/363 351/765/195
f 339/776/348 340/775/348 351/765/195
f 339/776/348 351/765/195 338/777/671
f 338/777/671 351/765/195 352/778/669
f 349/779/672 350/780/373 351/765/195
f 348/781/364 349/779/672 351/765/195
f 347/782/673 348/781/364 351/765/195
f 346/783/354 347/782/673 351/765/195
f 337/764/669 346/783/354 351/765/195
f 375/784/674 481/785/674 376/786/674
f 375/784/675 357/787/675 481/785/675
f 357/787/676 478/788/676 481/785/676
f 357/787/677 477/789/677 478/788/677
f 358/790/678 479/791/678 475/792/678
f 358/790/679 359/793/679 479/791/679
f 358/790/680 360/794/680 359/793/680
f 360/794/681 485/795/681 359/793/681
f 360/794/682 361/796/682 485/795/682
f 361/796/683 483/797/683 485/795/683
f 361/796/684 362/798/684 483/797/684
f 362/798/685 486/799/685 483/797/685
f 362/798/686 363/800/686 486/799/686
f 363/800/687 484/801/687 486/799/687
f 363/800/688 487/802/689 484/801/690
f 363/800/688 364/803/691 487/802/689
f 364/803/692 488/804/692 487/802/692
f 364/805/693 494/806/693 488/807/693
f 364/805/694 365/808/694 494/806/694
f 365/808/695 493/809/695 494/806/695
f 365/808/696 366/810/696 493/809/696
f 366/810/697 495/811/697 493/809/697
f 366/810/698 367/812/698 495/811/698
f 367/812/699 497/813/699 495/811/699
f 367/812/700 368/814/700 497/813/700
f 368/814/701 379/815/701 497/813/701
f 368/814/702 369/816/702 379/815/702
f 369/816/703 496/817/703 379/815/703
f 369/816/704 482/818/704 496/817/704
f 369/819/705 476/820/705 482/821/705
f 369/822/706 370/823/706 476/824/706
f 370/825/707 371/826/707 476/827/707
f 371/826/708 480/828/708 476/827/708
f 371/826/709 381/829/709 480/828/709
f 371/826/710 354/830/710 381/829/710
f 489/831/711 472/832/711 356/833/711
f 489/831/712 356/833/712 372/834/712
f 474/835/713 489/831/713 372/834/713
f 490/836/714 474/837/714 372/838/714
f 490/836/715 372/838/715 373/839/715
f 491/840/716 490/836/716 373/839/716
f 491/840/717 373/839/717 374/841/717
f 492/842/718 491/840/718 374/841/718
f 492/842/719 374/841/719 375/784/719
f 376/786/720 492/842/720 375/784/720
f 374/843/721 373/844/721 387/845/721
f 373/844/721 388/846/721 387/845/721
f 373/844/721 389/847/722 388/846/721
f 373/844/721 372/848/723 389/847/722
f 372/848/723 356/849/724 389/847/722
f 356/849/725 390/850/725 389/847/725
f 356/849/726 355/851/727 390/850/728
f 355/851/727 391/852/729 390/850/728
f 355/851/730 354/853/730 391/852/730
f 354/853/731 371/854/731 391/852/731
f 371/854/732 392/855/733 391/852/734
f 371/854/732 370/856/735 392/855/733
f 363/857/721 362/858/736 393/859/721
f 362/858/736 394/860/736 393/859/721
f 362/858/736 361/861/736 394/860/736
f 361/861/736 395/862/721 394/860/736
f 361/861/736 360/863/721 395/862/721
f 360/863/721 358/864/721 395/862/721
f 358/864/721 396/865/721 395/862/721
f 357/866/737 398/867/737 397/868/737
f 357/866/738 375/869/721 398/867/738
f 375/869/721 387/845/721 398/867/738
f 375/869/721 374/843/721 387/845/721
f 370/856/735 399/870/739 392/855/733
f 370/856/735 369/871/721 399/870/739
f 369/871/721 400/872/721 399/870/739
f 369/871/721 368/873/737 400/872/721
f 368/873/737 401/874/738 400/872/721
f 368/873/737 367/875/721 401/874/738
f 367/875/721 402/876/721 401/874/738
f 367/875/721 366/877/721 402/876/721
f 366/877/721 365/878/721 402/876/721
f 365/878/721 403/879/738 402/876/721
f 365/878/721 364/880/721 403/879/738
f 364/880/721 404/881/721 403/879/738
f 364/880/721 363/857/721 404/881/721
f 363/857/721 393/859/721 404/881/721
f 405/882/740 393/883/740 394/884/740
f 405/882/741 406/885/741 393/883/741
f 406/885/742 404/886/742 393/883/742
f 406/885/743 407/887/743 404/886/743
f 407/888/744 403/889/744 404/890/744
f 407/888/745 408/891/745 403/889/745
f 408/891/746 409/892/746 403/889/746
f 409/892/747 402/893/747 403/889/747
f 409/892/748 401/894/748 402/893/748
f 422/895/749 388/896/749 389/897/749
f 422/895/750 410/898/750 388/896/750
f 410/898/751 387/899/751 388/896/751
f 410/898/752 411/900/752 387/899/752
f 411/900/753 398/901/753 387/899/753
f 411/900/754 412/902/754 398/901/754
f 412/902/755 397/903/755 398/901/755
f 412/902/756 413/904/756 397/903/756
f 413/905/757 396/906/757 397/907/757
f 413/905/758 414/908/758 396/906/758
f 414/908/759 395/909/759 396/906/759
f 414/908/760 415/910/760 395/909/760
f 415/910/761 394/884/761 395/909/761
f 415/910/762 405/882/762 394/884/762
f 409/892/763 416/911/763 401/894/763
f 416/911/764 400/912/764 401/894/764
f 416/911/765 417/913/765 400/912/765
f 417/913/766 399/914/766 400/912/766
f 417/915/767 418/916/767 399/917/767
f 418/916/768 392/918/768 399/917/768
f 418/916/769 419/919/769 392/918/769
f 419/919/770 391/920/770 392/918/770
f 419/919/771 420/921/771 391/920/771
f 420/921/772 390/922/772 391/920/772
f 420/921/773 421/923/773 390/922/773
f 421/923/774 389/924/774 390/922/774
f 421/923/775 422/925/775 389/924/775
f 412/926/738 421/927/721 413/928/721
f 413/928/721 421/927/721 414/929/721
f 415/930/721 414/929/721 421/927/721
f 415/930/721 421/927/721 405/931/721
f 406/932/721 405/931/721 421/927/721
f 407/933/721 406/932/721 421/927/721
f 407/933/721 421/927/721 408/934/721
f 409/935/721 408/934/721 421/927/721
f 409/935/721 421/927/721 416/936/721
f 417/937/721 416/936/721 421/927/721
f 417/937/721 421/927/721 418/938/721
f 419/939/736 418/938/721 421/927/721
f 420/940/736 419/939/736 421/927/721
f 410/941/721 422/942/776 421/927/721
f 411/943/721 410/941/721 421/927/721
f 411/943/721 421/927/721 412/926/738
f 425/944/777 424/945/373 438/946/778
f 436/947/779 431/948/780 424/945/373
f 433/949/781 434/950/782 435/951/195
f 438/946/778 424/945/373 427/952/373
f 425/944/777 436/947/779 424/945/373
f 433/949/781 428/953/783 434/950/782
f 429/954/784 435/951/784 439/955/195
f 426/956/785 430/957/786 435/951/784
f 432/958/787 438/946/778 427/952/373
f 434/950/782 423/959/788 435/951/195
f 423/959/789 426/956/785 435/951/784
f 430/957/786 439/955/195 435/951/784
f 425/944/777 434/950/790 428/953/791
f 436/947/779 425/944/777 428/953/791
f 443/960/792 442/961/792 436/962/792
f 443/960/793 436/962/793 428/963/793
f 448/964/794 446/965/795 442/966/796
f 444/967/797 441/968/798 440/969/799
f 446/965/795 440/969/799 442/966/796
f 446/965/795 445/970/800 440/969/799
f 445/970/800 444/967/797 440/969/799
f 447/971/801 383/972/801 445/973/801
f 383/972/802 444/974/802 445/973/802
f 385/975/803 446/976/803 448/977/803
f 385/975/804 384/978/804 446/976/804
f 384/978/805 447/979/805 446/976/805
f 447/979/806 445/980/806 446/976/806
f 450/981/807 425/982/807 438/983/807
f 450/981/808 449/984/808 425/982/808
f 449/984/809 434/985/809 425/982/809
f 450/986/810 438/987/810 432/988/810
f 451/989/776 452/990/735 450/991/721
f 452/990/735 449/992/776 450/991/721
f 452/990/811 453/993/811 449/992/811
f 378/994/812 377/995/812 454/996/812
f 382/997/813 452/998/813 451/999/813
f 382/1000/814 380/1001/814 452/1002/814
f 380/1001/815 453/1003/815 452/1002/815
f 380/1001/816 378/1004/816 453/1003/816
f 378/994/817 454/996/817 453/1005/817
f 455/1006/818 430/1007/818 426/1008/818
f 455/1009/819 456/1010/819 430/1011/819
f 457/1012/820 426/1013/820 423/1014/820
f 457/1015/821 455/1006/821 426/1008/821
f 461/1016/822 458/1017/721 456/1018/823
f 460/1019/824 461/1016/822 456/1018/823
f 386/1020/825 461/1021/825 460/1022/825
f 386/1020/826 462/1023/826 461/1021/826
f 462/1024/827 499/1025/827 461/1026/827
f 465/1027/828 464/1028/828 435/1029/828
f 465/1027/829 435/1029/829 429/1030/829
f 467/1031/830 471/1032/830 498/1033/830
f 467/1031/831 469/1034/831 471/1032/831
f 468/1035/832 473/1036/832 470/1037/832
f 468/1035/833 466/1038/833 473/1036/833
f 466/1039/834 469/1040/835 467/1041/836
f 466/1039/834 468/1042/837 469/1040/835
f 471/1043/838 469/1044/838 468/1045/838
f 468/1045/839 470/1046/840 471/1043/840
f 498/1033/841 381/1047/841 467/1031/841
f 354/1048/842 467/1031/842 381/1047/842
f 472/1049/843 466/1038/843 356/1050/843
f 472/1049/844 473/1036/844 466/1038/844
f 466/1051/845 355/851/845 356/849/845
f 466/1052/846 467/1053/846 355/1054/846
f 467/1055/847 354/853/847 355/851/847
l 437 439
l 437 458
l 463 499
l 458 459
l 432 437
l 459 463
l 475 477
l 423 437
