# Blender 5.1.1
# www.blender.org
mtllib garra.mtl
o robotic_arm.001
v -96.103371 123.375702 -49.821236
v -96.121231 123.382812 -49.676857
v -96.024193 123.404137 -49.676868
v -96.086227 123.384842 -49.676857
v -96.052635 123.394905 -49.676857
v -95.980507 123.463242 -49.821213
v -96.023338 123.414162 -49.676857
v -95.999290 123.439674 -49.676857
v -95.983543 123.471001 -49.676857
v -96.149620 123.386368 -49.676857
v -96.166367 123.394905 -49.676857
v -96.083572 123.474129 -49.660534
v -96.100143 123.462433 -49.669247
v -95.629517 122.667946 -42.240139
v -95.624557 122.665985 -42.317890
v -95.477631 122.724167 -42.264450
v -95.420494 122.313652 -42.247581
v -95.420494 123.082077 -42.340126
v -95.420494 122.337769 -42.047325
v -95.420494 123.106194 -42.139870
v -95.096497 122.337769 -42.047325
v -95.096497 123.106194 -42.139870
v -95.096497 122.313652 -42.247581
v -95.096497 123.082077 -42.340126
v -94.536484 120.698044 -41.033512
v -94.536003 120.778687 -41.082214
v -94.554283 120.809731 -40.884140
v -94.528076 120.876266 -40.924324
v -94.568008 120.640167 -40.998558
v -94.569763 120.656067 -40.791363
v -94.884727 121.955643 -41.793060
v -94.815872 121.921959 -41.736759
v -94.490562 122.115082 -41.889297
v -94.787636 121.902946 -41.761269
v -94.635826 121.920326 -41.735584
v -94.497444 122.161354 -41.880711
v -94.944878 122.076759 -41.866219
v -94.818985 122.255936 -41.974411
v -94.701790 122.277405 -41.987389
v -94.575012 122.234467 -41.961487
v -94.286194 121.675941 -41.452122
v -94.439163 121.287674 -41.208923
v -94.159203 121.698433 -41.457413
v -94.373886 121.724640 -41.473553
v -94.350929 121.278267 -41.204742
v -94.259254 121.599960 -41.398323
v -94.258240 121.722908 -41.472443
v -94.280769 121.874184 -41.563404
v -94.377579 121.928299 -41.595974
v -94.503654 121.794327 -41.515732
v -94.555420 122.237762 -41.776665
v -94.604095 122.046165 -41.662617
v -94.759384 122.014343 -41.647713
v -94.457222 121.892769 -41.580685
v -94.541504 122.134537 -41.712299
v -94.601601 122.281021 -41.808929
v -94.813347 122.297211 -41.813927
v -94.868683 122.084328 -41.686337
v -94.891411 122.199081 -41.759422
v -94.719681 122.319435 -41.828686
v -94.523941 121.986153 -41.811474
v -94.644531 121.898750 -41.758713
v -94.353188 121.216423 -41.307465
v -94.190575 121.537277 -41.503925
v -94.243523 121.653923 -41.567810
v -94.439018 121.224266 -41.315205
v -94.268700 121.741119 -41.626942
v -94.179192 121.651337 -41.572746
v -94.365280 121.663811 -41.580494
v -94.476997 121.697830 -41.601086
v -94.323235 121.838699 -41.679989
v -94.518372 122.005951 -41.787315
v -94.493011 121.816315 -41.672329
v -94.497551 121.243675 -41.363052
v -94.522728 120.832634 -41.114799
v -94.533943 120.674057 -41.019020
v -94.569748 120.549461 -40.943771
v -94.442543 121.332565 -41.206100
v -94.453491 121.241959 -41.361927
v -94.530098 120.769386 -40.859772
v -94.520943 120.680191 -40.805901
v -94.567200 120.744034 -40.844460
v -94.517853 120.927467 -40.955173
v -94.497375 121.338585 -41.203506
v -94.540527 120.944321 -40.965424
v -94.531609 120.792847 -40.873940
v -94.520805 120.584259 -40.964779
v -94.501152 120.611061 -40.946758
v -94.498489 120.678558 -40.837753
v -94.332207 121.480598 -41.328262
v -94.742393 122.349724 -41.858772
v -94.582840 122.313332 -41.832199
v -94.914360 122.251694 -41.796444
v -94.830353 122.325363 -41.840000
v -94.936813 122.153999 -41.734928
v -94.913078 122.074821 -41.687847
v -94.662041 122.345825 -41.850910
v -94.000282 121.722992 -41.474255
v -94.017303 121.152954 -41.129719
v -93.998863 121.658813 -41.575413
v -94.017479 121.088905 -41.229527
v -94.330498 121.416550 -41.429806
v -94.171455 121.633507 -41.542648
v -94.165100 121.669136 -41.458504
v -94.181267 121.614586 -41.428040
v -94.214577 121.553810 -41.495651
v -94.277878 121.581108 -41.512276
v -94.474289 121.725639 -41.599834
v -94.482346 121.797890 -41.643353
v -94.423790 121.854080 -41.677242
v -94.393692 121.904678 -41.601913
v -94.285904 121.788315 -41.637959
v -94.309052 121.716919 -41.594269
v -94.322258 121.752029 -41.510258
v -94.388008 121.684113 -41.574528
v -94.379112 121.732758 -41.498165
v -94.388222 121.863045 -41.700478
v -94.160332 121.589066 -41.528133
v -94.280312 121.551941 -41.512783
v -94.287048 121.614914 -41.546890
v -94.163635 121.619385 -41.409534
v -94.222466 121.705322 -41.480850
v -94.454346 121.751785 -41.511353
v -94.280052 121.788223 -41.511322
v -94.320160 121.883934 -41.591808
v -94.535492 120.599426 -40.973949
v -94.535500 120.695251 -40.814995
v -94.232704 121.601486 -41.417114
v -94.282959 121.637123 -41.438778
v -94.285164 121.812798 -41.546978
v -94.487816 121.824913 -41.554909
v -94.781288 122.040527 -41.632080
v -94.677307 122.025604 -41.635975
v -94.870956 122.244316 -41.756496
v -94.893631 122.162354 -41.718899
v -94.842888 122.172272 -41.707088
v -94.864746 122.117325 -41.673676
v -94.795837 122.094025 -41.659668
v -94.684242 122.075760 -41.648571
v -94.613159 122.069298 -41.644592
v -94.554222 122.223328 -41.737312
v -94.590904 122.202629 -41.725533
v -94.632172 122.259529 -41.762024
v -94.653099 122.315254 -41.797993
v -94.725555 122.290375 -41.778286
v -94.818138 122.245583 -41.751301
v -94.805573 122.298378 -41.783062
v -94.835236 122.142204 -41.706268
v -94.829742 122.221794 -41.753731
v -94.757492 122.274406 -41.784763
v -94.678764 122.274010 -41.785698
v -94.608238 122.122070 -41.683174
v -94.685822 122.067375 -41.660107
v -94.792168 122.088371 -41.672127
v -94.594109 122.194946 -41.737316
v -95.986839 120.692299 -41.030041
v -95.987312 120.772942 -41.078743
v -95.969040 120.803986 -40.880669
v -95.995247 120.870514 -40.920849
v -95.955307 120.634422 -40.995087
v -95.953552 120.650322 -40.787891
v -95.652618 121.933998 -41.779953
v -95.676254 121.939201 -41.745380
v -96.008698 122.179321 -41.890289
v -95.799339 121.886116 -41.751095
v -95.774605 121.904625 -41.726082
v -95.910042 121.922791 -41.737015
v -96.027382 122.038818 -41.807114
v -96.035416 122.102882 -41.881966
v -95.584961 122.045639 -41.847397
v -95.602608 122.167015 -41.920712
v -95.743279 122.267380 -41.981346
v -95.927704 122.244659 -41.967644
v -96.226570 121.681313 -41.447128
v -96.084290 121.282021 -41.205521
v -96.315262 121.720642 -41.470699
v -96.165977 121.723694 -41.472740
v -96.172424 121.272514 -41.201263
v -96.362053 121.667099 -41.448326
v -96.249184 121.606644 -41.401726
v -96.242546 121.868439 -41.559933
v -96.124901 121.924843 -41.594162
v -95.869751 122.018005 -41.650009
v -95.982277 122.195709 -41.751278
v -96.050415 121.750244 -41.488701
v -95.745758 122.014191 -41.644539
v -96.022743 121.848785 -41.548077
v -95.949837 122.067482 -41.675690
v -95.920044 122.281776 -41.804676
v -95.700775 122.284508 -41.805767
v -95.652069 122.233009 -41.779816
v -95.585411 122.136711 -41.727276
v -95.596924 122.215530 -41.772202
v -95.667107 122.065231 -41.675087
v -95.789917 122.310440 -41.826580
v -95.961624 121.933571 -41.779804
v -96.170372 121.210663 -41.303978
v -96.332741 121.531532 -41.500454
v -96.211655 121.681755 -41.591393
v -96.376610 121.609459 -41.547066
v -96.084343 121.218552 -41.311722
v -96.237411 121.807343 -41.667332
v -96.114815 121.657982 -41.576954
v -96.063782 121.695457 -41.590828
v -96.061501 121.834213 -41.683498
v -96.030357 121.771515 -41.638466
v -96.025764 121.237923 -41.359581
v -96.000595 120.826889 -41.111328
v -95.989372 120.668304 -41.015549
v -95.953568 120.543709 -40.940300
v -96.002373 120.578491 -40.961304
v -96.080742 121.326851 -41.202621
v -96.069824 121.236206 -41.358456
v -95.993225 120.763634 -40.856300
v -96.002373 120.674438 -40.802429
v -95.956116 120.738281 -40.840988
v -96.005470 120.921715 -40.951698
v -96.025948 121.332840 -41.200035
v -95.982796 120.938568 -40.961952
v -95.991707 120.787094 -40.870468
v -96.002510 120.578506 -40.961308
v -96.024879 120.672409 -40.834068
v -96.021439 120.605186 -40.942387
v -96.191055 121.475128 -41.325016
v -95.926964 122.317497 -41.834316
v -95.800186 122.346199 -41.853790
v -95.700706 122.322960 -41.837292
v -95.634201 122.275352 -41.817074
v -95.617538 122.060249 -41.678669
v -96.523216 121.717003 -41.470573
v -96.506264 121.146561 -41.125938
v -96.524345 121.652908 -41.572071
v -96.505692 121.082390 -41.225788
v -96.193100 121.410530 -41.426147
v -96.285027 121.650650 -41.554546
v -96.319740 121.650902 -41.567928
v -96.301041 121.699608 -41.477165
v -96.360329 121.592316 -41.518963
v -96.309662 121.547821 -41.492325
v -96.292107 121.596977 -41.403637
v -96.245438 121.575356 -41.508804
v -96.099533 121.848335 -41.673771
v -96.129623 121.898926 -41.598442
v -96.198662 121.835419 -41.665504
v -96.241714 121.750923 -41.624069
v -96.173409 121.683815 -41.574112
v -96.157707 121.858376 -41.698006
v -96.243011 121.546196 -41.509312
v -96.240723 121.621696 -41.550976
v -96.362007 121.615471 -41.407227
v -96.123596 121.725014 -41.493889
v -96.243271 121.782478 -41.507847
v -96.204369 121.877922 -41.587811
v -96.072113 121.879051 -41.586979
v -96.036072 121.824074 -41.553055
v -95.987831 120.593681 -40.970478
v -95.987816 120.689499 -40.811523
v -96.334358 121.603394 -41.418938
v -96.240356 121.631371 -41.435307
v -96.249924 121.674408 -41.462383
v -96.201057 121.746284 -41.506783
v -96.237671 121.805573 -41.543171
v -96.050117 121.768417 -41.519352
v -95.805336 122.025627 -41.623371
v -95.871689 122.037743 -41.631416
v -95.981728 122.141037 -41.707832
v -95.629303 122.131844 -41.714005
v -95.642555 122.221428 -41.742786
v -95.684425 122.134521 -41.684227
v -95.794655 122.064468 -41.642082
v -95.928368 122.142944 -41.696648
v -95.955009 122.237335 -41.746048
v -95.862221 122.270004 -41.774391
v -95.926102 122.210381 -41.738953
v -95.703842 122.235771 -41.754375
v -95.662460 122.103737 -41.665302
v -95.743561 122.302956 -41.785915
v -95.943344 122.096199 -41.660858
v -95.811417 122.321335 -41.803474
v -95.719040 122.092674 -41.674797
v -95.681084 122.158157 -41.714382
v -95.776825 122.276573 -41.779636
v -95.893250 122.097092 -41.661652
v -95.795502 122.060303 -41.655598
v -95.883072 122.084152 -41.671204
v -95.443840 122.307762 -41.982079
v -95.465958 122.289200 -42.030304
v -95.049850 122.304100 -41.985996
v -94.961197 121.792580 -41.892727
v -94.590431 122.215080 -42.002972
v -95.447067 122.579536 -42.406837
v -95.450668 122.676506 -42.246288
v -95.071510 122.581154 -42.404167
v -95.074028 122.678001 -42.243813
v -95.567276 122.141052 -42.199993
v -95.511131 121.975952 -42.098827
v -94.955444 122.141518 -42.199688
v -94.959373 121.774178 -41.977661
v -95.008766 122.124809 -41.851898
v -95.513390 122.116425 -41.846775
v -94.951683 121.923927 -41.729649
v -95.569115 122.290909 -41.951298
v -95.576363 121.910309 -41.726864
v -95.546249 122.033249 -42.110348
v -95.552597 122.076866 -42.087776
v -95.544189 121.924339 -41.995697
v -95.547043 121.900749 -42.028812
v -95.591202 121.803596 -41.923302
v -95.896988 122.164185 -42.141617
v -95.627449 121.950897 -42.011684
v -95.645340 122.048782 -42.070816
v -95.751595 122.092934 -42.097412
v -95.854103 122.016090 -42.051052
v -95.732704 121.888542 -41.974014
v -95.894264 121.815376 -41.930458
v -94.931976 121.802780 -41.922684
v -94.972046 121.888329 -42.021732
v -94.983353 122.024323 -42.118362
v -94.981476 122.040901 -42.066051
v -94.931694 122.139023 -42.173840
v -94.626572 122.163193 -42.140396
v -94.755623 122.089996 -42.095688
v -94.929176 122.172050 -42.146095
v -94.626503 121.811920 -41.928635
v -94.679741 121.944824 -42.007996
v -94.883308 121.928665 -41.998272
v -94.753540 121.891220 -41.975643
v -94.670563 122.019798 -42.053276
v -94.879288 122.050407 -42.071785
v -94.628258 122.253723 -42.001022
v -94.930000 121.905540 -41.791550
v -94.629768 121.898933 -41.787106
v -94.826378 121.982841 -41.838226
v -94.665199 122.068710 -41.890076
v -94.981224 122.022438 -41.862190
v -94.932350 122.257248 -42.003593
v -94.974854 122.161255 -41.897175
v -94.977951 122.041313 -41.825508
v -95.912605 121.932861 -41.808022
v -95.827271 122.007210 -41.853004
v -95.854286 122.093346 -41.904991
v -95.894234 122.249046 -41.998558
v -95.592865 122.261284 -42.005116
v -95.742104 121.976151 -41.834213
v -95.664261 121.998283 -41.847580
v -95.536865 122.102615 -41.862389
v -94.956543 122.272141 -42.035786
v -94.957985 122.303337 -41.983334
v -94.928307 122.274788 -41.966621
v -94.946274 122.171806 -42.193710
v -94.955780 122.206490 -42.143753
v -94.929291 121.922852 -41.753468
v -94.952850 121.889900 -41.734833
v -94.946678 121.866661 -41.780361
v -94.936943 121.769676 -41.954826
v -95.592171 121.796700 -41.966896
v -95.561234 121.792549 -41.892597
v -95.576393 121.766495 -41.964909
v -95.560928 121.857208 -41.785721
v -95.590446 121.889282 -41.781277
v -95.591438 121.920876 -41.751968
v -95.592705 122.273514 -41.965786
v -95.567528 122.302582 -41.982674
v -95.559288 122.272308 -42.036522
v -95.560699 122.207771 -42.143387
v -95.591583 122.174896 -42.147175
v -95.574883 122.171272 -42.194622
v -95.591957 122.138786 -42.173611
v -94.598457 121.897034 -41.808666
v -94.646858 121.797775 -41.895977
v -94.668083 121.857567 -41.786308
v -94.657127 122.205711 -42.142017
v -94.645958 122.266632 -42.033745
v -94.593513 122.158180 -42.114227
v -95.870087 121.795799 -41.893631
v -95.870239 121.872498 -41.781082
v -95.930077 121.907478 -41.817589
v -95.929634 121.844971 -41.924664
v -95.933167 122.145622 -42.104877
v -95.923912 122.232994 -42.011169
v -95.854591 122.271576 -42.036587
v -95.884033 122.199654 -42.138332
v -95.087349 122.309578 -42.006950
v -95.063286 122.301315 -42.028954
v -95.437210 122.312469 -42.013172
v -95.086227 122.179039 -42.199100
v -95.047462 122.194901 -42.172775
v -95.090042 122.210800 -42.192726
v -95.063469 122.218391 -42.171341
v -95.464760 122.211281 -42.161762
v -95.440590 122.180191 -42.197384
v -95.439598 122.207924 -42.189522
v -94.953438 122.290977 -41.951054
v -94.676178 121.913292 -42.061302
v -94.679298 122.004570 -42.116364
v -94.771217 122.059998 -42.149853
v -94.876602 122.017784 -42.124382
v -94.896523 121.929169 -42.070831
v -94.793243 121.853493 -42.025162
v -94.724899 121.985901 -41.840099
v -94.666962 122.100250 -41.836884
v -94.696037 122.140938 -41.933739
v -94.705696 122.186760 -41.889172
v -95.691490 121.862900 -42.030815
v -95.626991 121.934814 -42.074272
v -95.728180 122.060188 -42.149979
v -95.829910 122.020546 -42.126034
v -95.855141 121.954613 -42.086220
v -95.830986 121.927002 -41.997276
v -95.635391 122.003410 -42.115662
v -95.815651 121.881020 -42.041878
v -94.590935 121.847763 -41.924217
vn 0.9954 0.0453 0.0848
vn 0.9469 -0.2925 0.1332
vn 0.4986 0.8617 -0.0940
vn -0.7958 -0.2229 0.5631
vn 0.0342 0.8084 -0.5876
vn 0.0110 0.7291 -0.6844
vn -0.6484 0.6628 -0.3745
vn -0.6461 0.6565 -0.3892
vn -0.9663 0.2573 0.0115
vn -0.9382 -0.0768 -0.3376
vn 0.6676 0.5756 -0.4722
vn 0.9192 0.3599 -0.1600
vn 0.9672 0.1886 -0.1703
vn 0.9800 -0.1920 0.0526
vn 0.2094 -0.8226 0.5286
vn 0.3266 -0.8282 0.4554
vn -0.0885 -0.8799 0.4668
vn -0.3677 -0.7841 0.5001
vn -0.4280 -0.7828 0.4517
vn -0.7964 -0.5366 0.2790
vn -0.0057 -0.5200 -0.8542
vn -0.0193 -0.5507 -0.8345
vn 0.1041 -0.5499 -0.8287
vn -0.0396 -0.5284 -0.8481
vn 0.5120 0.8371 -0.1926
vn -0.0110 -0.5172 -0.8558
vn -0.0106 -0.5177 -0.8555
vn -0.0285 -0.5179 -0.8550
vn 0.0007 -0.5113 -0.8594
vn 0.0388 -0.5232 -0.8513
vn 0.0026 -0.5140 -0.8578
vn -0.0002 -0.5152 -0.8571
vn 0.0038 -0.5136 -0.8580
vn -0.0112 -0.5170 -0.8559
vn 0.0029 -0.3987 -0.9171
vn -0.0009 -0.5154 -0.8569
vn -0.0095 -0.5242 -0.8515
vn -0.0081 -0.5260 -0.8505
vn -0.0089 -0.5264 -0.8502
vn -0.0153 -0.5286 -0.8487
vn -0.0098 -0.5214 -0.8533
vn 0.0028 -0.5150 -0.8572
vn 0.0152 -0.5068 -0.8620
vn 0.0290 -0.4493 -0.8929
vn 0.1061 -0.3482 -0.9314
vn 0.4028 0.8931 -0.2002
vn -0.0200 -0.5440 -0.8389
vn 0.0100 -0.4637 -0.8860
vn 0.0011 -0.4906 -0.8714
vn -0.0759 -0.5350 -0.8415
vn -0.4510 -0.6288 -0.6334
vn 0.0124 -0.5892 -0.8079
vn -0.0508 -0.5760 -0.8159
vn 0.0405 -0.6657 -0.7451
vn 0.0940 -0.5451 -0.8331
vn 0.1003 -0.5429 -0.8338
vn 0.0991 -0.5432 -0.8337
vn 0.1476 -0.6226 -0.7685
vn 0.1318 -0.4772 -0.8689
vn -0.0393 -0.5688 -0.8215
vn 0.0926 -0.5456 -0.8329
vn 0.0659 -0.5270 -0.8473
vn 0.0370 -0.6902 -0.7227
vn 0.0370 -0.6901 -0.7228
vn 0.0369 -0.6896 -0.7232
vn -0.0000 0.5170 0.8560
vn -0.0001 0.5171 0.8559
vn 0.0001 0.5169 0.8560
vn -0.0001 0.5168 0.8561
vn -0.0002 0.5171 0.8560
vn -0.0000 0.5168 0.8561
vn -0.0002 0.5164 0.8563
vn 0.7711 0.5767 -0.2698
vn 0.7671 0.5483 -0.3330
vn 0.9952 -0.0740 0.0635
vn 0.9967 -0.0772 0.0246
vn -0.1159 -0.8501 0.5137
vn -0.1230 -0.8520 0.5089
vn -0.1238 -0.8523 0.5082
vn -0.1149 -0.8499 0.5143
vn -0.7540 0.5666 -0.3324
vn -0.7567 0.5508 -0.3522
vn -0.9996 0.0177 -0.0212
vn -0.9996 0.0220 -0.0163
vn -0.9996 0.0243 -0.0138
vn -0.9996 0.0154 -0.0237
vn -0.7627 -0.5509 0.3388
vn -0.7641 -0.5413 0.3508
vn 0.1124 0.3662 0.9237
vn -0.0476 0.5129 0.8571
vn -0.0419 0.5525 0.8325
vn -0.1233 0.4199 0.8992
vn -0.0120 0.5800 0.8146
vn -0.0507 0.5647 0.8237
vn -0.0006 0.5213 0.8534
vn -0.0017 0.5203 0.8540
vn -0.0037 0.5189 0.8548
vn -0.0044 0.5134 0.8581
vn -0.0046 0.5127 0.8586
vn -0.0300 0.5170 0.8555
vn 0.0011 0.5222 0.8528
vn 0.0026 0.5219 0.8530
vn 0.0019 0.5215 0.8533
vn 0.0388 0.6072 0.7936
vn 0.0857 0.5760 0.8130
vn -0.0076 0.4924 0.8703
vn -0.0004 0.5167 0.8561
vn 0.0027 0.5201 0.8541
vn -0.0012 0.5185 0.8551
vn 0.0272 0.5385 0.8422
vn -0.0452 0.4721 0.8804
vn -0.0010 0.5186 0.8550
vn -0.0016 0.5182 0.8552
vn -0.0893 0.4909 0.8666
vn -0.0046 0.5162 0.8565
vn -0.0055 0.5157 0.8567
vn -0.0003 0.5170 0.8560
vn -0.0016 0.5171 0.8559
vn -0.0699 -0.8572 0.5102
vn -0.0464 -0.8621 0.5046
vn -0.0778 -0.5146 -0.8539
vn -0.0009 -0.5166 -0.8562
vn 0.0027 -0.5172 -0.8559
vn -0.0000 -0.5168 -0.8561
vn 0.0025 -0.5165 -0.8563
vn 0.0069 -0.5164 -0.8563
vn -0.0965 -0.5110 -0.8541
vn 0.0005 -0.5171 -0.8559
vn 0.0006 -0.5169 -0.8560
vn -0.0002 -0.5171 -0.8559
vn 0.0004 -0.5168 -0.8561
vn 0.9936 0.0073 0.1129
vn 0.9956 -0.0807 0.0469
vn -0.9669 -0.0572 -0.2488
vn -0.9959 -0.0778 0.0451
vn -0.9498 -0.2368 0.2044
vn -0.8632 0.3213 0.3893
vn -0.8436 0.3382 0.4171
vn -0.6372 0.6935 -0.3362
vn -0.6214 0.6728 -0.4016
vn -0.5340 0.6928 -0.4846
vn -0.4983 0.7737 -0.3912
vn 0.0372 -0.6909 -0.7220
vn -0.9792 -0.1881 0.0758
vn -0.9966 -0.0655 0.0510
vn -0.7121 0.5932 -0.3755
vn -0.5158 0.7864 -0.3399
vn 0.3981 0.7443 -0.5363
vn 0.5937 0.7239 -0.3513
vn 0.9691 0.1921 -0.1544
vn 0.9592 -0.1508 0.2390
vn 0.6422 -0.6999 0.3128
vn 0.3136 -0.7779 0.5445
vn -0.4488 -0.8061 0.3858
vn -0.6379 -0.6331 0.4385
vn -0.9247 -0.2543 0.2832
vn -0.9919 -0.1246 -0.0231
vn -0.9211 0.3527 -0.1647
vn -0.7395 0.4962 -0.4549
vn -0.3060 0.8424 -0.4435
vn 0.1072 0.8049 -0.5836
vn 0.2994 0.8448 -0.4436
vn 0.8661 0.4318 -0.2518
vn 0.9176 0.3819 -0.1103
vn 0.9602 -0.2714 0.0653
vn 0.8847 -0.3640 0.2912
vn 0.4353 -0.8043 0.4046
vn 0.3714 -0.8021 0.4676
vn -0.2941 -0.7902 0.5377
vn -0.4872 -0.8015 0.3468
vn 0.8334 0.1819 -0.5219
vn 0.4502 0.3553 0.8192
vn 0.6825 -0.6236 0.3812
vn 0.2462 -0.0094 0.9692
vn -0.3144 -0.5737 0.7563
vn -0.2882 -0.0150 0.9575
vn -0.9385 0.0762 0.3369
vn -0.8900 0.1590 0.4273
vn -0.3537 0.7249 0.5912
vn -0.4610 0.7923 -0.3996
vn 0.1418 0.8310 0.5378
vn 0.9710 0.2000 -0.1312
vn 0.4234 0.1690 0.8900
vn -0.1778 -0.6346 0.7521
vn -0.2524 0.0041 0.9676
vn -0.9445 0.0732 0.3201
vn 0.0726 0.8662 0.4943
vn -0.3280 -0.7838 -0.5274
vn 0.2994 -0.8866 0.3525
vn 0.2054 -0.9770 0.0578
vn 0.6884 -0.4981 -0.5273
vn 0.9587 -0.1850 -0.2162
vn 0.3440 -0.0343 -0.9383
vn 0.2787 0.8117 -0.5133
vn -0.3200 -0.2095 -0.9240
vn -0.7942 0.1372 0.5920
vn -0.5003 -0.5083 0.7009
vn -0.1916 -0.9434 -0.2707
vn 0.2332 -0.9076 -0.3492
vn 0.6175 -0.7100 0.3387
vn 0.5454 -0.6516 -0.5272
vn 0.9650 -0.1301 -0.2278
vn 0.5233 -0.2551 -0.8131
vn 0.5427 0.6528 -0.5285
vn 0.1707 0.1292 -0.9768
vn -0.3576 0.4499 -0.8184
vn -0.9190 0.3883 -0.0684
vn -0.4597 -0.6003 -0.6544
vn 0.9982 0.0337 -0.0502
vn 0.9957 0.0668 -0.0640
vn 0.9853 -0.1582 0.0640
vn 0.9777 -0.1969 0.0727
vn 0.8619 -0.4155 0.2908
vn 0.8004 -0.5133 0.3095
vn 0.8736 0.4015 -0.2752
vn 0.8256 0.4832 -0.2914
vn 0.7576 -0.5430 0.3621
vn 0.6238 -0.6772 0.3902
vn 0.6563 0.6395 -0.4003
vn 0.6563 0.6397 -0.3999
vn -0.7989 -0.2419 -0.5506
vn 0.5904 0.7160 -0.3725
vn 0.0461 0.5403 -0.8402
vn -0.1685 0.9484 0.2687
vn -0.5722 -0.7857 -0.2350
vn -0.3338 -0.7027 0.6283
vn 0.8047 -0.3926 0.4454
vn 0.8780 -0.3779 -0.2938
vn 0.7881 0.4345 0.4361
vn -0.0017 -0.5192 -0.8546
vn 0.0284 -0.4521 -0.8915
vn 0.0107 -0.4480 -0.8940
vn 0.0140 -0.4553 -0.8902
vn 0.0129 -0.4532 -0.8913
vn -0.0083 -0.5896 -0.8076
vn 0.0095 -0.4457 -0.8951
vn -0.0248 -0.4611 -0.8870
vn 0.3328 -0.5767 -0.7461
vn 0.0189 -0.5354 -0.8444
vn 0.0245 -0.5270 -0.8495
vn 0.0227 -0.5295 -0.8480
vn -0.0370 -0.5517 -0.8332
vn 0.0174 -0.5376 -0.8430
vn 0.0955 -0.5297 -0.8428
vn 0.0827 -0.5415 -0.8366
vn 0.0852 -0.5407 -0.8369
vn 0.0926 -0.5383 -0.8376
vn 0.0951 -0.5376 -0.8378
vn -0.0005 -0.5154 -0.8570
vn -0.0122 -0.5989 -0.8007
vn 0.5929 0.2258 -0.7730
vn -0.0539 -0.1166 -0.9917
vn -0.4144 0.4529 -0.7894
vn -0.7594 0.1878 -0.6229
vn -0.4962 -0.3005 -0.8146
vn -0.9886 -0.1485 -0.0247
vn -0.5616 -0.7823 -0.2696
vn 0.0765 -0.9523 -0.2955
vn 0.2278 -0.9735 -0.0205
vn 0.6025 -0.7887 -0.1221
vn 0.4502 -0.4721 -0.7579
vn 0.8742 0.0795 -0.4790
vn -0.7928 -0.6080 0.0421
vn -0.8406 -0.2001 0.5034
vn -0.8461 -0.2284 -0.4817
vn -0.8897 0.4149 0.1905
vn -0.5755 0.3561 -0.7362
vn -0.4422 0.8964 -0.0300
vn -0.0090 0.3915 -0.9201
vn 0.3218 0.9452 -0.0552
vn 0.8370 0.3253 -0.4399
vn 0.9619 -0.2566 -0.0943
vn 0.6035 -0.6821 0.4130
vn -0.1871 -0.7823 0.5941
vn -0.2195 -0.9110 0.3490
vn -0.0123 -0.5424 -0.8400
vn 0.0510 -0.4486 -0.8923
vn 0.0282 -0.5997 -0.7998
vn 0.0035 -0.5192 -0.8547
vn -0.0128 -0.5050 -0.8630
vn 0.0043 -0.5124 -0.8587
vn 0.4284 -0.0916 -0.8990
vn 0.9954 -0.0453 -0.0848
vn 0.9469 0.2926 -0.1332
vn -0.7553 0.1959 -0.6254
vn 0.3721 -0.8459 0.3820
vn 0.3494 -0.8846 0.3088
vn -0.1511 -0.7173 0.6802
vn -0.2983 -0.9468 0.1208
vn -0.6496 -0.2167 0.7288
vn -0.7272 -0.5581 -0.3997
vn -0.8575 0.3416 0.3847
vn 0.6247 -0.5868 0.5152
vn 0.8871 -0.4126 0.2070
vn 0.9421 -0.2656 0.2048
vn 0.9921 0.1023 -0.0721
vn 0.9923 0.1005 -0.0725
vn 0.9920 0.1034 -0.0720
vn 0.9920 0.1039 -0.0718
vn 0.8888 0.4244 -0.1728
vn 0.6388 0.6209 -0.4543
vn 0.6078 0.6638 -0.4357
vn 0.2717 0.8682 -0.4153
vn -0.1422 0.8124 -0.5654
vn -0.2626 0.8474 -0.4615
vn -0.7589 0.5737 -0.3083
vn -0.7599 0.5735 -0.3060
vn -0.7583 0.5739 -0.3094
vn -0.0058 0.5199 0.8542
vn -0.0189 0.5499 0.8350
vn 0.0289 0.5130 0.8579
vn 0.0003 0.5162 0.8565
vn 0.0011 0.5149 0.8572
vn -0.0008 0.5166 0.8562
vn -0.0000 0.5164 0.8564
vn 0.0033 0.5100 0.8602
vn -0.0063 0.3902 0.9207
vn 0.0846 0.6207 0.7795
vn -0.0071 0.5201 0.8541
vn 0.0018 0.5154 0.8569
vn 0.0663 0.5247 0.8487
vn 0.0860 0.4929 0.8658
vn -0.0108 0.5169 0.8560
vn -0.1472 0.4836 0.8628
vn -0.0072 0.5273 0.8497
vn -0.0026 0.5227 0.8525
vn -0.0155 0.5292 0.8484
vn -0.0145 0.5280 0.8491
vn -0.0065 0.5118 0.8591
vn 0.0079 0.5144 0.8575
vn -0.1765 0.6079 0.7741
vn 0.0174 0.5046 0.8632
vn 0.0162 0.4812 0.8765
vn 0.1051 0.3864 0.9163
vn 0.1335 0.3233 0.9368
vn -0.0197 0.5532 0.8328
vn -0.6470 0.6079 0.4602
vn -0.0105 0.5059 0.8626
vn -0.0106 0.6372 0.7707
vn 0.0039 0.6340 0.7733
vn 0.2497 0.6136 0.7491
vn 0.0634 0.5604 0.8258
vn 0.0641 0.5618 0.8248
vn 0.0613 0.5551 0.8295
vn 0.2096 0.4602 0.8627
vn 0.1099 0.4542 0.8841
vn -0.0141 0.6031 0.7976
vn 0.0608 0.5539 0.8303
vn 0.1977 0.5070 0.8389
vn 0.0102 0.6075 0.7943
vn -0.0000 -0.5171 -0.8559
vn 0.0001 -0.5169 -0.8560
vn -0.0001 -0.5170 -0.8560
vn 0.0001 -0.5171 -0.8559
vn -0.0000 -0.5169 -0.8560
vn 0.0003 -0.5166 -0.8562
vn 0.0003 -0.5169 -0.8561
vn 0.7663 -0.5494 0.3330
vn 0.7667 -0.5512 0.3291
vn 0.7669 -0.5522 0.3271
vn 0.7662 -0.5485 0.3349
vn 0.9952 0.0725 -0.0663
vn 0.9968 0.0759 -0.0257
vn -0.1172 0.8500 -0.5136
vn -0.1232 0.8516 -0.5095
vn -0.1239 0.8518 -0.5090
vn -0.1164 0.8498 -0.5141
vn -0.7535 -0.5691 0.3292
vn -0.7564 -0.5522 0.3506
vn -0.9996 -0.0260 0.0110
vn -0.9996 -0.0166 0.0216
vn -0.7664 0.5469 -0.3369
vn -0.7617 0.5731 -0.3024
vn -0.0069 -0.5160 -0.8565
vn -0.0070 -0.5161 -0.8565
vn -0.0107 -0.5110 -0.8595
vn -0.0225 -0.5506 -0.8345
vn -0.0135 -0.5537 -0.8326
vn -0.0242 -0.5500 -0.8348
vn -0.0465 -0.5617 -0.8261
vn 0.0001 -0.5211 -0.8535
vn -0.0010 -0.5203 -0.8540
vn -0.0031 -0.5189 -0.8548
vn -0.0033 -0.5140 -0.8578
vn -0.0037 -0.5134 -0.8581
vn -0.0296 -0.5178 -0.8550
vn -0.0002 -0.5169 -0.8560
vn -0.0005 -0.5170 -0.8560
vn -0.0652 -0.4493 -0.8910
vn 0.0011 -0.5223 -0.8528
vn 0.0013 -0.5220 -0.8529
vn -0.0120 -0.5542 -0.8323
vn 0.2234 -0.6036 -0.7654
vn 0.1259 -0.5787 -0.8058
vn -0.0047 -0.5142 -0.8577
vn 0.1859 -0.5534 -0.8119
vn -0.0432 -0.4852 -0.8733
vn -0.0058 -0.5290 -0.8486
vn -0.0030 -0.5128 -0.8585
vn -0.0016 -0.5135 -0.8581
vn 0.0044 -0.5214 -0.8533
vn -0.0418 -0.4818 -0.8753
vn 0.0204 -0.5766 -0.8168
vn -0.0003 -0.5171 -0.8559
vn 0.0816 -0.6522 -0.7536
vn -0.0185 -0.5074 -0.8615
vn -0.0008 -0.5170 -0.8560
vn -0.0000 -0.5172 -0.8559
vn 0.0153 -0.5189 -0.8547
vn -0.0004 -0.5176 -0.8556
vn 0.0001 -0.5172 -0.8559
vn 0.0002 -0.5170 -0.8560
vn -0.0003 -0.5169 -0.8560
vn -0.0011 -0.5169 -0.8561
vn -0.0016 -0.5171 -0.8559
vn 0.0002 -0.5172 -0.8559
vn -0.0699 0.8572 -0.5102
vn -0.0466 0.8620 -0.5048
vn -0.0777 0.5145 0.8539
vn 0.0025 0.5171 0.8559
vn -0.0000 0.5135 0.8581
vn 0.0012 0.5176 0.8557
vn 0.0055 0.5175 0.8557
vn -0.0961 0.5111 0.8541
vn 0.0027 0.5172 0.8559
vn 0.0002 0.5171 0.8559
vn 0.0006 0.5168 0.8561
vn -0.0001 0.5169 0.8560
vn -0.0001 0.5172 0.8559
vn 0.9936 -0.0073 -0.1130
vn 0.9956 0.0807 -0.0468
vn -0.9657 0.0601 0.2527
vn -0.9955 0.0819 -0.0483
vn -0.9493 0.2381 -0.2050
vn -0.8589 -0.3262 -0.3948
vn -0.8609 -0.3244 -0.3919
vn -0.8622 -0.3233 -0.3901
vn -0.8577 -0.3272 -0.3966
vn -0.6374 -0.6921 0.3387
vn -0.6224 -0.6738 0.3983
vn -0.5299 -0.6948 0.4862
vn -0.4993 -0.7665 0.4039
vn 0.2834 0.6820 0.6742
vn -0.9953 0.0968 -0.0049
vn -0.9786 -0.2048 0.0203
vn -0.5247 -0.7544 0.3944
vn -0.4954 -0.7767 0.3889
vn -0.1967 -0.8464 0.4950
vn 0.5554 -0.7751 0.3014
vn 0.8808 -0.3143 0.3541
vn 0.9224 0.2763 -0.2700
vn 0.7104 0.6552 -0.2571
vn 0.3058 0.8059 -0.5070
vn -0.4444 0.8179 -0.3655
vn -0.6667 0.6143 -0.4220
vn -0.9362 0.3193 -0.1469
vn -0.9759 0.1507 -0.1581
vn -0.8722 -0.4405 0.2128
vn -0.7626 -0.4954 0.4160
vn -0.3699 -0.8329 0.4115
vn 0.1523 -0.7912 0.5922
vn 0.2999 -0.8275 0.4746
vn 0.9067 -0.3385 0.2517
vn 0.9308 -0.3227 0.1717
vn 0.8834 0.3665 -0.2919
vn 0.7641 0.5983 -0.2413
vn 0.3043 0.7573 -0.5778
vn -0.1542 0.9145 -0.3740
vn -0.5592 0.6312 -0.5375
vn 0.4430 -0.5664 -0.6949
vn 0.4105 -0.2375 -0.8804
vn 0.2690 0.6853 -0.6768
vn -0.1289 -0.1852 -0.9742
vn -0.4067 -0.6576 -0.6342
vn -0.2728 -0.9226 0.2726
vn 0.0683 -0.8533 -0.5170
vn 0.5744 -0.8034 0.1567
vn 0.3024 -0.7258 -0.6179
vn 0.8930 0.3041 -0.3317
vn 0.3929 -0.1002 -0.9141
vn -0.1777 0.6293 -0.7566
vn -0.2469 -0.0038 -0.9690
vn -0.9776 -0.0780 -0.1957
vn -0.3319 -0.4028 0.8530
vn -0.2073 0.8129 0.5442
vn 0.2574 0.9084 -0.3295
vn 0.5164 0.5334 0.6699
vn 0.4239 0.0082 0.9057
vn -0.4265 -0.5163 0.7427
vn -0.4249 -0.3795 0.8218
vn -0.5825 0.3362 0.7400
vn -0.9657 0.2501 -0.0705
vn -0.3158 0.8175 0.4817
vn -0.2588 0.8462 -0.4658
vn 0.1772 0.8943 0.4109
vn 0.6441 0.7461 -0.1688
vn 0.5498 0.6563 0.5167
vn 0.9600 0.1394 0.2428
vn 0.5276 0.2569 0.8097
vn 0.4884 -0.7722 0.4063
vn 0.1911 -0.1935 0.9623
vn -0.2327 -0.1171 0.9655
vn -0.6509 -0.7073 0.2760
vn -0.5596 0.1373 0.8173
vn -0.8674 0.4116 0.2796
vn -0.9143 0.3521 0.2000
vn 0.9981 -0.0340 0.0505
vn 0.9957 -0.0666 0.0642
vn 0.9853 0.1582 -0.0640
vn 0.9777 0.1970 -0.0726
vn 0.8619 0.4154 -0.2907
vn 0.8004 0.5133 -0.3096
vn 0.8736 -0.4014 0.2752
vn 0.8256 -0.4832 0.2913
vn 0.7575 0.5432 -0.3622
vn 0.6239 0.6771 -0.3903
vn 0.6565 -0.6395 0.4001
vn 0.6563 -0.6397 0.3999
vn -0.7976 0.2428 0.5522
vn -0.0450 -0.9264 0.3738
vn -0.2094 -0.6812 0.7015
vn -0.5550 -0.5986 0.5776
vn -0.5499 -0.5230 -0.6512
vn -0.2670 0.7518 -0.6029
vn 0.3090 0.9384 -0.1549
vn 0.7178 0.6954 0.0329
vn 0.9711 0.0706 -0.2279
vn 0.0320 0.4267 0.9038
vn -0.0050 0.5212 0.8534
vn -0.0288 0.4410 0.8971
vn -0.0285 0.4400 0.8976
vn -0.0302 0.4444 0.8953
vn 0.0061 0.4557 0.8901
vn -0.0304 0.4448 0.8951
vn 0.0016 0.6077 0.7941
vn 0.2694 0.5050 0.8200
vn 0.3215 0.5088 0.7986
vn 0.1491 0.3717 0.9163
vn 0.1406 0.3902 0.9099
vn 0.0470 0.1745 0.9835
vn -0.0695 0.5429 0.8369
vn 0.0417 0.5445 0.8378
vn -0.0231 0.5664 0.8238
vn -0.0846 0.3820 0.9203
vn -0.1155 0.3654 0.9237
vn 0.4956 -0.2695 0.8257
vn 0.3202 -0.0790 0.9440
vn -0.5516 -0.2809 0.7854
vn -0.8179 -0.1073 0.5653
vn -0.4483 0.4343 0.7813
vn -0.7372 0.4160 0.5324
vn -0.8296 0.5532 -0.0758
vn -0.3100 0.8375 0.4501
vn 0.3053 0.9297 -0.2062
vn 0.5003 0.7977 0.3367
vn 0.6918 0.3115 0.6514
vn 0.8607 -0.2205 0.4590
vn -0.6491 0.6320 0.4234
vn -0.7736 -0.4540 -0.4420
vn 0.7898 0.6133 0.0118
vn 0.3559 0.7199 -0.5958
vn 0.3002 0.9060 -0.2983
vn -0.4286 0.8706 -0.2416
vn -0.4439 0.1687 -0.8801
vn -0.0085 0.5241 0.8516
vn -0.0085 0.5230 0.8523
vn -0.0087 0.5251 0.8510
vn 0.2016 0.5157 0.8327
vn 0.0358 0.4821 0.8754
vn 0.0165 0.4840 0.8749
vn -0.0206 0.4994 0.8661
vn 0.0200 0.4625 0.8864
vn -0.0083 0.5209 0.8536
vn -0.1355 0.8242 -0.5498
vn -0.0376 0.9382 -0.3439
vn -0.0295 0.8202 -0.5713
vn -0.0020 0.8561 -0.5169
vn -0.1224 0.8568 -0.5009
vn -0.1257 0.8558 -0.5018
vn -0.1209 0.8508 -0.5114
vn -0.1217 0.8571 -0.5005
vn -0.0626 0.7306 -0.6799
vn -0.1281 0.8527 -0.5065
vn 0.0643 0.8100 -0.5829
vn 0.0225 0.8599 -0.5100
vn 0.0219 0.8595 -0.5106
vn 0.0728 0.8257 -0.5594
vn 0.0561 0.8533 -0.5184
vn 0.0053 0.8544 -0.5195
vn 0.0186 0.8705 -0.4918
vn 0.0264 0.8631 -0.5043
vn -0.0324 -0.8260 0.5628
vn -0.0108 -0.8555 0.5176
vn 0.0020 -0.8557 0.5174
vn -0.0097 -0.8556 0.5175
vn -0.0005 -0.9401 0.3410
vn -0.0002 -0.9389 0.3441
vn -0.0007 -0.9407 0.3391
vn 0.0001 -0.9382 0.3460
vn 0.0194 -0.8763 0.4814
vn -0.0155 -0.8339 0.5517
vn 0.0001 -0.8349 0.5504
vn 0.0238 -0.8891 0.4570
vn 0.0027 -0.8556 0.5176
vn -0.0158 -0.7444 0.6675
vn -0.9999 -0.0105 0.0019
vn -0.9974 0.0498 0.0520
vn 0.9981 0.0115 0.0600
vn 0.9997 -0.0066 -0.0243
vn -0.9993 0.0253 -0.0270
vn -0.9991 0.0240 -0.0344
vn -0.9994 0.0258 -0.0245
vn -0.9990 0.0236 -0.0367
vn 0.9998 0.0155 -0.0103
vn 0.9996 0.0279 -0.0011
vn -0.0038 -0.5049 -0.8632
vn 0.0083 -0.4961 -0.8682
vn -0.0102 0.5409 0.8410
vn -0.0078 0.5392 0.8421
vn -0.0105 0.5410 0.8409
vn -0.0077 0.5390 0.8422
vn -0.0000 0.8560 -0.5170
vn -0.0108 -0.5363 -0.8440
vn 0.0008 -0.5223 -0.8528
vn 0.0126 -0.4893 -0.8720
vn 0.0223 -0.5735 -0.8189
vn -0.0004 0.5138 0.8579
vn 0.0006 0.5179 0.8554
vn -0.0003 0.5135 0.8581
vn 0.0001 0.5160 0.8566
vn -0.0071 0.5045 0.8634
vn -0.0000 0.5199 0.8542
vn -0.9372 -0.1994 0.2861
vn -0.9349 -0.2606 0.2408
vn -0.9915 -0.1029 -0.0801
vn -0.9975 0.0409 0.0569
vn -0.9364 0.3190 -0.1463
vn -0.9380 0.3450 -0.0338
vn 0.0011 -0.5184 -0.8551
vn 0.0030 -0.5227 -0.8525
vn 0.0020 -0.5218 -0.8531
vn 0.0187 -0.5175 -0.8555
vn 0.0010 -0.5130 -0.8584
vn 0.0042 -0.5150 -0.8572
vn 0.0004 -0.5151 -0.8572
vn 0.0009 -0.5158 -0.8567
vn -0.0004 -0.5164 -0.8563
vn -0.0001 -0.5171 -0.8559
vn -0.0002 -0.5175 -0.8557
vn 0.0054 -0.5158 -0.8567
vn 0.0021 -0.5145 -0.8575
vn 0.0044 -0.5207 -0.8537
vn 0.9526 0.1258 -0.2770
vn 0.9036 -0.0672 -0.4232
vn 0.9976 0.0469 -0.0507
vn 0.9233 -0.3744 0.0858
vn 0.9456 -0.2487 0.2098
vn 0.0053 -0.5177 -0.8556
vn 0.0020 -0.5152 -0.8571
vn 0.0049 -0.5160 -0.8566
vn -0.0004 -0.5147 -0.8574
vn -0.0101 -0.5154 -0.8569
vn 0.0007 -0.5191 -0.8547
vn 0.0011 -0.5213 -0.8534
vn 0.0008 -0.5208 -0.8537
vn -0.0045 -0.5140 -0.8578
vn -0.0119 -0.5159 -0.8565
vn -0.0133 -0.5162 -0.8564
vn 0.0009 -0.5220 -0.8530
vn -0.0019 -0.5188 -0.8549
vn -0.0081 0.2799 0.9600
vn -0.0052 0.5165 0.8563
vn -0.0006 0.5174 0.8558
vn -0.0098 0.5171 0.8559
vn -0.0005 0.5188 0.8549
vn 0.0001 0.5168 0.8561
vn -0.0133 0.5161 0.8564
vn -0.0066 0.5153 0.8570
vn -0.0002 0.5172 0.8559
vn 0.9362 -0.3461 0.0620
vn 0.9055 0.0642 0.4195
vn 0.9965 -0.0603 -0.0581
vn 0.9424 0.2558 -0.2157
vn 0.9360 0.3136 -0.1599
vn -0.0230 0.3938 0.9189
vn 0.0045 0.5159 0.8566
vn 0.0030 0.5164 0.8563
vn 0.0018 0.5166 0.8562
vn -0.0010 0.5192 0.8547
vn -0.0001 0.5209 0.8536
vn 0.0019 0.5227 0.8525
vn 0.0022 0.5222 0.8528
vn -0.9645 0.1630 -0.2078
vn 0.7768 0.5319 -0.3371
vn 0.7441 0.5830 -0.3262
vn 0.9202 0.2083 -0.3315
vn 0.7523 0.5995 -0.2732
vn 0.9237 -0.3548 0.1444
vn 0.8465 -0.4192 0.3283
vn 0.6802 -0.5606 0.4723
vn -0.8851 -0.4563 0.0917
vn -0.6342 -0.6753 0.3765
vn -0.6400 -0.6465 0.4153
vn -0.8585 -0.3631 0.3621
vn -0.7926 0.5832 -0.1781
vn -0.6299 0.6318 -0.4517
vn -0.6806 0.6726 -0.2906
vn -0.9052 0.2571 -0.3385
vn 0.7159 -0.6243 0.3128
vn 0.5444 -0.6877 0.4803
vn 0.6538 0.6286 -0.4212
vn 0.7339 0.5963 -0.3252
vn -0.6370 -0.6373 0.4336
vn -0.6984 -0.6194 0.3585
vn -0.7896 0.4857 -0.3749
vn -0.5516 0.7480 -0.3691
vn 0.6928 0.3722 0.6177
vn 0.6405 -0.4046 -0.6528
vn -0.6801 0.3773 0.6285
vn -0.7112 -0.3653 -0.6007
vn 0.2140 0.9682 -0.1296
vn 0.0114 0.9722 0.2339
vn 0.0056 0.9886 0.1508
vn 0.8121 0.5083 -0.2865
vn 0.7741 0.5467 -0.3193
vn -0.6241 0.7812 -0.0144
vn 0.4818 0.2275 -0.8463
vn 0.5063 0.3920 -0.7681
vn -0.0041 0.1964 -0.9805
vn -0.0111 0.2730 -0.9619
vn -0.7103 0.2154 -0.6702
vn 0.7294 -0.0870 -0.6786
vn 0.5872 -0.5512 -0.5928
vn 0.9862 0.1423 0.0852
vn 0.6796 -0.1974 -0.7065
vn 0.0471 0.1798 -0.9826
vn 0.0081 -0.9795 -0.2011
vn -0.0046 0.0811 -0.9967
vn 0.0005 0.0174 -0.9998
vn -0.4626 -0.2965 -0.8355
vn -0.8683 -0.0453 -0.4940
vn -0.4957 -0.4529 -0.7410
vn -0.7671 -0.5398 -0.3468
vn -0.5806 -0.5596 -0.5914
vn -0.0314 0.1673 -0.9854
vn -0.7262 -0.0613 -0.6847
vn -0.0409 0.9371 0.3466
vn 0.0120 0.9465 0.3223
vn -0.0003 0.8776 0.4793
vn -0.6653 0.7100 0.2307
vn -0.6312 0.2400 0.7375
vn -0.6309 0.2403 0.7377
vn -0.6305 0.2407 0.7379
vn -0.6315 0.2398 0.7374
vn -0.6636 0.5240 0.5339
vn -0.6102 0.5291 0.5897
vn -0.0026 0.9337 0.3579
vn 0.6167 0.7602 0.2043
vn 0.0077 -0.1509 0.9885
vn 0.6064 0.5801 0.5439
vn 0.8782 0.4047 0.2547
vn 0.5248 0.4265 0.7367
vn 0.7692 0.0731 0.6348
vn 0.6184 0.2406 0.7481
vn 0.7194 -0.1285 0.6826
vn 0.4986 -0.8342 0.2356
vn 0.6469 -0.6366 0.4198
vn 0.9930 -0.0600 0.1020
vn 0.9910 -0.0427 -0.1267
vn 0.6883 0.6776 -0.2590
vn 0.5721 0.6365 -0.5173
vn -0.3477 0.8591 -0.3757
vn -0.4235 0.7600 -0.4930
vn -0.9810 0.1384 -0.1358
vn -0.9739 0.1399 0.1785
vn -0.6181 -0.7788 0.1071
vn -0.3054 -0.6234 0.7198
vn -0.0005 -0.5165 -0.8563
vn -0.0001 -0.5168 -0.8561
vn 0.0001 -0.5168 -0.8561
vn 0.0002 -0.5169 -0.8560
vn -0.0001 -0.5169 -0.8560
vn -0.0005 -0.5171 -0.8559
vn 0.9334 0.3214 -0.1595
vn 0.9377 0.3227 -0.1287
vn 0.5481 -0.5379 0.6404
vn 0.7810 -0.6035 0.1609
vn 0.9938 0.1091 -0.0208
vn 0.9809 0.1929 0.0228
vn 0.5779 0.6342 -0.5136
vn 0.4315 0.8394 -0.3306
vn -0.4085 0.6819 -0.6068
vn -0.6376 0.7533 -0.1609
vn -0.9387 0.1829 -0.2921
vn -0.9671 -0.1137 0.2275
vn -0.9027 -0.4141 0.1168
vn -0.4121 -0.7015 0.5814
vn -0.1641 -0.9383 0.3045
vn -0.0010 -0.5167 -0.8561
vn 0.0001 -0.5167 -0.8562
vn -0.0003 -0.5168 -0.8561
vn 0.0001 -0.5170 -0.8560
vn -0.0000 -0.5170 -0.8560
vn 0.0009 -0.5160 -0.8566
vn 0.0010 -0.5156 -0.8568
vn -0.0180 0.0987 -0.9950
vn -0.0228 0.1354 -0.9905
vn -0.7506 0.3273 -0.5740
vn -0.4993 -0.4517 -0.7394
vn -0.5155 -0.4451 -0.7322
vn -0.6407 -0.7677 0.0124
vn -0.0238 -0.8891 -0.4570
vn -0.0088 -0.9436 -0.3309
vn -0.0024 0.9443 0.3289
vn -0.0247 0.8711 0.4904
vn -0.4815 0.8763 0.0174
vn -0.7766 0.3328 0.5349
vn -0.5453 0.4557 0.7036
vn -0.5092 0.0263 0.8602
vn 0.0085 -0.1294 0.9916
vn 0.0142 0.9328 0.3602
vn 0.0070 0.9096 0.4155
vn 0.7078 0.6982 -0.1072
vn 0.5277 0.4368 0.7285
vn 0.4927 0.4446 0.7480
vn 0.4909 -0.4402 0.7519
vn 0.0213 -0.0003 0.9998
vn 0.0181 -0.0253 -0.9995
vn 0.0060 0.0728 -0.9973
vn 0.6041 0.4079 -0.6846
vn 0.5322 -0.4388 -0.7240
vn 0.5143 -0.4426 -0.7346
vn 0.6959 -0.7067 0.1279
vn 0.0112 -0.9201 -0.3915
vn 0.0226 -0.9529 -0.3024
vn 0.1393 -0.9833 0.1173
vn 0.5731 -0.8045 -0.1560
vn -1.0000 -0.0000 -0.0000
vn -0.0000 0.1196 0.9928
vn 1.0000 -0.0000 -0.0000
vn -0.0000 -0.1196 -0.9928
vn -0.0000 0.9928 -0.1196
vn -0.0000 -0.9928 0.1196
vt 0.662326 0.356019
vt 0.662611 0.355340
vt 0.662648 0.356018
vt 0.662311 0.355339
vt 0.597666 0.318871
vt 0.597555 0.318963
vt 0.597553 0.318543
vt 0.712025 0.259243
vt 0.712138 0.258788
vt 0.712141 0.259339
vt 0.597561 0.319401
vt 0.597675 0.319413
vt 0.668836 0.356448
vt 0.668832 0.355889
vt 0.668949 0.356486
vt 0.668945 0.355914
vt 0.668949 0.355419
vt 0.668837 0.355339
vt 0.598109 0.318356
vt 0.597556 0.318064
vt 0.642376 0.355967
vt 0.642873 0.355714
vt 0.642999 0.355967
vt 0.642676 0.355339
vt 0.711599 0.258197
vt 0.712141 0.258014
vt 0.712138 0.258305
vt 0.596323 0.370007
vt 0.596544 0.370007
vt 0.596470 0.370556
vt 0.711581 0.258450
vt 0.711583 0.258764
vt 0.672454 0.255234
vt 0.673809 0.256168
vt 0.671601 0.257702
vt 0.672757 0.255350
vt 0.673408 0.253753
vt 0.673421 0.254104
vt 0.673037 0.254528
vt 0.672758 0.253080
vt 0.635162 0.362868
vt 0.635177 0.363428
vt 0.635162 0.363802
vt 0.673780 0.254111
vt 0.673879 0.253789
vt 0.674469 0.253827
vt 0.673545 0.253309
vt 0.673633 0.252953
vt 0.673554 0.253597
vt 0.673145 0.253486
vt 0.673346 0.252642
vt 0.673025 0.250859
vt 0.671602 0.251547
vt 0.673029 0.252707
vt 0.672665 0.251957
vt 0.672082 0.251942
vt 0.671767 0.251560
vt 0.749987 0.235749
vt 0.749987 0.233940
vt 0.750001 0.234552
vt 0.672978 0.251655
vt 0.673038 0.251212
vt 0.672923 0.250982
vt 0.672778 0.250655
vt 0.672543 0.250722
vt 0.672160 0.250585
vt 0.672187 0.250731
vt 0.671785 0.250812
vt 0.671808 0.251059
vt 0.671601 0.251200
vt 0.728709 0.280849
vt 0.729114 0.281018
vt 0.729114 0.282324
vt 0.728220 0.280943
vt 0.727822 0.281388
vt 0.727841 0.281952
vt 0.728205 0.282401
vt 0.728723 0.282480
vt 0.597669 0.321571
vt 0.598109 0.321559
vt 0.623432 0.355339
vt 0.622993 0.356171
vt 0.622993 0.355341
vt 0.623432 0.356172
vt 0.640577 0.370446
vt 0.640857 0.370007
vt 0.640854 0.370460
vt 0.640575 0.370007
vt 0.702668 0.272234
vt 0.703076 0.269543
vt 0.703137 0.272237
vt 0.702643 0.269540
vt 0.703090 0.267659
vt 0.702652 0.267662
vt 0.711594 0.261980
vt 0.712032 0.261989
vt 0.683365 0.165006
vt 0.683515 0.165188
vt 0.682724 0.164823
vt 0.683796 0.164799
vt 0.683607 0.164672
vt 0.684032 0.164529
vt 0.683620 0.164277
vt 0.683376 0.164719
vt 0.683734 0.163839
vt 0.684121 0.165593
vt 0.683282 0.167199
vt 0.684375 0.166417
vt 0.685425 0.168834
vt 0.684675 0.166315
vt 0.683824 0.165061
vt 0.684403 0.164305
vt 0.685425 0.163117
vt 0.684359 0.163797
vt 0.684078 0.162349
vt 0.684781 0.163256
vt 0.684286 0.162984
vt 0.683943 0.163679
vt 0.633544 0.377055
vt 0.633422 0.377227
vt 0.633422 0.376908
vt 0.742844 0.226457
vt 0.743004 0.226473
vt 0.742844 0.228225
vt 0.616174 0.362868
vt 0.616174 0.363548
vt 0.616004 0.362886
vt 0.616040 0.363546
vt 0.728023 0.315230
vt 0.728018 0.318037
vt 0.727923 0.316987
vt 0.727931 0.317563
vt 0.727946 0.317662
vt 0.727908 0.317208
vt 0.727822 0.315235
vt 0.727834 0.316924
vt 0.727958 0.317978
vt 0.727850 0.318157
vt 0.727822 0.317783
vt 0.727841 0.317500
vt 0.559655 0.346811
vt 0.560334 0.348446
vt 0.559655 0.348483
vt 0.560335 0.346817
vt 0.702590 0.270032
vt 0.702683 0.270124
vt 0.703136 0.270114
vt 0.615913 0.363433
vt 0.703251 0.270039
vt 0.703246 0.272320
vt 0.703251 0.272550
vt 0.702572 0.272527
vt 0.702567 0.272332
vt 0.672499 0.250558
vt 0.615245 0.370142
vt 0.615611 0.370007
vt 0.615583 0.370140
vt 0.570818 0.370048
vt 0.570917 0.370007
vt 0.570956 0.370417
vt 0.571180 0.370381
vt 0.571182 0.370007
vt 0.723165 0.370045
vt 0.723424 0.370341
vt 0.723153 0.370420
vt 0.723424 0.370007
vt 0.757436 0.325676
vt 0.757070 0.325789
vt 0.757104 0.325648
vt 0.757434 0.325911
vt 0.757109 0.326021
vt 0.757445 0.326036
vt 0.615272 0.370379
vt 0.615611 0.370394
vt 0.736839 0.363152
vt 0.736834 0.362868
vt 0.737165 0.363041
vt 0.694557 0.355907
vt 0.694886 0.355832
vt 0.694880 0.356045
vt 0.694512 0.355636
vt 0.694886 0.355510
vt 0.694553 0.355425
vt 0.757395 0.213442
vt 0.757041 0.213706
vt 0.757058 0.213380
vt 0.757403 0.213710
vt 0.757089 0.213953
vt 0.757422 0.213992
vt 0.756410 0.362956
vt 0.756080 0.363184
vt 0.756078 0.362868
vt 0.756410 0.363247
vt 0.756078 0.363420
vt 0.756410 0.363400
vt 0.736834 0.363424
vt 0.737165 0.363401
vt 0.757041 0.214104
vt 0.690057 0.376908
vt 0.690057 0.377226
vt 0.689949 0.377055
vt 0.551726 0.377090
vt 0.551669 0.377344
vt 0.551669 0.376908
vt 0.740289 0.377229
vt 0.740204 0.377176
vt 0.740289 0.376908
vt 0.589344 0.377226
vt 0.589402 0.376908
vt 0.589402 0.377324
vt 0.639728 0.377271
vt 0.639728 0.376908
vt 0.639807 0.376943
vt 0.759082 0.377212
vt 0.759139 0.376908
vt 0.759139 0.377255
vt 0.694945 0.355773
vt 0.696240 0.377230
vt 0.696240 0.376908
vt 0.696342 0.377172
vt 0.608316 0.377048
vt 0.608372 0.376908
vt 0.608372 0.377311
vt 0.684086 0.163722
vt 0.757041 0.325554
vt 0.683595 0.165133
vt 0.776765 0.227535
vt 0.776823 0.227325
vt 0.776823 0.227627
vt 0.776765 0.272734
vt 0.776765 0.272474
vt 0.776850 0.272509
vt 0.545414 0.383649
vt 0.545466 0.383544
vt 0.545466 0.383725
vt 0.683373 0.164833
vt 0.776855 0.298163
vt 0.776855 0.298402
vt 0.776765 0.298350
vt 0.757502 0.326108
vt 0.776832 0.336897
vt 0.776765 0.336962
vt 0.776765 0.336728
vt 0.757502 0.325905
vt 0.757493 0.325584
vt 0.776765 0.253440
vt 0.776765 0.253179
vt 0.776854 0.253402
vt 0.721461 0.377037
vt 0.721521 0.376908
vt 0.721521 0.377265
vt 0.673670 0.253672
vt 0.776806 0.311090
vt 0.776765 0.311278
vt 0.776765 0.310996
vt 0.770413 0.217136
vt 0.770346 0.217466
vt 0.770346 0.216907
vt 0.770496 0.183322
vt 0.770413 0.183597
vt 0.770346 0.183617
vt 0.770496 0.183805
vt 0.645991 0.377072
vt 0.646055 0.376908
vt 0.646055 0.377285
vt 0.776765 0.194970
vt 0.776847 0.195084
vt 0.776765 0.195262
vt 0.733955 0.377122
vt 0.734021 0.376908
vt 0.734021 0.377250
vt 0.677415 0.376908
vt 0.677518 0.377037
vt 0.677415 0.377240
vt 0.545414 0.377165
vt 0.545485 0.376908
vt 0.545485 0.377331
vt 0.776765 0.221142
vt 0.776765 0.220860
vt 0.776847 0.220896
vt 0.694490 0.355339
vt 0.694490 0.356073
vt 0.620986 0.377242
vt 0.620871 0.377040
vt 0.620986 0.376908
vt 0.596729 0.362868
vt 0.596637 0.363548
vt 0.596637 0.362868
vt 0.596730 0.363548
vt 0.662093 0.356018
vt 0.662093 0.355339
vt 0.641360 0.363548
vt 0.641562 0.362869
vt 0.641605 0.363548
vt 0.641360 0.362868
vt 0.717969 0.362870
vt 0.717771 0.363548
vt 0.717754 0.362868
vt 0.717969 0.363549
vt 0.596879 0.362870
vt 0.596910 0.363549
vt 0.558352 0.370007
vt 0.558352 0.370686
vt 0.558242 0.370010
vt 0.763844 0.355786
vt 0.763736 0.356457
vt 0.763736 0.355771
vt 0.757143 0.263680
vt 0.757048 0.263780
vt 0.757041 0.263284
vt 0.757118 0.264015
vt 0.770346 0.196972
vt 0.770398 0.196684
vt 0.770398 0.197266
vt 0.757134 0.249300
vt 0.757041 0.248847
vt 0.757145 0.249047
vt 0.757123 0.248606
vt 0.551781 0.363198
vt 0.551691 0.363355
vt 0.551691 0.362868
vt 0.551755 0.363534
vt 0.551719 0.363788
vt 0.735423 0.337193
vt 0.735641 0.337075
vt 0.735541 0.337437
vt 0.735431 0.337635
vt 0.735789 0.337771
vt 0.735961 0.337968
vt 0.736134 0.337807
vt 0.736565 0.337632
vt 0.736407 0.337605
vt 0.736462 0.337321
vt 0.736570 0.337092
vt 0.736298 0.336996
vt 0.735780 0.336772
vt 0.736105 0.336772
vt 0.735919 0.336907
vt 0.757143 0.263246
vt 0.735682 0.337924
vt 0.564536 0.370439
vt 0.564635 0.370430
vt 0.564635 0.370696
vt 0.564558 0.370007
vt 0.736374 0.337907
vt 0.757041 0.249377
vt 0.757139 0.249605
vt 0.736434 0.336879
vt 0.776765 0.330354
vt 0.776879 0.330354
vt 0.776773 0.330545
vt 0.551791 0.362906
vt 0.735495 0.336959
vt 0.757080 0.263031
vt 0.628077 0.370344
vt 0.628130 0.370086
vt 0.628127 0.370351
vt 0.628075 0.370007
vt 0.602728 0.370670
vt 0.602784 0.370455
vt 0.602780 0.370723
vt 0.602731 0.370374
vt 0.602780 0.370112
vt 0.602728 0.370007
vt 0.570598 0.376982
vt 0.570546 0.377143
vt 0.570546 0.376908
vt 0.570594 0.377334
vt 0.776818 0.324170
vt 0.776765 0.324170
vt 0.776769 0.323908
vt 0.776817 0.175520
vt 0.776817 0.175854
vt 0.776765 0.175529
vt 0.776765 0.233811
vt 0.776816 0.234104
vt 0.776765 0.234116
vt 0.628075 0.370719
vt 0.628127 0.370717
vt 0.750212 0.196195
vt 0.750020 0.195990
vt 0.750610 0.196222
vt 0.750857 0.195964
vt 0.750857 0.195632
vt 0.750498 0.195346
vt 0.750214 0.195391
vt 0.749987 0.195653
vt 0.750680 0.195405
vt 0.757041 0.207196
vt 0.757268 0.206512
vt 0.757362 0.207191
vt 0.654038 0.363548
vt 0.654038 0.362868
vt 0.654280 0.362881
vt 0.703011 0.193591
vt 0.703126 0.193131
vt 0.703130 0.193847
vt 0.702689 0.307080
vt 0.702682 0.307345
vt 0.702572 0.307003
vt 0.702567 0.307388
vt 0.545414 0.356651
vt 0.545416 0.356205
vt 0.545528 0.356584
vt 0.545530 0.355985
vt 0.545414 0.355565
vt 0.545524 0.355339
vt 0.703012 0.194086
vt 0.703128 0.306766
vt 0.702572 0.306468
vt 0.703120 0.306414
vt 0.702569 0.306007
vt 0.703127 0.306120
vt 0.749987 0.324166
vt 0.750517 0.323988
vt 0.750543 0.324257
vt 0.749987 0.323498
vt 0.750544 0.323681
vt 0.750534 0.323324
vt 0.703111 0.192614
vt 0.702567 0.192751
vt 0.702571 0.193152
vt 0.672460 0.241898
vt 0.673812 0.242839
vt 0.671601 0.244374
vt 0.672763 0.242015
vt 0.673388 0.240373
vt 0.673389 0.240703
vt 0.673044 0.241190
vt 0.673554 0.239970
vt 0.673744 0.240291
vt 0.672837 0.239927
vt 0.673856 0.240537
vt 0.674478 0.240492
vt 0.673798 0.240769
vt 0.673643 0.239613
vt 0.673218 0.240142
vt 0.673533 0.240768
vt 0.673286 0.239272
vt 0.673003 0.237460
vt 0.672843 0.239494
vt 0.672036 0.238563
vt 0.671633 0.238244
vt 0.672937 0.237616
vt 0.673066 0.238032
vt 0.672481 0.238654
vt 0.672816 0.238530
vt 0.671811 0.238280
vt 0.750015 0.266424
vt 0.749987 0.265218
vt 0.750015 0.264679
vt 0.672508 0.237371
vt 0.672206 0.237232
vt 0.672163 0.237406
vt 0.671938 0.237566
vt 0.671725 0.237583
vt 0.671601 0.237894
vt 0.671748 0.237973
vt 0.672585 0.237222
vt 0.615822 0.329435
vt 0.615423 0.329794
vt 0.615943 0.328928
vt 0.615610 0.328346
vt 0.614944 0.328201
vt 0.614363 0.328629
vt 0.614363 0.329399
vt 0.614848 0.329797
vt 0.702681 0.309871
vt 0.703120 0.309858
vt 0.702689 0.310641
vt 0.703128 0.310644
vt 0.735957 0.166995
vt 0.735513 0.166751
vt 0.735965 0.166758
vt 0.672450 0.370512
vt 0.672240 0.370127
vt 0.672450 0.370007
vt 0.720127 0.177245
vt 0.720570 0.174626
vt 0.720593 0.177258
vt 0.720135 0.174618
vt 0.702567 0.198320
vt 0.703033 0.196528
vt 0.703001 0.198324
vt 0.702594 0.196523
vt 0.683292 0.152270
vt 0.683520 0.152559
vt 0.682724 0.152209
vt 0.683814 0.151838
vt 0.683767 0.152117
vt 0.683458 0.152060
vt 0.684132 0.152954
vt 0.683319 0.154572
vt 0.684399 0.153770
vt 0.685489 0.156166
vt 0.684698 0.153664
vt 0.685169 0.150563
vt 0.684210 0.151084
vt 0.684669 0.150595
vt 0.683646 0.151588
vt 0.683828 0.152427
vt 0.684182 0.151860
vt 0.683606 0.151335
vt 0.684333 0.151677
vt 0.685489 0.150343
vt 0.684381 0.151331
vt 0.684079 0.149608
vt 0.683843 0.151060
vt 0.684142 0.150205
vt 0.728015 0.291256
vt 0.727881 0.291419
vt 0.727903 0.291102
vt 0.727921 0.291000
vt 0.727822 0.291479
vt 0.727950 0.290658
vt 0.727921 0.290424
vt 0.727822 0.288664
vt 0.727983 0.288670
vt 0.727987 0.291642
vt 0.763892 0.259380
vt 0.763883 0.260060
vt 0.763736 0.259400
vt 0.763755 0.260060
vt 0.728086 0.262674
vt 0.728011 0.265488
vt 0.727943 0.264433
vt 0.727936 0.265010
vt 0.727949 0.265110
vt 0.727922 0.264654
vt 0.727886 0.262674
vt 0.727855 0.264367
vt 0.727953 0.265427
vt 0.727841 0.265604
vt 0.727822 0.265228
vt 0.727848 0.264944
vt 0.735423 0.262469
vt 0.736103 0.263991
vt 0.735423 0.264075
vt 0.736102 0.262477
vt 0.735423 0.168576
vt 0.735423 0.166640
vt 0.736082 0.166617
vt 0.735889 0.168580
vt 0.735997 0.168573
vt 0.720703 0.177342
vt 0.720703 0.177574
vt 0.720024 0.177548
vt 0.720024 0.177343
vt 0.671923 0.237353
vt 0.763747 0.252944
vt 0.764118 0.252770
vt 0.764086 0.252955
vt 0.763736 0.177144
vt 0.763874 0.177146
vt 0.763849 0.177523
vt 0.764037 0.177479
vt 0.764088 0.177145
vt 0.764155 0.177521
vt 0.710509 0.370010
vt 0.710237 0.370382
vt 0.710281 0.370007
vt 0.710551 0.370382
vt 0.551904 0.370065
vt 0.551740 0.370399
vt 0.551674 0.370036
vt 0.552000 0.370399
vt 0.552059 0.370028
vt 0.763736 0.253197
vt 0.764109 0.253197
vt 0.757107 0.171527
vt 0.757471 0.171292
vt 0.757471 0.171620
vt 0.757105 0.171313
vt 0.757041 0.347170
vt 0.757055 0.346924
vt 0.757406 0.347208
vt 0.757391 0.346821
vt 0.757066 0.346705
vt 0.757406 0.346562
vt 0.692812 0.362868
vt 0.692805 0.363047
vt 0.692482 0.363030
vt 0.692455 0.363408
vt 0.692812 0.363381
vt 0.679862 0.362871
vt 0.679861 0.363127
vt 0.679505 0.362868
vt 0.679532 0.363248
vt 0.679862 0.363411
vt 0.757120 0.171842
vt 0.757455 0.171936
vt 0.683725 0.151218
vt 0.683956 0.151828
vt 0.746531 0.377038
vt 0.746473 0.377256
vt 0.746473 0.376908
vt 0.684067 0.151084
vt 0.776765 0.149825
vt 0.776822 0.149608
vt 0.776822 0.149953
vt 0.583161 0.376908
vt 0.583161 0.377275
vt 0.583056 0.377108
vt 0.776824 0.214545
vt 0.776765 0.214676
vt 0.776765 0.214367
vt 0.683372 0.152357
vt 0.776822 0.182147
vt 0.776765 0.182361
vt 0.776765 0.182038
vt 0.776772 0.278917
vt 0.776859 0.279168
vt 0.776765 0.279168
vt 0.776765 0.317641
vt 0.776821 0.317462
vt 0.776821 0.317725
vt 0.776860 0.285596
vt 0.776765 0.285351
vt 0.776860 0.285351
vt 0.764146 0.253012
vt 0.673390 0.240559
vt 0.551812 0.370007
vt 0.673694 0.240760
vt 0.673678 0.240331
vt 0.763801 0.177084
vt 0.764162 0.177084
vt 0.776848 0.362209
vt 0.776765 0.362380
vt 0.776765 0.362193
vt 0.776824 0.246867
vt 0.776765 0.246995
vt 0.776765 0.246700
vt 0.715278 0.377234
vt 0.715186 0.376975
vt 0.715278 0.376908
vt 0.683765 0.377138
vt 0.683701 0.377272
vt 0.683701 0.376908
vt 0.776765 0.169337
vt 0.776765 0.169039
vt 0.776854 0.169200
vt 0.658625 0.377101
vt 0.658689 0.376908
vt 0.658689 0.377284
vt 0.776765 0.201446
vt 0.776850 0.201558
vt 0.776765 0.201734
vt 0.727705 0.377115
vt 0.727772 0.376908
vt 0.727772 0.377252
vt 0.664873 0.376908
vt 0.664975 0.377036
vt 0.664873 0.377242
vt 0.627169 0.377162
vt 0.627239 0.376908
vt 0.627239 0.377289
vt 0.770505 0.163134
vt 0.770420 0.163408
vt 0.770346 0.163424
vt 0.770505 0.163618
vt 0.770410 0.303428
vt 0.770346 0.303674
vt 0.770346 0.303180
vt 0.776840 0.266290
vt 0.776765 0.266253
vt 0.776840 0.266020
vt 0.757046 0.171615
vt 0.757041 0.171232
vt 0.757461 0.206510
vt 0.757365 0.206512
vt 0.757461 0.207190
vt 0.736102 0.264279
vt 0.736102 0.264089
vt 0.735423 0.264272
vt 0.686046 0.363548
vt 0.686245 0.362869
vt 0.686272 0.363549
vt 0.686046 0.362868
vt 0.666980 0.362868
vt 0.666774 0.363547
vt 0.666743 0.362868
vt 0.666980 0.363548
vt 0.763736 0.198242
vt 0.763909 0.197566
vt 0.763921 0.198246
vt 0.763736 0.197563
vt 0.728086 0.265430
vt 0.757041 0.235061
vt 0.757145 0.234858
vt 0.757123 0.235236
vt 0.757050 0.234834
vt 0.757142 0.234501
vt 0.770346 0.243935
vt 0.770397 0.243690
vt 0.770397 0.244246
vt 0.770346 0.355600
vt 0.770436 0.355539
vt 0.770436 0.355951
vt 0.770441 0.368684
vt 0.770346 0.369075
vt 0.770346 0.368738
vt 0.671231 0.376908
vt 0.671231 0.377273
vt 0.671159 0.377166
vt 0.576873 0.376999
vt 0.576782 0.377290
vt 0.576782 0.376908
vt 0.736536 0.207886
vt 0.735944 0.208054
vt 0.736394 0.207809
vt 0.735901 0.207906
vt 0.736660 0.207671
vt 0.736660 0.207316
vt 0.736533 0.207448
vt 0.736465 0.207213
vt 0.736242 0.206878
vt 0.736243 0.207023
vt 0.735614 0.207017
vt 0.735898 0.207025
vt 0.735514 0.207261
vt 0.735665 0.207236
vt 0.735514 0.207762
vt 0.735616 0.207551
vt 0.666056 0.370217
vt 0.665956 0.370627
vt 0.665954 0.370320
vt 0.736386 0.208048
vt 0.757041 0.234480
vt 0.757109 0.234233
vt 0.736585 0.207060
vt 0.736398 0.206889
vt 0.770346 0.342731
vt 0.770443 0.342457
vt 0.770443 0.342886
vt 0.735971 0.206808
vt 0.770449 0.368940
vt 0.735423 0.207394
vt 0.735729 0.208026
vt 0.665954 0.370007
vt 0.770346 0.169908
vt 0.770398 0.169802
vt 0.770395 0.170104
vt 0.557909 0.377361
vt 0.557909 0.376908
vt 0.557941 0.377237
vt 0.770400 0.149834
vt 0.770346 0.149877
vt 0.770379 0.149608
vt 0.770400 0.150209
vt 0.770350 0.150199
vt 0.770347 0.170399
vt 0.770398 0.170392
vt 0.736096 0.207914
vt 0.736525 0.207493
vt 0.736386 0.207800
vt 0.735795 0.207828
vt 0.619106 0.339012
vt 0.619298 0.339320
vt 0.619067 0.339278
vt 0.770549 0.329737
vt 0.770346 0.329762
vt 0.770346 0.329438
vt 0.750443 0.337964
vt 0.749987 0.338836
vt 0.749987 0.337890
vt 0.750444 0.338846
vt 0.618610 0.339285
vt 0.618547 0.339031
vt 0.618385 0.339315
vt 0.770538 0.316770
vt 0.770346 0.316770
vt 0.770512 0.316426
vt 0.653347 0.337939
vt 0.653261 0.338266
vt 0.653227 0.337830
vt 0.654137 0.337890
vt 0.654164 0.338168
vt 0.653941 0.338185
vt 0.653480 0.338216
vt 0.653548 0.339109
vt 0.654004 0.339123
vt 0.712303 0.159254
vt 0.711868 0.160185
vt 0.711805 0.159251
vt 0.712325 0.160172
vt 0.712598 0.161978
vt 0.712598 0.160087
vt 0.712360 0.161940
vt 0.711921 0.162815
vt 0.712378 0.162853
vt 0.711868 0.161985
vt 0.711682 0.161980
vt 0.711581 0.160115
vt 0.742999 0.166912
vt 0.743387 0.165912
vt 0.743451 0.166868
vt 0.742923 0.165856
vt 0.683796 0.348047
vt 0.684178 0.346813
vt 0.684254 0.348094
vt 0.683721 0.346811
vt 0.618489 0.337772
vt 0.619174 0.337749
vt 0.663828 0.346811
vt 0.664487 0.348276
vt 0.663884 0.348270
vt 0.664513 0.346811
vt 0.681647 0.305153
vt 0.682958 0.306707
vt 0.681679 0.306726
vt 0.683022 0.305148
vt 0.660100 0.305148
vt 0.661396 0.306758
vt 0.660116 0.306750
vt 0.661477 0.305179
vt 0.743530 0.258428
vt 0.742844 0.257299
vt 0.743530 0.257302
vt 0.742845 0.258422
vt 0.681183 0.308540
vt 0.681419 0.307634
vt 0.683441 0.308488
vt 0.681212 0.306928
vt 0.683451 0.306921
vt 0.683351 0.307438
vt 0.661879 0.306950
vt 0.661659 0.307690
vt 0.659627 0.306901
vt 0.659814 0.307613
vt 0.659587 0.308469
vt 0.661870 0.308567
vt 0.763924 0.183761
vt 0.763736 0.184068
vt 0.763778 0.183707
vt 0.763879 0.184161
vt 0.757196 0.199407
vt 0.757041 0.199825
vt 0.757044 0.199354
vt 0.757189 0.199838
vt 0.757196 0.200281
vt 0.757046 0.200327
vt 0.607427 0.328644
vt 0.606898 0.328333
vt 0.608017 0.328300
vt 0.606893 0.329821
vt 0.607049 0.328968
vt 0.608002 0.329883
vt 0.607488 0.329516
vt 0.607876 0.329255
vt 0.608179 0.329371
vt 0.608155 0.328720
vt 0.607814 0.328837
vt 0.607130 0.329349
vt 0.742939 0.235505
vt 0.743072 0.235884
vt 0.742906 0.235922
vt 0.743113 0.235002
vt 0.742919 0.234951
vt 0.742988 0.234452
vt 0.743140 0.234409
vt 0.585666 0.328831
vt 0.585648 0.329350
vt 0.585466 0.329885
vt 0.586121 0.329513
vt 0.586584 0.329853
vt 0.586120 0.328666
vt 0.585487 0.328310
vt 0.585292 0.328869
vt 0.586393 0.329287
vt 0.586429 0.328967
vt 0.586594 0.328356
vt 0.729101 0.177541
vt 0.727945 0.177406
vt 0.729043 0.177396
vt 0.728086 0.176682
vt 0.728299 0.177039
vt 0.728670 0.177059
vt 0.727965 0.175890
vt 0.728205 0.176375
vt 0.729239 0.176900
vt 0.688231 0.355347
vt 0.688234 0.355863
vt 0.688082 0.355339
vt 0.688082 0.356339
vt 0.688233 0.356344
vt 0.770498 0.237506
vt 0.770346 0.237053
vt 0.770496 0.237068
vt 0.770346 0.237495
vt 0.728710 0.219330
vt 0.728736 0.219616
vt 0.727898 0.220205
vt 0.727822 0.218310
vt 0.728118 0.218922
vt 0.727822 0.219671
vt 0.728105 0.219570
vt 0.728268 0.219273
vt 0.711428 0.363572
vt 0.711570 0.362868
vt 0.711570 0.363629
vt 0.654171 0.338326
vt 0.654022 0.338314
vt 0.653267 0.338390
vt 0.653416 0.338359
vt 0.708842 0.376991
vt 0.709002 0.377166
vt 0.708843 0.377144
vt 0.709002 0.376978
vt 0.743140 0.236009
vt 0.712544 0.159983
vt 0.712396 0.160026
vt 0.711789 0.160046
vt 0.711636 0.160021
vt 0.618390 0.339468
vt 0.618537 0.339438
vt 0.619145 0.339423
vt 0.619296 0.339468
vt 0.683802 0.348317
vt 0.684260 0.348341
vt 0.653563 0.339416
vt 0.654020 0.339416
vt 0.711845 0.158968
vt 0.712299 0.158953
vt 0.743365 0.165619
vt 0.742902 0.165562
vt 0.660026 0.306734
vt 0.683056 0.306718
vt 0.661497 0.306802
vt 0.681587 0.306761
vt 0.653993 0.337817
vt 0.654073 0.337749
vt 0.661421 0.306830
vt 0.659979 0.306803
vt 0.653391 0.337847
vt 0.776849 0.355897
vt 0.776765 0.356010
vt 0.776765 0.355819
vt 0.653304 0.337763
vt 0.681675 0.306803
vt 0.682973 0.306801
vt 0.776837 0.375005
vt 0.776765 0.375067
vt 0.776765 0.374895
vt 0.653185 0.338292
vt 0.683539 0.306971
vt 0.742844 0.235895
vt 0.683394 0.308042
vt 0.683524 0.308540
vt 0.683485 0.306832
vt 0.770422 0.203450
vt 0.770422 0.204005
vt 0.770346 0.203916
vt 0.724153 0.363235
vt 0.724219 0.362868
vt 0.724219 0.363711
vt 0.703924 0.370574
vt 0.703924 0.370007
vt 0.704053 0.370212
vt 0.763924 0.184391
vt 0.681122 0.306979
vt 0.681184 0.306838
vt 0.619371 0.339364
vt 0.661873 0.306855
vt 0.618309 0.339393
vt 0.661962 0.306980
vt 0.661742 0.307707
vt 0.661925 0.308489
vt 0.659643 0.306803
vt 0.654245 0.338234
vt 0.659587 0.308567
vt 0.770435 0.176583
vt 0.770435 0.177138
vt 0.770346 0.177113
vt 0.763736 0.342205
vt 0.763811 0.341956
vt 0.763811 0.342683
vt 0.770346 0.189989
vt 0.770468 0.190190
vt 0.770346 0.190500
vt 0.688306 0.356094
vt 0.659532 0.306921
vt 0.708902 0.376908
vt 0.570884 0.363621
vt 0.570886 0.363228
vt 0.571112 0.363545
vt 0.571113 0.363234
vt 0.571111 0.362923
vt 0.570884 0.362868
vt 0.684995 0.370418
vt 0.685221 0.370058
vt 0.685221 0.370485
vt 0.684994 0.370007
vt 0.757268 0.283866
vt 0.757048 0.284261
vt 0.757041 0.283836
vt 0.757274 0.284256
vt 0.757270 0.284589
vt 0.757041 0.284663
vt 0.763961 0.266243
vt 0.763963 0.266739
vt 0.763736 0.266365
vt 0.763736 0.266843
vt 0.750745 0.301520
vt 0.750745 0.302019
vt 0.750405 0.301331
vt 0.750030 0.301499
vt 0.749987 0.301923
vt 0.750274 0.302178
vt 0.770346 0.296996
vt 0.770572 0.296660
vt 0.770572 0.296990
vt 0.770346 0.296726
vt 0.564473 0.363543
vt 0.564701 0.363235
vt 0.564698 0.363623
vt 0.564474 0.363171
vt 0.564473 0.362908
vt 0.564699 0.362868
vt 0.653318 0.370496
vt 0.653319 0.370078
vt 0.653545 0.370433
vt 0.653545 0.370007
vt 0.763961 0.156647
vt 0.763964 0.157019
vt 0.763736 0.156700
vt 0.763736 0.157194
vt 0.763960 0.157292
vt 0.757268 0.353464
vt 0.757043 0.353686
vt 0.757041 0.353392
vt 0.757270 0.353767
vt 0.757041 0.354073
vt 0.757266 0.354179
vt 0.750575 0.280580
vt 0.750188 0.280565
vt 0.750795 0.280385
vt 0.750795 0.279968
vt 0.750441 0.279763
vt 0.750159 0.279851
vt 0.749987 0.280150
vt 0.606947 0.328223
vt 0.608131 0.328200
vt 0.743451 0.165722
vt 0.606765 0.329733
vt 0.606765 0.328453
vt 0.712377 0.159103
vt 0.606981 0.329947
vt 0.608111 0.329971
vt 0.584751 0.355468
vt 0.584838 0.355339
vt 0.584885 0.356418
vt 0.584751 0.356572
vt 0.742844 0.165771
vt 0.727923 0.218266
vt 0.728797 0.219342
vt 0.727869 0.220347
vt 0.636088 0.356475
vt 0.636088 0.355339
vt 0.636187 0.356539
vt 0.636192 0.355427
vt 0.654088 0.339230
vt 0.727828 0.177371
vt 0.727822 0.176006
vt 0.684328 0.348164
vt 0.728080 0.177541
vt 0.586484 0.328214
vt 0.585391 0.328200
vt 0.653483 0.339284
vt 0.586715 0.328417
vt 0.586715 0.329744
vt 0.683721 0.348195
vt 0.586509 0.329953
vt 0.585358 0.329967
vt 0.763736 0.170901
vt 0.763736 0.170289
vt 0.763994 0.170509
vt 0.590454 0.362868
vt 0.590454 0.363382
vt 0.590017 0.363269
vt 0.727822 0.256350
vt 0.727822 0.254103
vt 0.728523 0.254244
vt 0.728523 0.256490
vt 0.611662 0.320686
vt 0.611662 0.318080
vt 0.612848 0.318064
vt 0.612848 0.320671
vt 0.720024 0.289826
vt 0.720754 0.289789
vt 0.720754 0.292460
vt 0.720024 0.292496
vt 0.604293 0.320728
vt 0.604293 0.318065
vt 0.605479 0.318064
vt 0.605479 0.320727
vt 0.743511 0.250147
vt 0.743511 0.251115
vt 0.742844 0.250933
vt 0.742844 0.249964
vt 0.742844 0.280953
vt 0.742844 0.279998
vt 0.743513 0.279813
vt 0.743513 0.280768
s 1
g robotic_arm.001_brazoRobot
usemtl brazoRobot
f 26/1/1 27/2/1 25/3/1
f 26/1/2 28/4/2 27/2/2
f 32/5/3 34/6/3 31/7/3
f 36/8/4 40/9/4 33/10/4
f 32/5/5 62/11/5 34/6/5
f 32/5/6 35/12/6 62/11/6
f 35/13/7 72/14/7 62/15/7
f 72/14/8 61/16/8 62/15/8
f 72/14/9 33/17/9 61/16/9
f 72/14/10 36/18/10 33/17/10
f 32/5/11 31/7/11 96/19/11
f 31/7/12 37/20/12 96/19/12
f 37/21/13 95/22/13 96/23/13
f 37/21/14 93/24/14 95/22/14
f 91/25/15 38/26/15 39/27/15
f 91/28/16 94/29/16 38/30/16
f 39/27/17 97/31/17 91/25/17
f 97/31/18 39/27/18 40/9/18
f 92/32/19 97/31/19 40/9/19
f 36/8/20 92/32/20 40/9/20
f 42/33/21 99/34/21 89/35/21
f 42/33/22 45/36/22 99/34/22
f 41/37/23 46/38/23 90/39/23
f 50/40/24 41/37/24 90/39/24
f 50/41/25 44/42/25 41/43/25
f 121/44/26 43/45/27 98/46/26
f 124/47/28 48/48/28 47/49/28
f 44/50/29 124/47/29 47/49/29
f 46/38/30 45/36/30 90/39/30
f 99/34/31 46/38/32 121/44/33
f 121/44/26 98/46/26 99/34/34
f 44/50/35 47/49/35 41/37/35
f 46/38/32 99/34/31 45/36/36
f 48/48/37 49/51/38 92/52/39
f 48/48/37 92/52/39 98/46/40
f 43/45/41 48/48/37 98/46/40
f 43/45/42 47/49/42 48/48/42
f 50/40/43 90/39/43 96/53/43
f 49/51/44 54/54/44 52/55/44
f 53/56/45 96/53/45 58/57/45
f 54/58/46 96/59/46 53/60/46
f 54/54/47 50/40/47 96/53/47
f 53/56/48 52/55/48 54/54/48
f 52/55/49 55/61/49 49/51/49
f 55/61/50 51/62/50 49/51/50
f 49/51/51 51/62/51 92/52/51
f 56/63/52 92/52/52 51/62/52
f 97/64/53 56/63/53 60/65/53
f 94/66/54 60/65/54 57/67/54
f 93/68/55 57/67/56 59/69/57
f 93/68/58 94/66/58 57/67/58
f 96/53/59 95/70/59 58/57/59
f 97/64/60 92/52/60 56/63/60
f 95/70/61 93/68/55 59/69/57
f 95/70/62 59/69/62 58/57/62
f 94/66/63 97/64/64 60/65/65
f 39/71/66 38/72/66 31/73/66
f 40/74/67 39/71/68 31/73/69
f 33/75/70 40/74/67 31/73/69
f 61/76/71 33/75/70 31/73/69
f 61/76/71 31/73/69 62/77/71
f 62/77/71 31/73/69 34/78/72
f 96/19/73 102/79/73 32/5/73
f 96/19/74 90/80/74 102/79/74
f 90/81/75 63/82/75 102/83/75
f 90/81/76 45/84/76 63/82/76
f 63/85/77 42/86/78 66/87/79
f 63/85/77 45/88/80 42/86/78
f 89/89/81 101/90/81 88/91/81
f 89/89/82 99/92/82 101/90/82
f 99/92/83 100/93/84 101/90/85
f 99/92/83 98/94/86 100/93/84
f 98/95/87 36/8/87 100/96/87
f 98/95/88 92/32/88 36/8/88
f 118/97/89 64/98/89 100/99/89
f 120/100/90 65/101/90 69/102/90
f 65/101/91 67/103/91 69/102/91
f 68/104/92 71/105/92 67/103/92
f 118/97/93 100/99/93 68/104/93
f 64/98/94 102/106/94 100/99/94
f 102/106/95 101/107/96 100/99/97
f 102/106/95 63/108/98 101/107/96
f 63/108/98 88/109/99 101/107/96
f 63/108/100 66/110/100 88/109/100
f 64/98/101 119/111/102 102/106/103
f 120/100/104 69/102/104 70/112/104
f 67/103/105 65/101/105 68/104/105
f 68/104/106 100/99/106 71/105/106
f 70/112/107 32/113/108 102/106/103
f 70/112/107 73/114/109 32/113/108
f 71/105/110 100/99/110 36/115/110
f 119/111/102 70/112/107 102/106/103
f 119/111/111 120/100/111 70/112/111
f 35/116/112 32/113/108 73/114/109
f 73/114/109 72/117/113 35/116/112
f 117/118/114 71/105/114 36/115/114
f 72/117/113 117/118/115 36/115/116
f 72/117/113 73/114/109 117/118/115
f 29/119/117 126/120/117 76/121/117
f 79/122/118 74/123/118 75/124/118
f 84/125/119 74/126/119 78/127/119
f 78/127/120 74/126/120 79/128/120
f 78/129/121 81/130/121 83/131/121
f 86/132/122 81/130/123 80/133/124
f 86/132/122 28/134/125 81/130/123
f 28/134/125 83/131/126 81/130/123
f 83/131/127 84/135/127 78/129/127
f 83/131/123 85/136/123 84/135/123
f 127/137/128 81/130/123 30/138/129
f 127/137/128 80/133/124 81/130/123
f 127/137/128 82/139/130 80/133/124
f 28/134/125 86/132/122 27/140/131
f 74/141/132 85/142/132 75/143/132
f 74/141/133 84/144/133 85/142/133
f 89/89/134 78/145/134 42/146/134
f 78/145/135 66/147/135 42/146/135
f 78/127/136 79/128/136 66/148/136
f 79/149/137 88/91/137 66/147/137
f 79/149/138 87/150/138 88/91/138
f 87/150/139 77/151/139 88/91/139
f 77/151/140 89/89/140 88/91/140
f 77/151/141 30/152/141 89/89/141
f 30/152/142 81/153/142 89/89/142
f 94/66/63 91/154/143 97/64/64
f 129/155/144 120/156/144 107/157/144
f 129/158/145 41/159/145 120/160/145
f 41/159/146 65/161/146 120/160/146
f 122/162/147 65/161/147 41/159/147
f 122/163/148 103/164/148 65/165/148
f 104/166/149 103/164/149 122/163/149
f 104/167/150 118/168/150 103/169/150
f 104/167/151 105/170/151 118/168/151
f 105/170/152 106/171/152 118/168/152
f 105/170/153 128/172/153 106/171/153
f 128/173/154 107/157/154 106/174/154
f 128/173/155 129/155/155 107/157/155
f 123/175/156 131/176/156 108/177/156
f 131/178/157 109/179/157 108/180/157
f 131/178/158 54/181/158 109/179/158
f 54/181/159 110/182/159 109/179/159
f 54/181/160 111/183/160 110/182/160
f 111/184/161 71/185/161 110/186/161
f 111/184/162 125/187/162 71/185/162
f 125/187/163 112/188/163 71/185/163
f 130/189/164 112/188/164 125/187/164
f 130/190/165 113/191/165 112/192/165
f 130/190/166 114/193/166 113/191/166
f 114/193/167 115/194/167 113/191/167
f 114/193/168 116/195/168 115/194/168
f 116/196/169 123/175/169 115/197/169
f 123/175/170 108/177/170 115/197/170
f 112/188/171 67/198/171 71/185/171
f 112/199/172 113/200/172 67/201/172
f 113/202/173 69/203/173 67/204/173
f 115/205/174 69/206/174 113/207/174
f 115/208/175 70/209/175 69/210/175
f 115/211/176 108/212/176 70/213/176
f 108/214/177 73/215/177 70/216/177
f 109/179/178 73/217/178 108/180/178
f 109/218/179 110/219/179 73/220/179
f 110/221/180 117/222/180 73/223/180
f 110/224/181 71/105/181 117/118/181
f 103/169/182 118/168/182 68/225/182
f 118/97/183 106/226/183 64/98/183
f 106/227/184 119/228/184 64/229/184
f 106/230/185 107/231/185 119/232/185
f 107/233/186 120/234/186 119/235/186
f 103/236/187 68/104/187 65/101/187
f 129/237/188 128/238/188 46/239/188
f 128/172/189 105/170/189 46/240/189
f 105/241/190 121/242/190 46/243/190
f 104/167/191 121/244/191 105/170/191
f 104/167/192 43/245/192 121/244/192
f 104/246/193 122/247/193 43/248/193
f 122/249/194 47/250/194 43/251/194
f 122/252/195 41/37/195 47/49/195
f 129/253/196 46/254/196 41/255/196
f 123/256/197 44/257/197 50/258/197
f 123/259/198 116/260/198 44/261/198
f 116/260/199 114/262/199 44/261/199
f 114/263/200 124/264/200 44/265/200
f 130/266/201 124/267/201 114/268/201
f 130/269/202 48/270/202 124/271/202
f 125/272/203 48/273/203 130/274/203
f 125/275/204 49/276/204 48/277/204
f 125/278/205 111/279/205 49/280/205
f 111/183/206 54/181/206 49/281/206
f 131/178/207 50/282/207 54/181/207
f 123/283/208 50/284/208 131/285/208
f 80/286/209 25/287/209 86/288/209
f 80/286/210 76/289/210 25/287/210
f 28/4/211 75/290/211 83/291/211
f 28/4/212 26/1/212 75/290/212
f 126/292/213 30/293/213 77/294/213
f 126/292/214 127/295/214 30/293/214
f 127/296/215 29/297/215 82/298/215
f 127/296/216 126/299/216 29/297/216
f 76/289/217 82/300/217 29/301/217
f 76/289/218 80/286/218 82/300/218
f 86/302/219 25/303/219 27/304/219
f 83/305/220 75/306/220 85/307/220
f 89/89/221 81/153/221 78/145/221
f 132/308/222 53/309/222 58/310/222
f 132/308/223 133/311/223 53/309/223
f 133/312/224 52/313/224 53/314/224
f 51/315/225 144/316/225 56/317/225
f 144/316/226 60/318/226 56/317/226
f 134/319/227 59/320/227 57/321/227
f 134/319/228 135/322/228 59/320/228
f 135/322/229 58/323/229 59/320/229
f 137/324/230 136/325/230 138/326/230
f 132/327/231 137/324/231 138/326/231
f 132/327/232 138/326/233 139/328/234
f 140/329/235 139/328/235 152/330/235
f 140/329/236 132/327/232 139/328/234
f 141/331/237 152/330/237 142/332/237
f 141/331/238 140/329/238 152/330/238
f 141/331/239 142/332/240 143/333/241
f 144/334/242 143/333/242 145/335/242
f 144/334/243 141/331/239 143/333/241
f 134/336/244 147/337/244 146/338/244
f 137/324/245 134/336/246 136/325/247
f 134/336/246 146/338/248 136/325/247
f 147/337/249 145/335/249 146/338/249
f 147/337/250 144/334/250 145/335/250
f 137/339/251 132/308/251 58/310/251
f 132/327/252 140/329/252 133/340/252
f 140/341/253 52/342/253 133/343/253
f 140/341/254 55/344/254 52/342/254
f 140/329/255 141/331/255 55/345/255
f 141/346/256 51/315/256 55/347/256
f 141/346/257 144/316/257 51/315/257
f 144/334/258 147/337/258 60/348/258
f 147/349/259 57/350/259 60/351/259
f 147/352/260 134/319/260 57/321/260
f 134/336/261 137/324/261 135/353/261
f 137/339/262 58/310/262 135/354/262
f 138/355/263 148/356/263 154/357/263
f 138/355/264 136/358/264 148/356/264
f 136/359/265 149/360/265 148/361/265
f 136/359/266 146/362/266 149/360/266
f 146/362/267 150/363/267 149/360/267
f 146/362/268 145/364/268 150/363/268
f 145/365/269 151/366/269 150/367/269
f 145/365/270 143/368/270 151/366/270
f 142/369/271 155/370/271 143/371/271
f 142/372/272 152/373/272 155/374/272
f 152/375/273 139/376/273 153/377/273
f 139/378/274 138/355/274 153/379/274
f 138/355/275 154/357/275 153/379/275
f 154/380/276 148/381/276 153/382/276
f 152/383/277 153/382/277 148/381/277
f 155/384/278 152/383/278 148/381/278
f 151/385/279 155/384/279 148/381/279
f 151/385/280 148/381/280 150/386/280
f 150/386/281 148/381/281 149/387/281
f 143/388/282 155/384/282 151/385/282
f 157/389/283 158/390/283 156/391/283
f 157/392/284 159/393/284 158/394/284
f 164/395/285 173/396/285 169/397/285
f 163/398/286 166/399/286 162/400/286
f 166/399/287 165/401/287 162/400/287
f 166/402/288 167/403/288 165/404/288
f 167/403/289 196/405/289 165/404/289
f 167/403/290 168/406/290 196/405/290
f 168/406/291 169/407/291 196/405/291
f 168/408/292 164/395/292 169/397/292
f 163/398/293 162/400/293 229/409/293
f 162/400/294 170/410/294 229/409/294
f 192/411/295 229/409/295 170/410/295
f 192/411/296 170/410/297 171/412/298
f 171/412/298 193/413/299 192/411/296
f 171/414/300 228/415/300 193/416/300
f 171/414/301 172/417/301 228/415/301
f 227/418/302 228/415/302 172/417/302
f 226/419/303 227/418/303 172/417/303
f 172/420/304 173/396/304 226/421/304
f 225/422/305 226/421/305 173/396/305
f 164/395/306 225/422/307 173/396/308
f 175/423/309 231/424/309 222/425/309
f 175/423/310 178/426/310 231/424/310
f 174/427/311 180/428/311 224/429/311
f 174/427/312 252/430/313 176/431/314
f 185/432/315 174/427/312 224/429/316
f 179/433/317 176/431/317 230/434/317
f 250/435/318 179/433/318 230/434/318
f 252/430/313 181/436/319 176/431/314
f 177/437/320 252/430/313 174/427/312
f 180/428/321 178/426/321 224/429/321
f 231/424/322 240/438/322 250/435/322
f 250/435/323 230/434/323 231/424/323
f 185/432/315 177/437/320 174/427/312
f 240/438/324 178/426/324 180/428/324
f 240/438/325 231/424/325 178/426/325
f 181/436/326 182/439/326 225/440/326
f 181/436/319 225/440/327 230/434/328
f 182/439/329 187/441/329 186/442/329
f 185/432/330 229/443/330 187/441/330
f 176/431/314 181/436/319 230/434/328
f 189/444/331 225/440/331 184/445/331
f 185/432/332 224/429/332 229/443/332
f 182/439/333 183/446/333 188/447/333
f 186/442/334 229/443/334 194/448/334
f 187/441/335 229/443/335 186/442/335
f 186/442/336 183/446/336 182/439/336
f 182/449/337 184/450/337 225/451/337
f 184/445/338 182/439/338 188/447/338
f 225/440/339 189/444/339 195/452/339
f 227/453/340 195/452/340 190/454/340
f 227/453/341 190/454/341 191/455/341
f 193/456/342 227/453/343 191/455/344
f 229/443/345 192/457/345 267/458/345
f 229/443/346 267/458/346 194/448/346
f 226/459/347 225/440/347 195/452/347
f 193/456/342 191/455/344 267/458/348
f 193/456/349 267/458/349 192/457/349
f 227/453/350 226/459/350 195/452/350
f 170/460/351 162/461/352 171/462/353
f 172/463/354 171/462/353 162/461/352
f 173/464/351 172/463/354 162/461/352
f 169/465/355 173/464/351 162/461/352
f 196/466/356 169/465/355 162/461/352
f 196/466/356 162/461/352 165/467/357
f 229/409/358 234/468/359 163/398/360
f 229/409/358 224/469/361 234/468/359
f 224/469/362 197/470/362 234/468/362
f 224/469/363 178/471/363 197/470/363
f 197/472/364 175/473/365 201/474/366
f 197/475/364 178/476/367 175/477/365
f 222/478/368 233/479/368 223/480/368
f 222/478/369 231/481/369 233/479/369
f 231/482/370 232/483/370 233/484/370
f 231/482/371 230/485/371 232/483/371
f 230/485/372 164/395/372 232/483/372
f 230/485/373 225/422/307 164/395/306
f 200/486/374 198/487/375 232/488/376
f 199/489/377 249/490/378 236/491/379
f 198/487/380 234/492/380 232/488/380
f 234/492/381 233/493/382 232/488/383
f 234/492/381 197/494/384 233/493/382
f 197/494/384 223/495/385 233/493/382
f 197/494/386 201/496/386 223/495/386
f 166/497/387 205/498/388 167/499/353
f 245/500/389 199/489/389 236/491/389
f 198/487/390 248/501/391 234/492/391
f 199/489/377 203/502/392 249/490/378
f 202/503/393 245/500/393 236/491/393
f 236/491/394 200/486/394 202/503/394
f 200/486/374 232/488/376 202/503/395
f 204/504/396 234/492/396 203/502/396
f 204/504/397 163/505/397 234/492/397
f 204/504/398 206/506/398 163/505/398
f 202/503/395 164/507/399 247/508/400
f 202/503/395 232/488/376 164/507/399
f 248/501/391 203/502/401 234/492/391
f 248/501/402 249/490/402 203/502/402
f 166/497/403 206/506/403 205/498/403
f 205/498/388 168/509/404 167/499/353
f 206/506/405 166/497/405 163/505/405
f 164/507/406 168/509/406 247/508/406
f 168/509/404 205/498/388 247/508/407
f 160/510/408 256/511/408 209/512/409
f 156/513/410 209/512/409 211/514/411
f 156/513/410 211/514/411 157/515/412
f 211/514/411 208/516/413 157/515/412
f 211/514/411 213/517/414 208/516/413
f 213/517/415 207/518/415 208/516/415
f 210/519/416 211/514/411 256/511/408
f 211/514/411 209/512/409 256/511/408
f 218/520/417 207/521/417 212/522/417
f 212/522/418 207/521/418 213/523/418
f 212/524/419 215/525/419 217/526/419
f 220/527/71 215/525/420 214/528/421
f 220/527/71 159/529/422 215/525/420
f 159/529/422 217/526/423 215/525/420
f 217/526/424 218/530/424 212/524/424
f 217/526/425 219/531/425 218/530/425
f 257/532/426 215/525/420 161/533/427
f 257/532/426 214/528/421 215/525/420
f 257/532/426 216/534/428 214/528/421
f 159/529/422 220/527/71 158/535/429
f 207/536/430 219/537/430 208/538/430
f 207/536/431 218/539/431 219/537/431
f 222/540/432 212/541/432 175/473/432
f 212/541/433 201/474/433 175/473/433
f 212/541/434 213/542/434 201/474/434
f 213/542/435 223/543/436 201/474/437
f 213/542/435 221/544/438 223/543/436
f 221/545/439 210/546/439 223/480/439
f 210/546/440 222/478/440 223/480/440
f 210/546/441 161/547/441 222/478/441
f 161/547/442 215/548/442 222/478/442
f 193/456/443 228/549/443 227/453/443
f 259/550/444 249/551/444 241/552/444
f 259/553/445 260/554/445 249/555/445
f 260/554/446 235/556/446 249/555/446
f 237/557/447 235/556/447 260/554/447
f 237/557/448 236/558/448 235/556/448
f 179/559/449 236/560/449 237/561/449
f 179/559/450 238/562/450 236/560/450
f 258/563/451 238/564/451 179/565/451
f 258/563/452 239/566/452 238/564/452
f 240/567/453 239/566/453 258/563/453
f 240/568/454 241/552/454 239/569/454
f 240/568/455 259/550/455 241/552/455
f 263/570/456 206/571/456 204/572/456
f 263/570/457 255/573/457 206/571/457
f 255/574/458 254/575/458 206/576/458
f 254/575/459 242/577/459 206/576/459
f 254/575/460 243/578/460 242/577/460
f 243/578/461 244/579/461 242/577/461
f 243/580/462 253/581/462 244/582/462
f 253/581/463 245/583/463 244/582/463
f 253/581/464 262/584/464 245/583/464
f 262/585/465 261/586/465 245/587/465
f 261/586/466 246/588/466 245/587/466
f 261/586/467 251/589/467 246/588/467
f 251/590/468 204/572/468 246/591/468
f 251/590/469 263/570/469 204/572/469
f 245/500/470 202/503/470 244/592/470
f 245/500/471 246/593/471 199/489/471
f 246/594/472 203/595/472 199/596/472
f 246/593/473 204/504/473 203/502/473
f 206/506/474 242/597/474 205/498/474
f 242/598/475 247/599/475 205/600/475
f 242/601/476 244/602/476 247/603/476
f 244/604/477 202/605/477 247/606/477
f 236/491/478 238/607/478 200/486/478
f 238/608/479 198/609/479 200/610/479
f 238/611/480 239/612/480 198/613/480
f 239/614/481 248/615/481 198/616/481
f 239/617/482 241/618/482 248/619/482
f 241/552/483 249/551/483 248/620/483
f 235/556/484 236/558/484 249/555/484
f 259/621/485 240/438/485 180/428/485
f 258/563/486 250/622/486 240/567/486
f 258/623/487 179/433/487 250/435/487
f 179/433/488 237/624/488 176/431/488
f 237/557/489 174/625/489 176/626/489
f 237/557/490 260/554/490 174/625/490
f 260/627/491 259/628/491 174/629/491
f 259/630/492 180/631/492 174/632/492
f 251/633/493 185/634/493 263/635/493
f 251/636/494 177/637/494 185/638/494
f 251/639/495 261/640/495 177/641/495
f 261/642/496 252/643/496 177/644/496
f 262/645/497 252/646/497 261/647/497
f 262/648/498 181/649/498 252/650/498
f 253/651/499 181/652/499 262/653/499
f 253/654/500 182/655/500 181/656/500
f 253/657/501 243/658/501 182/659/501
f 243/658/502 254/660/502 182/659/502
f 254/661/503 187/662/503 182/663/503
f 255/664/504 187/665/504 254/666/504
f 255/573/505 185/667/505 187/668/505
f 255/573/506 263/570/506 185/667/506
f 214/669/507 156/391/507 220/670/507
f 214/669/508 209/671/508 156/391/508
f 159/672/509 208/538/509 217/673/509
f 159/672/510 157/674/510 208/538/510
f 256/675/511 161/676/511 210/677/511
f 256/675/512 257/678/512 161/676/512
f 257/679/513 160/680/513 216/681/513
f 257/679/514 256/682/514 160/680/514
f 209/683/515 216/684/515 160/685/515
f 209/683/516 214/686/516 216/684/516
f 220/670/517 156/391/517 158/390/517
f 217/673/518 208/538/518 219/537/518
f 222/687/519 215/525/519 212/524/519
f 264/688/520 183/689/520 186/690/520
f 264/688/521 265/691/521 183/689/521
f 265/691/522 188/692/522 183/689/522
f 266/693/523 184/694/523 188/695/523
f 279/696/524 195/697/524 189/698/524
f 279/699/525 190/700/525 195/701/525
f 190/702/526 268/703/526 191/704/526
f 268/705/527 267/706/527 191/707/527
f 264/708/528 276/709/528 270/710/528
f 276/709/529 269/711/529 270/710/529
f 265/712/530 264/708/531 270/710/532
f 278/713/533 265/712/533 283/714/533
f 265/712/530 270/710/532 283/714/534
f 278/713/535 283/714/535 271/715/535
f 272/716/536 271/715/536 274/717/536
f 272/716/537 278/713/537 271/715/537
f 279/718/538 272/716/538 273/719/538
f 272/716/539 274/717/539 273/719/539
f 277/720/540 273/719/540 282/721/540
f 277/720/541 279/718/541 273/719/541
f 276/709/542 268/722/542 269/711/542
f 268/722/543 275/723/543 269/711/543
f 277/720/544 275/723/544 268/722/544
f 277/720/545 282/721/545 275/723/545
f 276/724/546 186/725/546 194/726/546
f 276/709/547 264/708/547 186/727/547
f 278/728/548 188/692/548 265/691/548
f 278/728/549 266/729/549 188/692/549
f 278/713/550 272/716/550 266/730/550
f 272/716/551 184/731/551 266/730/551
f 272/732/552 189/733/552 184/734/552
f 272/716/553 279/718/553 189/735/553
f 277/736/554 190/700/554 279/699/554
f 277/720/555 268/722/555 190/737/555
f 276/709/556 267/738/556 268/722/556
f 276/724/557 194/726/557 267/739/557
f 269/740/558 281/741/558 280/742/558
f 269/743/559 275/744/559 281/745/559
f 283/746/560 285/747/560 271/748/560
f 283/746/561 270/749/561 285/747/561
f 270/749/562 284/750/562 285/747/562
f 270/751/563 280/742/563 284/752/563
f 270/751/564 269/740/564 280/742/564
f 280/753/565 285/754/566 284/755/567
f 274/717/568 271/715/568 285/754/568
f 273/719/569 274/717/569 285/754/569
f 282/721/570 273/719/570 285/754/570
f 275/723/571 282/721/571 285/754/571
f 275/723/572 285/754/572 281/756/572
f 280/753/565 281/756/573 285/754/566
f 390/757/574 367/758/574 365/759/574
f 286/760/575 287/761/575 363/762/575
f 381/763/576 365/764/576 382/765/576
f 381/763/577 364/766/577 365/764/577
f 364/767/578 287/768/579 365/759/580
f 364/767/578 363/769/581 287/768/579
f 390/770/582 391/771/582 367/772/582
f 287/768/579 390/757/583 365/759/580
f 387/773/584 350/774/584 386/775/584
f 288/776/585 348/777/586 347/778/585
f 387/773/587 351/779/587 350/774/587
f 387/773/588 347/778/588 351/779/588
f 347/778/589 372/780/589 351/779/589
f 347/778/590 373/781/590 372/780/590
f 387/773/591 288/776/585 347/778/585
f 375/782/592 359/783/592 376/784/592
f 375/782/593 357/785/594 359/783/595
f 355/786/596 357/785/597 358/787/598
f 355/786/596 289/788/599 357/785/597
f 371/789/600 289/788/600 370/790/600
f 371/789/601 354/791/601 289/788/601
f 354/791/602 357/785/602 289/788/602
f 354/791/603 353/792/603 357/785/603
f 353/792/604 359/783/595 357/785/594
f 353/792/605 303/793/605 359/783/605
f 377/794/606 379/795/606 378/796/606
f 377/794/607 380/797/607 379/795/607
f 412/798/608 290/799/608 369/800/608
f 412/798/609 374/801/609 290/799/609
f 292/802/610 390/757/611 287/768/612
f 292/802/610 291/803/613 390/757/611
f 293/804/614 384/805/614 389/806/614
f 293/804/615 294/807/615 384/805/615
f 291/808/616 388/809/616 392/810/616
f 291/808/617 293/811/617 388/809/617
f 294/812/618 385/813/619 383/814/620
f 294/812/618 292/815/621 385/813/619
f 294/816/622 291/817/622 292/818/622
f 294/816/622 293/819/622 291/817/622
f 358/820/623 296/821/623 298/822/623
f 296/821/624 295/823/624 297/824/624
f 296/821/625 318/825/625 298/822/625
f 296/821/626 297/824/626 318/825/626
f 302/826/627 300/827/628 393/828/629
f 299/829/630 393/828/629 300/827/628
f 301/830/631 300/827/631 303/831/631
f 299/829/630 300/827/628 301/830/632
f 368/832/633 305/833/633 366/834/633
f 368/832/634 304/835/634 305/833/634
f 304/836/635 306/837/635 305/838/635
f 304/836/636 307/839/636 306/837/636
f 356/840/637 306/837/637 307/839/637
f 308/841/638 306/837/638 356/840/638
f 312/842/639 309/843/640 366/844/641
f 315/845/642 309/843/642 313/846/642
f 308/847/643 315/845/644 314/848/645
f 310/849/646 308/847/643 314/848/645
f 310/849/646 306/850/647 308/847/643
f 310/849/646 305/851/648 306/850/647
f 310/849/646 311/852/649 305/851/648
f 311/852/649 366/844/641 305/851/648
f 311/852/649 312/842/639 366/844/641
f 313/846/650 409/853/651 315/845/644
f 314/848/645 315/845/644 409/853/651
f 312/842/639 313/846/652 309/843/640
f 317/854/653 316/855/653 355/856/653
f 317/854/654 319/857/654 316/855/654
f 317/854/655 318/858/655 319/857/655
f 318/858/656 320/859/656 319/857/656
f 323/860/657 319/857/657 320/859/657
f 329/861/658 326/862/659 316/863/660
f 326/862/659 327/864/661 316/863/660
f 327/864/661 324/865/662 316/863/660
f 322/866/663 329/861/658 323/867/664
f 329/861/658 316/863/660 319/868/665
f 325/869/666 328/870/667 324/865/662
f 328/870/667 321/871/668 324/865/662
f 322/866/663 321/871/669 328/870/670
f 322/866/663 323/867/664 321/871/669
f 324/865/662 327/864/661 325/869/666
f 319/868/665 323/867/664 329/861/658
f 354/872/671 332/873/671 331/874/671
f 334/875/672 400/876/673 332/873/674
f 400/876/673 331/874/675 332/873/674
f 400/876/673 333/877/676 331/874/675
f 334/875/672 330/878/677 402/879/678
f 334/875/672 332/873/674 330/878/677
f 335/880/679 331/874/675 333/877/676
f 349/881/680 337/882/680 336/883/680
f 337/882/681 335/884/681 336/883/681
f 338/885/682 335/884/682 337/882/682
f 352/886/683 335/887/683 338/888/683
f 331/889/684 335/887/684 352/886/684
f 339/890/685 376/891/685 360/892/685
f 342/893/686 339/890/687 341/894/688
f 345/895/689 344/896/690 360/892/691
f 344/896/690 340/897/692 360/892/691
f 340/897/692 339/890/687 360/892/691
f 340/897/692 341/894/688 339/890/687
f 361/898/693 346/899/693 360/900/693
f 347/778/694 349/901/694 336/902/694
f 347/778/695 348/777/695 349/901/695
f 320/903/696 350/774/696 323/904/696
f 350/774/697 351/779/697 323/904/697
f 352/905/698 354/906/698 331/907/698
f 352/905/699 353/908/699 354/906/699
f 316/855/700 289/909/700 355/856/700
f 356/910/701 358/787/701 308/911/701
f 358/787/702 357/785/702 308/911/702
f 360/912/703 359/783/703 303/793/703
f 361/913/704 360/912/704 303/793/704
f 362/914/705 363/769/705 343/915/705
f 363/769/706 364/767/706 343/915/706
f 366/916/707 365/759/707 367/758/707
f 367/758/708 368/917/708 366/916/708
f 369/800/709 370/918/709 412/798/709
f 369/800/710 371/919/710 370/918/710
f 373/781/711 374/920/711 372/780/711
f 373/781/712 290/921/712 374/920/712
f 376/784/713 377/922/713 375/782/713
f 377/922/714 378/923/714 375/782/714
f 380/797/715 382/924/715 379/795/715
f 380/797/716 381/925/716 382/924/716
f 383/814/717 384/926/717 294/812/717
f 388/809/718 293/811/718 389/927/718
f 385/813/719 292/815/719 287/928/719
f 390/929/720 291/808/720 392/810/720
f 384/930/721 383/931/721 288/776/721
f 383/814/722 286/932/722 288/933/722
f 383/814/723 385/813/723 286/932/723
f 384/930/724 288/776/724 387/773/724
f 389/934/725 384/930/725 387/773/725
f 385/935/726 287/936/726 286/937/726
f 388/938/727 387/773/727 386/775/727
f 388/938/728 389/934/728 387/773/728
f 391/939/729 388/809/729 386/940/729
f 391/939/730 392/810/730 388/809/730
f 392/941/731 391/942/731 390/943/731
f 350/774/732 320/903/732 297/944/732
f 297/824/733 320/945/733 318/825/733
f 317/854/734 298/946/734 318/858/734
f 298/822/735 317/947/735 355/948/735
f 297/824/736 386/940/736 350/949/736
f 358/820/737 298/822/737 355/948/737
f 386/940/738 295/823/738 391/939/738
f 386/940/739 297/824/739 295/823/739
f 307/950/740 358/951/740 356/952/740
f 307/953/741 296/954/741 358/955/741
f 307/956/742 304/957/742 296/958/742
f 304/835/743 368/832/743 296/959/743
f 295/823/744 296/821/744 368/960/744
f 391/939/745 295/823/745 367/961/745
f 368/917/746 367/758/746 295/962/746
f 286/932/747 363/963/747 302/826/747
f 286/932/748 393/828/748 288/933/748
f 286/932/749 302/826/749 393/828/749
f 363/769/750 362/914/750 302/964/750
f 362/965/751 300/827/752 302/826/753
f 346/966/754 300/827/752 362/965/751
f 346/966/755 361/967/755 300/827/755
f 361/967/756 303/831/756 300/827/756
f 288/933/757 393/828/757 348/968/757
f 349/901/758 348/777/758 393/969/758
f 301/830/759 303/831/759 353/970/759
f 338/971/760 301/972/760 352/973/760
f 338/974/761 299/975/761 301/976/761
f 337/977/762 299/978/762 338/979/762
f 337/882/763 349/881/763 299/980/763
f 349/981/764 393/828/764 299/829/764
f 353/908/765 352/905/765 301/982/765
f 399/983/766 394/984/766 327/985/766
f 394/984/767 325/986/767 327/985/767
f 394/984/768 328/987/768 325/986/768
f 394/984/769 395/988/769 328/987/769
f 395/989/770 322/990/770 328/991/770
f 395/989/771 396/992/771 322/990/771
f 396/993/772 329/994/772 322/995/772
f 396/993/773 397/996/773 329/994/773
f 397/996/774 398/997/774 329/994/774
f 398/997/775 326/998/775 329/994/775
f 398/999/776 399/1000/776 326/1001/776
f 399/1000/777 327/1002/777 326/1001/777
f 394/1003/778 399/1004/779 395/1005/780
f 396/1006/781 395/1005/780 399/1004/779
f 397/1007/782 396/1006/781 399/1004/779
f 398/1008/783 397/1007/782 399/1004/779
f 334/1009/784 403/1010/784 401/1011/784
f 334/1009/785 402/1012/785 403/1010/785
f 404/1013/786 310/1014/786 314/1015/786
f 404/1013/787 405/1016/787 310/1014/787
f 405/1016/788 410/1017/788 310/1014/788
f 410/1017/789 311/1018/789 310/1014/789
f 410/1019/790 406/1020/790 311/1021/790
f 406/1020/791 312/1022/791 311/1021/791
f 406/1023/792 407/1024/792 312/1025/792
f 407/1024/793 313/1026/793 312/1025/793
f 407/1024/794 408/1027/794 313/1026/794
f 408/1028/795 409/1029/795 313/1030/795
f 408/1028/796 411/1031/796 409/1029/796
f 411/1031/797 314/1032/797 409/1029/797
f 411/1031/798 404/1033/798 314/1032/798
f 405/1034/799 404/1035/800 410/1036/801
f 406/1037/802 410/1036/801 404/1035/800
f 407/1038/803 406/1037/802 404/1035/800
f 407/1038/803 404/1035/800 408/1039/804
f 408/1039/804 404/1035/800 411/1040/805
f 382/1041/806 365/1042/806 309/843/806
f 365/1042/807 366/844/807 309/843/807
f 379/795/808 382/924/808 309/1043/808
f 378/1044/809 309/843/809 315/845/809
f 378/1044/810 379/1045/810 309/843/810
f 375/782/811 378/923/811 315/1046/811
f 308/847/812 375/1047/812 315/845/812
f 308/847/813 357/1048/813 375/1047/813
f 343/1049/814 364/1050/814 381/1051/814
f 343/1049/815 381/1051/815 342/1052/815
f 381/925/816 380/797/816 342/1053/816
f 339/890/817 380/1054/817 377/1055/817
f 339/890/818 342/893/818 380/1054/818
f 377/1055/819 376/891/819 339/890/819
f 359/1056/820 360/892/820 376/891/820
f 373/1057/821 347/1058/821 330/1059/821
f 347/1058/822 336/1060/822 330/1059/822
f 290/921/823 373/781/823 330/1061/823
f 369/1062/824 330/878/824 332/873/824
f 369/1062/825 290/1063/825 330/878/825
f 371/919/826 369/800/826 332/1064/826
f 354/872/827 371/1065/827 332/873/827
f 323/867/828 372/1066/828 321/871/828
f 323/867/829 351/1067/829 372/1066/829
f 372/780/830 374/920/830 321/1068/830
f 324/865/831 374/1069/831 412/1070/831
f 324/865/832 321/871/832 374/1069/832
f 412/798/833 370/918/833 324/1071/833
f 370/1072/834 289/1073/834 324/865/834
f 289/1073/835 316/863/835 324/865/835
f 1/1074/836 3/1075/836 10/1076/836
f 3/1077/837 1/1078/837 6/1079/837
f 19/1080/838 20/1081/838 18/1082/838 17/1083/838
f 21/1084/839 22/1085/839 20/1086/839 19/1087/839
f 24/1088/840 22/1089/840 21/1090/840 23/1091/840
f 17/1092/841 18/1093/841 24/1094/841 23/1095/841
f 20/1096/842 22/1097/842 24/1098/842 18/1099/842
f 21/1100/843 19/1101/843 17/1102/843 23/1103/843
l 4 5
l 5 7
l 12 13
l 15 16
l 15 14
l 2 4
l 7 8
l 8 9
l 11 2
