# Blender 5.1.1
# www.blender.org
mtllib mano.mtl
o mano
v -14.563697 130.116531 -9.680844
v -14.424837 130.016388 -9.996678
v -14.292500 130.001465 -10.257456
v -14.289449 129.991470 -10.633959
v -13.979192 130.407593 -10.507915
v -14.393169 130.481049 -10.772278
v -13.324590 131.290085 -10.193925
v -13.281898 131.231842 -10.098444
v -13.187168 131.260559 -10.250712
v -13.180361 131.054504 -10.184427
v -13.131207 131.154404 -10.221539
v -13.207065 131.078003 -10.097849
v -13.378839 131.110077 -10.071841
v -13.661000 130.895905 -10.578888
v -13.351402 131.243317 -10.321198
v -13.620970 130.804169 -10.271675
v -13.684405 131.043991 -10.534923
v -13.586672 130.785950 -10.505292
v -13.729457 130.936554 -10.269249
v -13.752141 131.059509 -10.321018
v -13.827424 131.038681 -10.459833
v -13.956857 131.307831 -9.820878
v -13.813152 131.200562 -10.282730
v -13.947861 130.915909 -10.279416
v -13.844141 130.918274 -10.308139
v -13.817308 130.984344 -10.543440
v -13.935966 130.971863 -10.387186
v -13.862896 130.988007 -10.362095
v -14.458954 130.772125 -9.549947
v -14.393465 131.272385 -9.289251
v -13.740516 130.762161 -10.324460
v -13.627584 130.720566 -10.420532
v -13.903560 130.636383 -10.306111
v -14.048353 130.441376 -10.283849
v -13.812073 130.686310 -10.633583
v -14.519497 131.510406 -9.230689
v -14.766289 130.998810 -9.294935
v -14.485144 131.349625 -9.214809
v -14.662444 131.407333 -9.410668
v -13.815060 131.272614 -10.118334
v -14.068394 131.529694 -10.344194
v -14.002152 131.283478 -10.432226
v -14.184509 131.707184 -9.964862
v -14.272339 131.732086 -9.638527
v -14.290206 131.675034 -9.788638
v -14.814390 131.129517 -9.509686
v -14.671338 130.839233 -10.561680
v -13.983309 130.907410 -10.587037
v -14.197268 130.712021 -10.776173
v -14.861985 130.956100 -10.175806
v -14.722437 131.259567 -9.768586
v -14.421926 130.491180 -9.830647
v -14.556323 130.438049 -9.570260
v -14.800071 130.406036 -9.369973
v -15.053410 130.582932 -9.457315
v -15.092606 130.825409 -9.796254
v -13.406151 131.841919 -9.840457
v -13.194407 131.891693 -9.851090
v -13.153727 131.935120 -9.950853
v -13.129915 132.054672 -10.033623
v -13.199734 132.130951 -10.026771
v -13.300682 132.191086 -9.958395
v -13.341799 132.181381 -9.835070
v -13.490337 131.708130 -10.195686
v -13.455070 131.656952 -10.091068
v -13.345638 132.038971 -9.767517
v -13.529690 131.844467 -10.179060
v -13.013763 132.290054 -9.808002
v -13.073557 132.276855 -9.698884
v -13.028503 132.230804 -9.644941
v -13.026291 132.110977 -9.659618
v -12.970486 132.054016 -9.746472
v -12.918624 132.089417 -9.851989
v -12.925212 132.150787 -9.927954
v -12.975113 132.227539 -9.918753
v -12.888859 132.251556 -9.792184
v -13.891106 131.202576 -10.391129
v -13.975801 131.686600 -10.111338
v -13.774865 131.475739 -10.000679
v -13.664351 131.957672 -9.988594
v -13.618332 131.979218 -10.105557
v -13.478188 131.659119 -9.988227
v -13.354324 132.231613 -9.320420
v -13.264645 132.129074 -9.329447
v -13.197211 132.096588 -9.459753
v -13.215405 132.353134 -9.570991
v -13.365789 132.362991 -9.512349
v -13.362243 132.334091 -9.371596
v -13.057382 132.287186 -9.202297
v -12.991030 132.220108 -9.333262
v -13.052875 132.486526 -9.342136
v -13.965939 131.686951 -10.052982
v -13.872396 131.646591 -10.013567
v -14.124684 131.676971 -9.702509
v -13.890188 131.510559 -9.681072
v -13.776683 131.913940 -9.866902
v -13.013165 132.276215 -9.490690
v -13.052281 132.347870 -9.544637
v -13.048880 132.439499 -9.167166
v -12.900244 132.446686 -9.395163
v -13.782009 132.040558 -9.603456
v -13.771862 132.080994 -9.734235
v -13.687155 131.813828 -9.890931
v -13.544882 131.859177 -9.786304
v -13.562277 131.792435 -9.660610
v -13.639894 131.809525 -9.532256
v -13.987267 131.680679 -9.664639
v -14.073580 131.734650 -9.753450
v -13.778604 131.567062 -9.907826
v -13.756373 131.551056 -9.760145
v -14.176285 131.214691 -10.512974
v -13.462635 132.034332 -9.129518
v -13.420435 132.075073 -9.232388
v -13.264807 132.220596 -9.175145
v -13.260288 132.340012 -9.148897
v -13.586957 132.270828 -9.205736
v -13.588808 132.239700 -9.041740
v -13.540747 132.055939 -9.043409
v -13.326262 132.135010 -8.964181
v -13.298702 132.391418 -8.999168
v -13.968081 131.459946 -9.600264
v -14.156965 131.445251 -9.402164
v -14.099524 131.331512 -9.561623
v -14.045898 131.680908 -9.289911
v -13.786366 131.740601 -9.335143
v -13.961441 131.946442 -9.274005
v -13.978564 131.999603 -9.454964
v -13.956884 131.654404 -9.297677
v -13.838199 131.955658 -9.164478
v -14.007795 131.613419 -9.650181
v -13.852995 131.965088 -9.525878
v -13.173464 132.247681 -9.060530
v -13.344131 132.364624 -8.901159
v -13.309401 132.310715 -8.855890
v -13.161812 132.330536 -9.036716
v -13.795876 131.874207 -8.883075
v -13.649611 132.081284 -8.931188
v -13.998163 132.027115 -8.897663
v -13.825869 132.064865 -8.742433
v -13.666719 132.136139 -8.884627
v -13.900674 132.030029 -9.094402
v -14.085782 131.620285 -9.083497
v -13.873873 131.935440 -8.809813
v -13.784478 131.913223 -9.006042
v -14.246426 131.609360 -9.433113
v -14.417109 131.588242 -9.473507
v -14.204704 131.510376 -9.366547
v -14.290628 131.319138 -9.324065
v -14.528236 131.568588 -9.379728
v -13.990040 131.827805 -9.217106
v -14.090321 131.634338 -9.230351
v -14.188655 131.613251 -9.037260
v -14.259275 131.698349 -9.039005
v -14.273479 131.815475 -9.094507
v -14.147928 131.825455 -9.279207
v -13.751297 132.142868 -8.864465
v -13.726233 132.058548 -8.743378
v -13.851821 131.657410 -9.492847
v -14.025162 132.035721 -9.052144
v -14.270996 131.857407 -9.224041
v -14.225227 130.274536 -10.729021
vn 0.7318 -0.5936 -0.3348
vn 0.5124 -0.2336 -0.8264
vn 0.8072 -0.5810 -0.1040
vn 0.9627 0.2027 -0.1795
vn 0.4649 -0.4161 0.7815
vn 0.7186 -0.6951 0.0216
vn 0.3423 0.1441 -0.9285
vn 0.5636 0.7251 -0.3957
vn 0.5344 -0.8427 0.0653
vn -0.2401 0.0067 0.9707
vn -0.0128 -0.6782 0.7347
vn -0.0193 0.5878 -0.8088
vn 0.0424 0.7563 -0.6528
vn 0.6375 -0.5316 -0.5577
vn -0.4418 0.0291 0.8966
vn 0.1337 -0.4580 0.8788
vn -0.2412 0.7228 -0.6476
vn 0.4911 -0.3774 -0.7851
vn -0.0193 0.2450 -0.9693
vn 0.8209 -0.2556 0.5107
vn 0.8774 -0.4643 -0.1210
vn 0.7380 -0.3637 0.5684
vn 0.7859 -0.4108 0.4623
vn 0.3426 -0.3506 0.8716
vn 0.7422 -0.5324 0.4070
vn 0.6305 -0.6860 0.3631
vn 0.7099 -0.4172 0.5675
vn 0.7160 -0.1969 0.6698
vn 0.7622 0.6191 -0.1892
vn 0.6810 -0.0366 -0.7313
vn -0.7188 0.3056 0.6244
vn -0.8435 0.5265 0.1060
vn -0.5843 0.0467 0.8102
vn -0.5089 0.8073 -0.2989
vn -0.3195 0.9469 -0.0363
vn -0.2744 0.5805 -0.7666
vn 0.3140 -0.5587 0.7676
vn -0.0659 -0.2783 0.9582
vn 0.7497 -0.2438 0.6153
vn 0.0361 -0.3369 0.9409
vn -0.8471 0.4679 0.2520
vn -0.7404 0.6572 -0.1409
vn -0.8003 0.5860 0.1269
vn 0.6592 -0.5029 0.5591
vn 0.4859 -0.1560 -0.8600
vn 0.0578 0.5597 -0.8267
vn 0.3743 0.6752 -0.6356
vn -0.2646 0.8714 -0.4132
vn -0.5616 0.7286 0.3920
vn -0.2082 0.8675 0.4518
vn -0.4554 0.0383 0.8894
vn 0.4878 -0.1471 -0.8605
vn 0.6886 -0.6682 -0.2817
vn 0.7463 -0.6377 -0.1905
vn 0.4646 -0.8090 0.3602
vn -0.0488 -0.4613 0.8859
vn 0.5474 -0.7312 0.4070
vn -0.6758 0.6417 0.3627
vn 0.1546 0.3758 -0.9137
vn -0.4138 0.7194 -0.5579
vn 0.0617 0.9981 0.0006
vn 0.7835 -0.0597 -0.6186
vn 0.7998 0.4903 0.3463
vn 0.0506 0.9948 -0.0883
vn 0.8751 -0.4794 -0.0660
vn 0.3550 0.2629 -0.8971
vn 0.1167 0.8557 -0.5042
vn 0.0223 -0.6299 0.7764
vn 0.7403 -0.6390 0.2088
vn 0.3198 -0.3482 0.8812
vn 0.9113 -0.3360 -0.2380
vn -0.2768 0.1421 0.9504
vn -0.5816 0.6962 0.4208
vn -0.2494 0.9597 0.1292
vn -0.5274 0.8286 -0.1878
vn 0.7305 -0.6432 0.2295
vn 0.7766 -0.4502 0.4407
vn -0.5905 0.6165 0.5208
vn -0.3783 0.8852 -0.2707
vn -0.5036 0.7990 -0.3286
vn -0.4540 0.0324 0.8904
vn 0.1413 -0.6027 0.7854
vn 0.5588 -0.8264 0.0697
vn 0.4767 0.3629 -0.8006
vn 0.0897 0.5340 -0.8407
vn -0.0204 0.6666 -0.7451
vn -0.6901 0.5337 0.4888
vn 0.4606 0.0904 -0.8830
vn 0.0394 0.4653 0.8843
vn 0.8365 0.4145 -0.3583
vn -0.0385 0.9984 -0.0407
vn 0.7638 -0.4099 -0.4986
vn 0.6646 -0.7401 0.1028
vn -0.3948 0.5775 -0.7146
vn -0.6246 0.6970 -0.3522
vn 0.2146 0.5131 -0.8311
vn -0.0344 0.5565 -0.8302
vn 0.9622 0.2526 0.1016
vn 0.0740 -0.6699 0.7387
vn -0.5009 0.0332 0.8649
vn 0.1164 -0.5824 0.8045
vn 0.7075 -0.6981 -0.1101
vn 0.8168 -0.4640 -0.3428
vn -0.3428 0.9034 -0.2576
vn 0.1698 0.4773 -0.8622
vn -0.4880 0.7909 -0.3692
vn 0.3600 0.6457 -0.6734
vn 0.9065 0.4221 -0.0066
vn 0.5769 -0.2013 -0.7916
vn 0.3494 -0.7249 0.5936
vn 0.8898 -0.4512 -0.0684
vn 0.1069 0.1502 0.9829
vn 0.0519 0.9930 0.1063
vn 0.1258 0.6975 -0.7055
vn 0.9095 0.0789 -0.4082
vn 0.5988 -0.0394 -0.7999
vn -0.0869 0.9849 0.1495
vn -0.4309 0.8745 -0.2226
vn -0.6760 0.5833 0.4503
vn 0.5429 -0.7478 0.3821
vn 0.7935 -0.4801 -0.3738
vn 0.5501 0.8252 0.1282
vn -0.3218 0.2915 0.9008
vn -0.5006 0.2704 0.8223
vn -0.5062 0.8096 -0.2972
vn -0.2313 0.9659 -0.1166
vn 0.9733 0.0989 -0.2072
vn 0.6261 -0.5379 0.5645
vn 0.5371 -0.3402 0.7719
vn 0.0064 -0.5591 0.8291
vn 0.0977 0.5125 -0.8531
vn -0.5754 0.7731 -0.2669
vn 0.5815 0.1031 0.8070
vn -0.0563 -0.5043 0.8617
vn -0.4534 -0.0420 0.8903
vn -0.6734 0.5260 0.5195
vn 0.5846 -0.7536 0.3005
vn 0.6852 -0.5605 0.4652
vn 0.5512 -0.7733 0.3133
vn -0.7675 0.4379 0.4682
vn 0.2215 0.3150 0.9229
vn 0.2838 -0.3626 0.8877
vn 0.3697 0.3064 0.8772
vn -0.0865 0.3120 0.9461
vn 0.7802 -0.5754 0.2455
vn 0.7116 -0.4877 0.5058
vn 0.1163 0.5917 0.7977
vn -0.0729 0.9743 0.2131
vn -0.4719 0.8600 -0.1942
vn -0.5832 0.6303 0.5125
vn -0.3858 0.7462 0.5426
vn -0.6863 0.7270 -0.0220
vn 0.1092 0.1089 -0.9880
vn -0.6192 0.1307 0.7743
vn 0.6474 -0.6223 0.4400
vn 0.7860 -0.3326 -0.5212
vn 0.5117 -0.8322 0.2135
vn -0.6062 0.5474 0.5769
vn -0.1731 0.7330 0.6578
vn 0.7988 -0.5261 -0.2918
vn -0.5395 -0.0489 0.8406
vt 0.492500 0.232000
vt 0.488286 0.227192
vt 0.497212 0.221919
vt 0.487123 0.192938
vt 0.489265 0.195397
vt 0.487533 0.195769
vt 0.489630 0.189763
vt 0.509192 0.192035
vt 0.492014 0.190564
vt 0.495605 0.208340
vt 0.493120 0.197066
vt 0.496736 0.204243
vt 0.505778 0.194804
vt 0.496531 0.191148
vt 0.491143 0.208551
vt 0.501711 0.202964
vt 0.501777 0.209086
vt 0.512342 0.198243
vt 0.492112 0.214373
vt 0.509162 0.187971
vt 0.513063 0.189763
vt 0.518790 0.186522
vt 0.518814 0.234943
vt 0.534901 0.206604
vt 0.528851 0.238832
vt 0.505333 0.221918
vt 0.504775 0.216059
vt 0.541743 0.219125
vt 0.538925 0.210417
vt 0.547275 0.211578
vt 0.518852 0.209286
vt 0.523164 0.203855
vt 0.532258 0.200875
vt 0.545928 0.258525
vt 0.538597 0.267070
vt 0.530807 0.258299
vt 0.532335 0.293284
vt 0.525400 0.295900
vt 0.523660 0.292161
vt 0.542844 0.246072
vt 0.543167 0.253468
vt 0.519800 0.243900
vt 0.517705 0.252074
vt 0.528992 0.267370
vt 0.527853 0.275008
vt 0.513788 0.266584
vt 0.511100 0.244100
vt 0.566763 0.185413
vt 0.564919 0.183407
vt 0.569445 0.179641
vt 0.563045 0.180718
vt 0.562048 0.176937
vt 0.568812 0.174498
vt 0.559811 0.174429
vt 0.552575 0.196949
vt 0.568220 0.187476
vt 0.555123 0.198886
vt 0.570638 0.189665
vt 0.567306 0.197228
vt 0.558069 0.200684
vt 0.552111 0.183260
vt 0.553478 0.192045
vt 0.553413 0.187940
vt 0.542708 0.182272
vt 0.570851 0.181049
vt 0.573326 0.177767
vt 0.569930 0.176956
vt 0.572743 0.181508
vt 0.538105 0.190699
vt 0.532776 0.196797
vt 0.541847 0.185261
vt 0.541300 0.182900
vt 0.534779 0.331040
vt 0.534649 0.339299
vt 0.530924 0.337978
vt 0.552683 0.213529
vt 0.548700 0.214500
vt 0.542254 0.299421
vt 0.539345 0.296249
vt 0.541959 0.293025
vt 0.539078 0.289224
vt 0.548400 0.218600
vt 0.549756 0.225998
vt 0.528512 0.327831
vt 0.525778 0.324902
vt 0.530307 0.311017
vt 0.531677 0.328749
vt 0.539896 0.317354
vt 0.538570 0.332507
vt 0.520123 0.332914
vt 0.527002 0.305623
vt 0.522121 0.327992
vt 0.533513 0.313321
vt 0.523751 0.304602
vt 0.528145 0.338919
vt 0.522397 0.338927
vt 0.524584 0.337418
vt 0.551947 0.315054
vt 0.547336 0.320523
vt 0.554877 0.308006
vt 0.543897 0.318849
vt 0.550701 0.306751
vt 0.524797 0.297782
vt 0.506491 0.288098
vt 0.511896 0.278122
vt 0.519474 0.197090
vt 0.530425 0.189974
vt 0.543717 0.295616
vt 0.574990 0.296509
vt 0.565581 0.291576
vt 0.560839 0.280713
vt 0.561473 0.310266
vt 0.547985 0.299244
vt 0.567077 0.302702
vt 0.554122 0.296142
vt 0.555571 0.291747
vt 0.572186 0.310609
vt 0.575380 0.312816
vt 0.569061 0.311426
vt 0.580364 0.303427
vt 0.583915 0.305516
vt 0.578770 0.307985
vt 0.575819 0.310141
vt 0.569394 0.260606
vt 0.579396 0.258483
vt 0.563097 0.266245
vt 0.578315 0.255306
vt 0.566836 0.258180
vt 0.569557 0.255067
vt 0.573860 0.249099
vt 0.572917 0.245038
vt 0.580258 0.251030
vt 0.579476 0.256294
vt 0.576045 0.253590
vt 0.552592 0.275732
vt 0.545184 0.284078
vt 0.548066 0.272729
vt 0.554776 0.272151
vt 0.549600 0.239100
vt 0.545278 0.241319
vt 0.549453 0.235459
vt 0.555136 0.249613
vt 0.557742 0.264487
vt 0.556451 0.260942
vt 0.577821 0.253508
vt 0.573163 0.251666
vt 0.556783 0.280661
vt 0.560316 0.290293
vt 0.566985 0.277803
vt 0.567266 0.283442
vt 0.561485 0.272972
vt 0.556381 0.246477
vt 0.556273 0.256409
vt 0.547832 0.301905
vt 0.547500 0.299100
vt 0.574710 0.194462
vt 0.577602 0.183495
vt 0.578995 0.182468
vt 0.509881 0.207295
vt 0.501200 0.235400
vt 0.506338 0.240097
vt 0.492106 0.193677
vt 0.494193 0.192493
vt 0.510176 0.200698
vt 0.503657 0.200194
vt 0.544400 0.229609
vt 0.511214 0.204215
vt 0.545790 0.266071
vt 0.505791 0.178380
vt 0.514172 0.176416
vt 0.520233 0.258885
vt 0.574786 0.182610
vt 0.570216 0.172956
vt 0.550200 0.223100
vt 0.538107 0.339930
vt 0.540285 0.340855
vt 0.534249 0.344133
vt 0.522465 0.299015
vt 0.556400 0.310900
vt 0.525982 0.174376
vt 0.580191 0.292809
vt 0.578061 0.294730
vt 0.570514 0.301632
vt 0.576921 0.308321
vt 0.572826 0.314552
vt 0.583227 0.308534
vt 0.574919 0.264786
vt 0.556700 0.273900
vt 0.559142 0.270814
vt 0.554750 0.242512
vt 0.555073 0.252950
vt 0.565500 0.272000
s 1
g mano_rp_eric_rigged_001_mat.011
usemtl rp_eric_rigged_001_mat.011
f 4/1/1 161/2/2 5/3/3
f 11/4/4 12/5/5 10/6/6
f 11/7/4 14/8/7 9/9/8
f 11/4/4 10/6/6 32/10/9
f 12/5/5 13/11/10 16/12/11
f 14/8/7 17/13/12 15/14/13
f 11/4/4 32/10/9 18/15/14
f 16/12/11 19/16/15 31/17/16
f 26/18/17 17/13/12 14/8/7
f 18/15/14 32/10/9 35/19/18
f 14/8/7 18/20/14 35/21/18
f 14/8/7 35/21/18 49/22/19
f 52/23/20 23/24/21 29/25/22
f 5/3/3 35/19/18 32/10/9
f 34/26/23 5/3/3 33/27/24
f 22/28/25 40/29/26 79/30/27
f 24/31/28 27/32/29 23/24/21
f 27/32/29 77/33/30 23/24/21
f 36/34/31 39/35/32 37/36/33
f 43/37/34 78/38/35 41/39/36
f 30/40/37 38/41/38 29/25/22
f 52/23/20 34/26/23 24/31/28
f 29/25/22 53/42/39 52/23/20
f 29/25/22 54/43/40 53/42/39
f 38/41/38 37/36/33 54/43/40
f 46/44/41 51/45/42 56/46/43
f 53/42/39 54/43/40 1/47/44
f 60/48/45 61/49/46 75/50/47
f 61/49/46 62/51/48 75/50/47
f 62/51/48 63/52/49 69/53/50
f 66/54/51 69/53/50 63/52/49
f 64/55/52 59/56/53 65/57/54
f 58/58/55 57/59/56 82/60/57
f 66/54/51 63/52/49 80/61/58
f 62/51/48 67/62/59 81/63/60
f 80/61/58 93/64/61 66/54/51
f 74/65/62 75/50/47 76/66/63
f 68/67/64 76/66/63 75/50/47
f 76/66/63 73/68/65 74/65/62
f 41/69/36 67/62/59 42/70/66
f 40/29/26 23/24/21 82/60/57
f 93/64/61 78/71/35 92/72/67
f 82/60/57 79/30/27 40/29/26
f 67/62/59 41/69/36 81/63/60
f 67/62/59 64/55/52 77/33/30
f 65/57/54 82/60/57 23/24/21
f 84/73/68 90/74/69 89/75/70
f 93/76/61 109/77/71 79/30/27
f 107/78/72 108/79/73 94/80/74
f 108/79/73 45/81/75 94/80/74
f 108/79/73 43/37/34 45/81/75
f 110/82/76 121/83/77 22/28/25
f 88/84/78 87/85/79 102/86/80
f 84/73/68 83/87/81 106/88/82
f 106/88/82 85/89/83 84/73/68
f 98/90/84 96/91/85 86/92/86
f 102/86/80 101/93/87 88/84/78
f 96/91/85 98/90/84 103/94/88
f 107/78/72 106/88/82 83/87/81
f 99/95/89 100/96/90 91/97/91
f 103/98/88 104/99/92 109/100/71
f 105/101/93 106/88/82 110/102/76
f 43/37/34 96/91/85 92/103/67
f 47/104/94 50/105/95 43/37/34
f 48/106/96 42/70/66 77/33/30
f 48/106/96 49/22/19 111/107/97
f 111/107/97 42/70/66 48/106/96
f 94/80/74 130/108/98 107/78/72
f 118/109/99 129/110/100 128/111/101
f 130/108/98 113/112/102 158/113/103
f 116/114/104 131/115/105 127/116/106
f 115/117/107 135/118/108 114/119/109
f 119/120/110 132/121/111 134/122/112
f 135/118/108 115/117/107 120/123/113
f 141/124/114 137/125/115 150/126/116
f 156/127/117 141/124/114 159/128/118
f 138/129/119 156/127/117 159/128/118
f 136/130/120 144/131/121 137/132/115
f 137/125/115 141/124/114 140/133/122
f 156/127/117 138/129/119 139/134/123
f 145/135/124 44/136/125 146/137/126
f 45/81/75 146/137/126 44/136/125
f 146/137/126 147/138/127 145/135/124
f 147/139/127 148/140/128 122/141/129
f 152/142/130 38/41/38 30/40/37
f 159/128/118 155/143/131 160/144/132
f 147/138/127 155/143/131 150/126/116
f 157/145/133 143/146/134 136/130/120
f 124/147/135 128/111/101 129/110/100
f 126/148/136 127/116/106 145/135/124
f 158/149/103 125/150/137 123/151/138
f 113/112/102 130/108/98 114/119/109
f 136/130/120 143/146/134 142/152/139
f 138/129/119 159/128/118 154/153/140
f 83/87/81 99/95/89 88/84/78
f 95/154/141 110/102/76 106/88/82
f 107/78/72 101/93/87 108/79/73
f 121/155/77 130/108/98 158/113/103
f 155/143/131 147/138/127 146/137/126
f 142/152/139 152/142/130 148/140/128
f 59/56/53 64/55/52 60/48/45
f 68/67/64 75/50/47 62/51/48
f 60/48/45 75/50/47 74/65/62
f 73/68/65 60/48/45 74/65/62
f 66/156/51 71/157/142 70/158/143
f 81/63/60 78/71/35 80/61/58
f 19/16/15 16/12/11 13/11/10
f 25/159/144 31/17/16 19/16/15
f 54/43/40 29/25/22 38/41/38
f 5/3/3 34/26/23 3/160/145 4/1/1
f 2/161/146 3/160/145 34/26/23
f 8/162/147 11/7/4 9/9/8 7/163/148
f 9/9/8 15/14/13 7/163/148
f 12/5/5 16/12/11 32/10/9 10/6/6
f 13/11/10 12/5/5 8/162/147
f 12/5/5 11/7/4 8/162/147
f 9/9/8 14/8/7 15/14/13
f 15/14/13 17/13/12 21/164/149 7/163/148
f 8/162/147 20/165/150 13/11/10
f 20/165/150 8/162/147 7/163/148
f 22/28/25 123/166/138 29/25/22 23/24/21
f 11/7/4 18/20/14 14/8/7
f 7/163/148 21/164/149 20/165/150
f 27/32/29 21/164/149 26/18/17 48/106/96
f 20/165/150 28/167/151 19/16/15
f 32/10/9 16/12/11 31/17/16
f 21/164/149 28/167/151 20/165/150
f 21/164/149 17/13/12 26/18/17
f 27/32/29 24/31/28 28/167/151 21/164/149
f 29/25/22 123/166/138 122/141/129 148/140/128
f 25/159/144 28/167/151 24/31/28
f 31/17/16 25/159/144 24/31/28 33/27/24
f 30/40/37 29/25/22 148/140/128
f 32/10/9 31/17/16 33/27/24 5/3/3
f 24/31/28 34/26/23 33/27/24
f 49/22/19 48/106/96 26/18/17 14/8/7
f 38/41/38 36/34/31 37/36/33
f 36/34/31 149/168/152 39/35/32
f 27/32/29 48/106/96 77/33/30
f 40/29/26 22/28/25 23/24/21
f 23/24/21 52/23/20 24/31/28
f 39/35/32 46/44/41 37/36/33
f 45/81/75 43/37/34 51/45/42
f 51/45/42 46/44/41 39/35/32
f 41/39/36 47/104/94 43/37/34
f 49/22/19 35/21/18 161/169/2 6/170/153
f 5/3/3 161/2/2 35/19/18
f 46/44/41 56/46/43 55/171/154 37/36/33
f 43/37/34 50/105/95 51/45/42
f 54/43/40 37/36/33 55/171/154
f 1/47/44 2/161/146 52/23/20 53/42/39
f 50/105/95 56/46/43 51/45/42
f 2/161/146 34/26/23 52/23/20
f 72/172/155 71/157/142 57/59/56 58/58/55
f 66/156/51 57/59/56 71/157/142
f 59/56/53 73/68/65 72/172/155 58/58/55
f 62/51/48 81/63/60 80/61/58 63/52/49
f 73/68/65 59/56/53 60/48/45
f 58/58/55 82/60/57 65/57/54 59/56/53
f 76/66/63 68/67/64 69/53/50 70/173/143
f 66/156/51 93/76/61 57/59/56
f 70/158/143 71/157/142 72/172/155 76/66/63
f 23/24/21 77/33/30 64/55/52 65/57/54
f 72/172/155 73/68/65 76/66/63
f 42/70/66 67/62/59 77/33/30
f 82/60/57 57/59/56 79/30/27
f 79/30/27 57/59/56 93/76/61
f 81/63/60 41/69/36 78/71/35
f 89/75/70 99/95/89 83/87/81 84/73/68
f 22/28/25 79/30/27 109/77/71 110/82/76
f 92/103/67 78/38/35 43/37/34
f 102/86/80 87/85/79 86/92/86 96/91/85
f 110/82/76 95/174/141 121/83/77
f 83/87/81 88/84/78 101/93/87 107/78/72
f 104/99/92 97/175/156 85/89/83 105/101/93
f 106/88/82 105/101/93 85/89/83
f 103/98/88 98/176/84 97/175/156 104/99/92
f 99/95/89 89/75/70 90/74/69 100/177/90
f 100/177/90 97/175/156 98/176/84
f 100/96/90 98/90/84 86/92/86
f 97/175/156 100/177/90 90/74/69
f 100/96/90 86/92/86 91/97/91
f 105/101/93 110/102/76 109/100/71 104/99/92
f 101/93/87 102/86/80 43/37/34
f 43/37/34 102/86/80 96/91/85
f 93/178/61 92/103/67 96/91/85 103/94/88
f 119/120/110 134/122/112 129/110/100 118/109/99
f 93/179/61 103/98/88 109/100/71
f 49/22/19 6/170/153 47/180/94
f 111/107/97 41/69/36 42/70/66
f 47/180/94 41/69/36 111/107/97
f 111/107/97 49/22/19 47/180/94
f 113/181/102 132/121/111 119/120/110 112/182/157
f 118/109/99 112/182/157 119/120/110
f 117/183/158 129/110/100 134/122/112 133/184/159
f 132/185/111 113/112/102 114/119/109
f 120/123/113 117/183/158 133/184/159
f 130/108/98 121/155/77 95/154/141 107/78/72
f 127/116/106 131/115/105 94/80/74 44/136/125
f 123/166/138 22/28/25 121/83/77
f 44/136/125 94/80/74 45/81/75
f 127/116/106 44/136/125 145/135/124
f 130/108/98 94/80/74 131/115/105
f 125/150/137 112/182/157 118/109/99 128/111/101
f 125/150/137 158/149/103 113/181/102 112/182/157
f 127/116/106 126/148/136 117/183/158 116/114/104
f 134/122/112 135/118/108 120/123/113 133/184/159
f 129/110/100 117/183/158 126/148/136
f 114/119/109 135/118/108 132/185/111
f 132/121/111 135/186/108 134/122/112
f 157/145/133 140/133/122 156/127/117 139/134/123
f 150/126/116 137/125/115 144/187/121
f 140/133/122 141/124/114 156/127/117
f 45/81/75 149/168/152 146/137/126
f 122/188/129 145/135/124 147/138/127
f 148/140/128 152/142/130 30/40/37
f 150/126/116 144/187/121 151/189/160
f 151/190/160 144/131/121 142/152/139
f 154/153/140 159/128/118 160/144/132
f 147/138/127 150/126/116 151/189/160
f 157/145/133 139/134/123 143/146/134
f 157/145/133 136/130/120 137/132/115
f 145/135/124 124/147/135 129/110/100 126/148/136
f 140/133/122 157/145/133 137/132/115
f 128/111/101 123/151/138 125/150/137
f 130/108/98 131/115/105 115/117/107 114/119/109
f 116/114/104 115/117/107 131/115/105
f 153/191/161 152/142/130 143/146/134 139/134/123
f 115/117/107 116/114/104 120/123/113
f 120/123/113 116/114/104 117/183/158
f 136/130/120 142/152/139 144/131/121
f 142/152/139 143/146/134 152/142/130
f 154/153/140 153/191/161 139/134/123 138/129/119
f 88/84/78 99/95/89 91/97/91 87/85/79
f 159/128/118 141/124/114 155/143/131
f 155/143/131 141/124/114 150/126/116
f 84/73/68 85/89/83 90/74/69
f 90/74/69 85/89/83 97/175/156
f 86/92/86 87/85/79 91/97/91
f 122/188/129 128/111/101 124/147/135 145/135/124
f 108/79/73 101/93/87 43/37/34
f 95/154/141 106/88/82 107/78/72
f 123/151/138 121/192/77 158/149/103
f 128/111/101 122/188/129 123/151/138
f 149/168/152 36/34/31 154/153/140 160/144/132
f 146/137/126 149/168/152 160/144/132 155/143/131
f 148/140/128 147/139/127 151/190/160 142/152/139
f 153/191/161 154/153/140 36/34/31 38/41/38
f 152/142/130 153/191/161 38/41/38
f 67/62/59 61/49/46 60/48/45 64/55/52
f 61/49/46 67/62/59 62/51/48
f 149/168/152 45/81/75 51/45/42 39/35/32
f 69/53/50 66/54/51 70/173/143
f 68/67/64 62/51/48 69/53/50
f 80/61/58 78/71/35 93/64/61
f 19/16/15 13/11/10 20/165/150
f 28/167/151 25/159/144 19/16/15
