# Blender 5.1.1
# www.blender.org
mtllib base.mtl
o robotic_arm.002
v -90.236191 116.055748 -45.893730
v -90.236191 116.055748 -44.862610
v -89.205070 116.055748 -44.862610
v -89.205070 116.055748 -45.893730
v -97.818024 114.872238 -50.212719
v -97.818024 115.903358 -50.212719
v -97.818024 114.872238 -44.679470
v -97.818024 115.903358 -44.679470
v -88.969597 114.872238 -44.679470
v -88.969597 115.903358 -44.679470
v -88.969597 114.872238 -50.212719
v -88.969597 115.903358 -50.212719
v -94.729645 116.018227 -46.955894
v -94.201111 116.027824 -47.960060
v -96.217056 116.009392 -48.813412
v -96.304100 116.008751 -48.811306
v -96.440948 116.012527 -49.155071
v -96.211380 116.018929 -48.213394
v -96.358849 116.007553 -48.887772
v -96.274559 116.007767 -48.993511
v -96.204483 116.008217 -48.974976
v -95.514435 116.021378 -48.868732
v -96.334526 116.009354 -48.961979
v -96.507881 116.012543 -49.109974
v -96.252472 116.008591 -46.741901
v -96.190880 116.008041 -46.772434
v -96.237328 116.008034 -46.931473
v -96.358879 116.008682 -46.833630
v -96.511581 116.012527 -46.629353
v -96.325142 116.006172 -46.907768
v -96.440216 116.012527 -46.580009
v -94.102821 116.008057 -46.827335
v -94.012527 116.012520 -46.582623
v -94.131546 116.006798 -46.901863
v -93.942101 116.012527 -47.867836
v -94.293846 116.009361 -46.812473
v -93.950844 116.012512 -46.632023
v -94.232201 116.007713 -46.744164
v -94.196518 116.012421 -46.942505
v -94.279556 116.009590 -46.890678
v -94.107323 116.007988 -48.867500
v -94.285370 116.007133 -48.855663
v -94.168015 116.009193 -48.808727
v -94.009224 116.012520 -49.152191
v -94.296318 116.009735 -48.911758
v -93.949921 116.012527 -49.100323
v -94.228432 116.009071 -48.807751
v -93.950302 115.909424 -46.629032
v -94.248581 115.909393 -48.901382
v -96.515114 115.909409 -49.094418
v -94.020233 115.909416 -46.580639
v -96.454781 115.909424 -49.151859
v -96.239494 115.909401 -46.879272
v -94.158531 115.909409 -46.866154
v -96.511604 115.909409 -46.634979
v -96.225235 115.909424 -48.935791
v -96.212982 115.909355 -46.832535
v -96.448952 115.909424 -46.581497
v -94.216164 115.909416 -48.945187
v -93.949165 115.909447 -49.103683
v -94.018967 115.909416 -49.154892
v -96.220169 115.945518 -46.812450
v -96.311241 115.945496 -46.839584
v -96.222519 115.945518 -46.865917
v -96.276497 115.945518 -46.883507
v -96.196098 115.945465 -46.767323
v -96.172134 115.945496 -46.857685
v -96.215286 115.945511 -46.916904
v -96.165932 116.009148 -46.855350
v -96.320099 116.009300 -46.759106
v -96.304543 115.945496 -46.922039
v -96.214134 115.945511 -48.886044
v -96.234520 115.945496 -48.938793
v -96.296623 115.945503 -48.937218
v -96.310524 115.945496 -48.977249
v -96.209923 115.945518 -48.823097
v -96.165703 115.945488 -48.906628
v -96.162704 116.010460 -48.882740
v -96.233810 115.945511 -48.988575
v -94.191246 115.945442 -48.849937
v -94.148697 115.945496 -48.907532
v -94.252075 115.945450 -48.891426
v -94.205971 115.945511 -48.947937
v -94.293930 115.945496 -48.922211
v -94.113297 115.945496 -48.866440
v -94.262901 115.945480 -48.831467
v -94.176804 115.945503 -48.806911
v -94.118591 116.008949 -48.948601
v -94.255005 116.008377 -48.977013
v -94.169998 115.945496 -46.797997
v -94.152550 115.945480 -46.847168
v -94.245079 115.945496 -46.852951
v -94.232544 115.945557 -46.799461
v -94.197365 115.945557 -46.887409
v -94.243874 115.945518 -46.919552
v -94.107605 115.945488 -46.828331
v -94.143684 115.945480 -46.913738
v -94.293335 115.945457 -46.843445
v -94.136971 116.009392 -46.762558
v -94.216972 116.001274 -46.930359
v -94.978424 116.014885 -49.002865
v -95.481155 116.015640 -49.002510
v -94.947899 116.020729 -48.869614
v -94.979263 116.020424 -48.915833
v -94.654297 116.020439 -48.729767
v -94.402351 116.025185 -47.245331
v -95.864746 116.025414 -48.689434
v -94.303993 116.021149 -47.404312
v -94.240738 116.019592 -47.557552
v -94.582550 116.018494 -47.054142
v -95.683052 116.020050 -48.802341
v -94.943489 116.015793 -46.861641
v -94.200233 116.021065 -47.748646
v -96.052544 116.023041 -48.499664
v -95.065842 116.025696 -46.845703
v -95.334602 116.015327 -46.826099
v -94.427238 116.013245 -47.186226
v -95.572914 116.020683 -46.888008
v -94.836014 116.030495 -46.910637
v -95.820259 116.015083 -47.001343
v -95.354950 116.027237 -46.837948
v -95.764427 116.027214 -46.980240
v -96.241577 116.014702 -47.595581
v -95.927605 116.025459 -47.102951
v -94.805260 116.020668 -48.813614
v -94.479553 116.024956 -48.582127
v -94.474831 116.013855 -48.597511
v -94.318962 116.020592 -48.365150
v -94.242500 116.027222 -48.175213
v -94.192078 116.014938 -48.023388
v -96.163437 116.019066 -47.407459
v -96.041977 116.019592 -47.220184
v -96.250053 116.026009 -47.679668
v -96.278473 116.014214 -47.853958
v -96.138184 116.021355 -48.371353
v -96.262825 116.020493 -47.990410
v -95.919655 116.014694 -48.659725
v -95.483788 116.018631 -48.918736
v -96.170998 116.001755 -48.915440
v -94.176941 116.007637 -48.992474
vn -0.0110 0.9998 -0.0193
vn -0.0016 0.9997 0.0237
vn -0.0140 0.9993 -0.0361
vn -0.0189 0.9998 0.0016
vn -0.0206 0.9998 0.0034
vn -0.0202 0.9998 0.0030
vn -0.0169 0.9999 -0.0034
vn -0.0042 0.9996 -0.0263
vn -0.0183 0.9998 0.0010
vn -0.0657 0.9977 -0.0152
vn -0.0261 0.9996 -0.0130
vn -0.0077 0.9998 -0.0158
vn -0.0326 0.9995 -0.0048
vn 0.0333 0.9994 0.0001
vn -0.0199 0.9986 0.0495
vn -0.0154 0.9978 -0.0643
vn -0.0164 0.9996 -0.0216
vn -0.3429 0.9394 0.0038
vn 0.0274 0.9996 0.0014
vn 0.0080 0.9999 0.0119
vn -0.0081 0.9994 -0.0328
vn -0.0083 0.9994 -0.0340
vn -0.0083 0.9994 -0.0341
vn -0.0120 0.9912 0.1320
vn -0.0078 0.9999 0.0110
vn -0.0108 0.9992 -0.0373
vn 0.0126 0.9999 -0.0094
vn 0.0084 0.9999 -0.0125
vn 0.0118 0.9999 -0.0101
vn -0.0198 0.9998 -0.0062
vn -0.0175 0.9998 -0.0010
vn -0.0189 0.9998 -0.0045
vn 0.0085 0.9999 -0.0126
vn 0.0085 0.9999 -0.0124
vn -0.0115 0.9994 0.0322
vn -0.0167 0.9999 0.0011
vn 0.4063 0.9004 0.1554
vn -0.0322 0.9993 0.0181
vn -0.0098 1.0000 -0.0005
vn -0.0156 0.9997 0.0208
vn -0.0545 0.9985 -0.0005
vn 0.0450 0.9989 0.0148
vn -0.0369 0.9993 -0.0015
vn -0.0290 0.9996 -0.0002
vn -0.0372 0.9993 -0.0015
vn 0.0736 0.9971 0.0203
vn -0.0187 0.9998 -0.0046
vn -0.0000 0.9996 -0.0297
vn -0.0393 0.9992 -0.0018
vn -0.0015 0.9998 -0.0215
vn -0.0088 0.9999 -0.0112
vn 0.0268 0.9996 0.0050
vn 0.0254 0.9996 0.0076
vn 0.0301 0.9995 -0.0011
vn 0.0129 0.9997 0.0222
vn 0.0068 0.9991 0.0412
vn 0.0311 0.9995 -0.0032
vn -0.0215 0.9995 0.0236
vn -0.0217 0.9995 0.0239
vn -0.0204 0.9995 0.0227
vn 0.0037 0.9998 0.0208
vn 0.0053 0.9994 0.0350
vn 0.0137 0.9998 0.0107
vn 0.6934 0.7206 0.0045
vn 0.0049 0.9978 0.0664
vn 0.0451 0.9989 0.0084
vn 0.0082 1.0000 0.0024
vn 0.0131 0.9999 -0.0060
vn 0.0089 1.0000 0.0010
vn -0.0203 0.9995 0.0224
vn -0.0000 0.9999 -0.0157
vn 0.0013 0.9996 -0.0279
vn 0.0011 0.9997 -0.0257
vn -0.0089 0.9993 0.0356
vn 0.0015 0.9996 -0.0297
vn 0.0013 0.9996 -0.0278
vn 0.0134 0.9999 -0.0067
vn 0.0135 0.9999 -0.0068
vn -0.0104 0.9999 0.0122
vn -0.0094 0.9999 0.0132
vn -0.0098 0.9999 0.0127
vn -0.0285 0.9996 0.0002
vn -0.0064 0.9995 -0.0303
vn -0.0033 0.9996 -0.0267
vn -0.0039 0.9997 -0.0253
vn 0.0095 0.9998 -0.0148
vn -0.0254 0.9997 0.0039
vn -0.0105 0.9999 0.0119
vn 0.0362 0.9993 0.0006
vn 0.0486 0.9981 0.0368
vn -0.0025 0.9996 -0.0265
vn 0.0160 0.9979 -0.0634
vn 0.0078 0.9994 0.0345
vn 0.0197 0.9985 0.0511
vn 0.0593 0.9982 -0.0055
vn 0.0147 0.9993 -0.0345
vn 0.0159 0.9995 -0.0286
vn 0.0163 0.9995 -0.0267
vn 0.0146 0.9992 -0.0359
vn -0.0072 0.9995 -0.0315
vn 0.0157 0.9997 -0.0173
vn -0.9976 0.0697 -0.0015
vn -1.0000 0.0001 0.0014
vn -0.0004 -0.0144 0.9999
vn 0.0011 0.0191 0.9998
vn 1.0000 0.0055 0.0071
vn 0.9973 -0.0738 0.0004
vn 1.0000 0.0075 -0.0063
vn 0.0012 0.0260 -0.9997
vn -0.0012 -0.0310 -0.9995
vn 0.0001 -1.0000 -0.0000
vn 0.0007 -1.0000 -0.0000
vn -0.0000 -1.0000 -0.0000
vn -0.9751 -0.2176 0.0428
vn -0.8482 0.2208 0.4815
vn -0.3035 -0.2019 0.9312
vn 0.0001 1.0000 -0.0002
vn -0.0000 1.0000 -0.0004
vn 0.0002 1.0000 -0.0001
vn -0.0007 1.0000 -0.0003
vn -0.0011 1.0000 -0.0001
vn -0.0007 1.0000 -0.0001
vn 0.0015 1.0000 0.0006
vn 0.0006 1.0000 0.0001
vn 0.0011 1.0000 0.0004
vn -0.4440 -0.0362 -0.8953
vn -0.9562 0.0564 -0.2871
vn -0.9615 0.1030 -0.2549
vn -0.8068 0.0571 0.5880
vn -0.7253 -0.0968 0.6815
vn -0.0562 0.2079 0.9765
vn 0.2609 -0.1363 0.9557
vn -0.9128 -0.2057 0.3528
vn 0.0252 0.0892 0.9957
vn 0.0001 1.0000 0.0003
vn -0.0002 1.0000 0.0001
vn 0.0002 1.0000 0.0002
vn -0.0002 1.0000 0.0003
vn -0.0006 1.0000 -0.0001
vn -0.0003 1.0000 0.0004
vn -0.0003 1.0000 -0.0002
vn 0.0002 1.0000 -0.0002
vn 0.0001 1.0000 -0.0003
vn -0.7871 0.0057 -0.6168
vn -0.8644 0.2081 -0.4577
vn -0.9648 -0.0504 0.2583
vn -0.8719 -0.0055 0.4897
vn -0.7508 0.2159 0.6242
vn -0.2542 -0.0899 0.9630
vn 0.1439 0.1715 0.9746
vn 0.4644 -0.0372 0.8849
vn 0.7640 -0.1682 0.6229
vn 0.8006 -0.0862 0.5929
vn 0.0003 1.0000 -0.0003
vn 0.0008 1.0000 0.0003
vn 0.0003 1.0000 0.0012
vn -0.0013 1.0000 -0.0000
vn -0.0011 1.0000 -0.0004
vn 0.0004 1.0000 -0.0007
vn -0.0002 1.0000 -0.0001
vn -0.0000 1.0000 -0.0005
vn 0.0004 1.0000 -0.0006
vn 0.0005 1.0000 0.0002
vn 0.0003 1.0000 -0.0008
vn 0.0006 1.0000 -0.0000
vn -0.0161 -0.0262 -0.9995
vn -0.6929 0.0751 -0.7171
vn -0.6830 0.0530 -0.7285
vn 0.8431 -0.0557 0.5348
vn 0.9798 0.0670 -0.1881
vn 0.9246 0.2129 -0.3160
vn 0.6437 -0.0646 -0.7625
vn 0.2684 0.2055 -0.9411
vn -0.6435 -0.2703 0.7161
vn 0.0005 1.0000 -0.0007
vn 0.0005 1.0000 -0.0011
vn 0.0004 1.0000 0.0003
vn 0.0003 1.0000 -0.0010
vn 0.0001 1.0000 0.0005
vn -0.0000 1.0000 -0.0003
vn 0.0003 1.0000 -0.0000
vn 0.0011 1.0000 0.0001
vn -0.0007 1.0000 -0.0009
vn 0.5248 -0.0891 0.8465
vn 0.8187 0.2160 0.5320
vn 0.9807 -0.0789 0.1790
vn -0.9192 0.0641 0.3884
vn -0.9276 0.1147 0.3555
vn -0.3069 -0.1221 0.9439
vn -0.0565 0.2163 0.9747
vn 0.1382 0.8233 0.5505
vn 0.6882 0.5982 0.4105
vn 0.2906 0.9068 0.3055
vn -0.3542 0.8715 -0.3390
vn -0.4989 0.2913 -0.8162
vn 0.0820 -0.4316 0.8983
vn 0.3998 0.1096 0.9100
vn 0.0224 0.7243 0.6891
vn -0.3968 0.3499 0.8486
vn -0.6616 -0.3513 0.6625
vn -0.2094 0.4857 0.8487
vn -0.3494 0.8202 0.4529
vn 0.3724 0.8031 -0.4652
vn 0.5344 0.7547 -0.3806
vn 0.8128 -0.4936 -0.3094
vn 0.5114 0.8534 -0.1007
vn 0.8481 0.5297 0.0134
vn -0.9471 0.2913 0.1345
vn -0.4419 0.8821 0.1632
vn -0.3606 -0.8980 -0.2522
vn -0.3789 0.9254 -0.0009
vn 0.5688 -0.0267 0.8220
vn 0.6250 0.0260 0.7802
vn -0.6487 -0.0413 0.7599
vn -0.5682 0.0364 0.8221
vn -0.5581 0.0491 -0.8283
vn -0.6883 -0.0608 -0.7229
vn 0.6581 0.0293 -0.7523
vn 0.5911 -0.0348 -0.8059
vn -0.2064 0.8689 0.4500
vn 0.5302 -0.0502 0.8464
vn -0.7249 -0.5975 0.3428
vn -0.0000 1.0000 -0.0000
vn -1.0000 -0.0000 -0.0000
vn -0.0000 -0.0000 1.0000
vn 1.0000 -0.0000 -0.0000
vn -0.0000 -0.0000 -1.0000
vt 0.697584 0.179523
vt 0.697445 0.179828
vt 0.695189 0.179429
vt 0.698095 0.179813
vt 0.698015 0.179567
vt 0.698589 0.179077
vt 0.695197 0.179706
vt 0.696639 0.180566
vt 0.695856 0.180093
vt 0.698592 0.187292
vt 0.697913 0.180066
vt 0.697625 0.180058
vt 0.697362 0.181522
vt 0.697604 0.182045
vt 0.697773 0.182784
vt 0.697824 0.183236
vt 0.698368 0.178928
vt 0.697816 0.179462
vt 0.695298 0.179872
vt 0.697734 0.186919
vt 0.698355 0.187456
vt 0.697530 0.186817
vt 0.694694 0.186636
vt 0.695484 0.186432
vt 0.697448 0.186543
vt 0.697958 0.186862
vt 0.696303 0.186058
vt 0.698087 0.186615
vt 0.697685 0.186291
vt 0.697039 0.185334
vt 0.697975 0.186370
vt 0.697442 0.184714
vt 0.697701 0.184091
vt 0.690615 0.186627
vt 0.690111 0.187274
vt 0.690087 0.183181
vt 0.690711 0.186381
vt 0.690926 0.186246
vt 0.690728 0.186842
vt 0.691043 0.186903
vt 0.690315 0.187437
vt 0.692205 0.185878
vt 0.691248 0.186677
vt 0.691201 0.186418
vt 0.692691 0.186204
vt 0.693399 0.186517
vt 0.691691 0.185440
vt 0.691283 0.184717
vt 0.690941 0.183576
vt 0.691075 0.184209
vt 0.755388 0.334923
vt 0.755363 0.334015
vt 0.755388 0.331347
vt 0.690915 0.182667
vt 0.690315 0.178928
vt 0.693524 0.179426
vt 0.690638 0.179871
vt 0.690839 0.180066
vt 0.690676 0.179602
vt 0.690118 0.179099
vt 0.691854 0.180766
vt 0.691337 0.181535
vt 0.691039 0.180069
vt 0.691264 0.179725
vt 0.691128 0.179509
vt 0.690869 0.179457
vt 0.691228 0.179911
vt 0.692449 0.180329
vt 0.693526 0.179714
vt 0.692949 0.180052
vt 0.693422 0.179867
vt 0.638026 0.305621
vt 0.637695 0.313732
vt 0.637684 0.305571
vt 0.638036 0.313715
vt 0.747851 0.186456
vt 0.747856 0.179213
vt 0.748193 0.186428
vt 0.748197 0.179183
vt 0.651768 0.305571
vt 0.651430 0.309668
vt 0.651428 0.305580
vt 0.651768 0.313760
vt 0.651428 0.313747
vt 0.632089 0.305796
vt 0.631747 0.313813
vt 0.631747 0.305764
vt 0.632088 0.313859
vt 0.739174 0.257976
vt 0.738486 0.257194
vt 0.739174 0.249788
vt 0.738508 0.280536
vt 0.738486 0.273895
vt 0.739202 0.273139
vt 0.738944 0.249620
vt 0.739202 0.281191
vt 0.823574 0.190914
vt 0.823574 0.190737
vt 0.823692 0.190851
vt 0.823696 0.190687
vt 0.823695 0.359777
vt 0.823695 0.359912
vt 0.823574 0.359811
vt 0.806190 0.306908
vt 0.806031 0.307076
vt 0.806020 0.306888
vt 0.806130 0.307198
vt 0.805861 0.307150
vt 0.805727 0.306720
vt 0.806037 0.306720
vt 0.805851 0.306835
vt 0.665566 0.384589
vt 0.665566 0.384796
vt 0.665359 0.384782
vt 0.811993 0.253562
vt 0.812002 0.253826
vt 0.811785 0.253548
vt 0.811790 0.253836
vt 0.811785 0.254047
vt 0.811988 0.254103
vt 0.817971 0.270190
vt 0.817768 0.270410
vt 0.817765 0.270151
vt 0.817971 0.270487
vt 0.823675 0.307565
vt 0.823693 0.307745
vt 0.823574 0.307745
vt 0.823574 0.231849
vt 0.823667 0.231686
vt 0.823667 0.231927
vt 0.625628 0.372009
vt 0.625897 0.372019
vt 0.625730 0.372139
vt 0.625853 0.371885
vt 0.625897 0.372493
vt 0.625613 0.372362
vt 0.625782 0.372319
vt 0.781835 0.371885
vt 0.781849 0.372093
vt 0.781625 0.371915
vt 0.781634 0.372173
vt 0.781820 0.372204
vt 0.781837 0.372412
vt 0.781625 0.372468
vt 0.781118 0.378344
vt 0.781112 0.378527
vt 0.780908 0.378412
vt 0.780906 0.378658
vt 0.781118 0.378751
vt 0.823574 0.214376
vt 0.823574 0.214157
vt 0.823694 0.214343
vt 0.823694 0.214183
vt 0.806045 0.242879
vt 0.806013 0.243048
vt 0.805774 0.243016
vt 0.806023 0.243423
vt 0.805727 0.243243
vt 0.805961 0.243286
vt 0.805735 0.243423
vt 0.806175 0.243168
vt 0.799260 0.372068
vt 0.799261 0.372268
vt 0.799050 0.372240
vt 0.799254 0.372476
vt 0.799047 0.372457
vt 0.631361 0.384589
vt 0.631392 0.384804
vt 0.631177 0.384804
vt 0.817979 0.288210
vt 0.817973 0.288397
vt 0.817766 0.288181
vt 0.817766 0.288486
vt 0.799249 0.371885
vt 0.799047 0.371958
vt 0.823574 0.354124
vt 0.823698 0.354040
vt 0.823698 0.354182
vt 0.806122 0.211499
vt 0.806122 0.211832
vt 0.806025 0.211672
vt 0.805902 0.211823
vt 0.805861 0.211981
vt 0.805847 0.211364
vt 0.805900 0.211516
vt 0.805734 0.211564
vt 0.805727 0.211771
vt 0.811968 0.191690
vt 0.812000 0.191933
vt 0.811785 0.191788
vt 0.811793 0.192045
vt 0.817766 0.359400
vt 0.817974 0.359550
vt 0.817766 0.359658
vt 0.817973 0.306083
vt 0.817766 0.306385
vt 0.817766 0.306091
vt 0.817969 0.306339
vt 0.811989 0.191475
vt 0.811785 0.191498
vt 0.706936 0.371885
vt 0.706936 0.372676
vt 0.706876 0.372272
vt 0.811819 0.322520
vt 0.811785 0.322007
vt 0.811819 0.321815
vt 0.691609 0.185244
vt 0.805727 0.351536
vt 0.805727 0.350652
vt 0.805787 0.350850
vt 0.753240 0.371885
vt 0.753240 0.372684
vt 0.753208 0.372499
vt 0.655590 0.365460
vt 0.655556 0.366290
vt 0.655556 0.365072
vt 0.811829 0.179310
vt 0.811785 0.179701
vt 0.811785 0.178928
vt 0.805768 0.275958
vt 0.805727 0.275892
vt 0.805768 0.275000
vt 0.804046 0.378781
vt 0.804011 0.378920
vt 0.804011 0.378344
vt 0.758835 0.372689
vt 0.758835 0.371885
vt 0.758862 0.372259
vt 0.717680 0.378922
vt 0.717717 0.378344
vt 0.717717 0.378966
vt 0.811840 0.334357
vt 0.811840 0.335034
vt 0.811785 0.334547
vt 0.691870 0.180817
vt 0.714193 0.366221
vt 0.714193 0.365072
vt 0.714224 0.365710
vt 0.811854 0.229256
vt 0.811785 0.229056
vt 0.811854 0.228530
vt 0.755342 0.334714
vt 0.643134 0.372165
vt 0.643095 0.372749
vt 0.643095 0.371885
vt 0.697729 0.183813
vt 0.672888 0.365582
vt 0.672856 0.366271
vt 0.672856 0.365072
vt 0.747851 0.178935
vt 0.748192 0.178928
vt 0.638026 0.313914
vt 0.637684 0.313921
vt 0.631743 0.314039
vt 0.632083 0.314065
vt 0.632085 0.305571
vt 0.631743 0.305573
vt 0.690994 0.186287
vt 0.812003 0.191610
vt 0.665163 0.308986
vt 0.665163 0.305571
vt 0.668578 0.305571
vt 0.668578 0.308986
vt 0.654844 0.267055
vt 0.651433 0.267036
vt 0.651433 0.248829
vt 0.654844 0.248848
vt 0.680724 0.212364
vt 0.684137 0.212315
vt 0.684137 0.238709
vt 0.680724 0.238758
vt 0.645838 0.267151
vt 0.642436 0.267139
vt 0.642436 0.248829
vt 0.645838 0.248841
vt 0.674810 0.243151
vt 0.671396 0.243148
vt 0.671396 0.213860
vt 0.674810 0.213862
vt 0.614248 0.208232
vt 0.614248 0.178928
vt 0.632573 0.178928
vt 0.632573 0.208232
vt 0.638168 0.208178
vt 0.638168 0.178928
vt 0.656476 0.178975
vt 0.656476 0.208225
s 1
g robotic_arm.002_brazoRobot
usemtl brazoRobot
f 21/1/1 78/2/1 102/3/1
f 19/4/2 23/5/2 24/6/2
f 78/2/3 138/7/3 102/3/3
f 137/8/4 111/9/5 78/2/6
f 19/4/7 29/10/7 16/11/7
f 15/12/8 135/13/8 137/8/8
f 15/12/9 137/8/4 78/2/6
f 15/12/10 18/14/10 135/13/10
f 18/14/11 16/11/11 136/15/11
f 18/14/12 15/12/12 16/11/12
f 16/11/13 29/10/13 134/16/13
f 19/4/14 24/6/14 29/10/14
f 21/1/15 17/17/15 20/18/15
f 22/19/16 138/7/16 78/2/16
f 22/19/17 78/2/17 111/9/17
f 134/16/18 136/15/18 16/11/18
f 17/17/19 23/5/19 20/18/19
f 17/17/20 24/6/20 23/5/20
f 25/20/21 31/21/22 26/22/23
f 116/23/24 118/24/24 69/25/24
f 26/22/25 116/23/25 69/25/25
f 26/22/23 31/21/22 116/23/26
f 25/20/27 70/26/28 31/21/29
f 118/24/30 120/27/31 69/25/32
f 70/26/28 28/28/33 29/10/34
f 27/29/35 120/27/35 132/30/35
f 69/25/32 120/27/31 27/29/36
f 30/31/37 131/32/37 28/28/37
f 27/29/38 132/30/38 131/32/38
f 123/33/39 134/16/39 29/10/39
f 30/31/40 27/29/40 131/32/40
f 131/32/41 123/33/41 28/28/41
f 123/33/42 29/10/42 28/28/42
f 29/10/34 31/21/29 70/26/28
f 32/34/43 37/35/44 35/36/45
f 34/37/46 35/36/46 39/38/46
f 99/39/47 38/40/47 33/41/47
f 38/40/48 31/21/48 33/41/48
f 34/37/49 32/34/43 35/36/45
f 32/34/50 99/39/50 37/35/50
f 33/41/51 37/35/51 99/39/51
f 110/42/52 36/43/53 40/44/54
f 110/42/55 13/45/55 36/43/55
f 13/45/56 112/46/56 36/43/56
f 117/47/57 110/42/52 40/44/54
f 39/38/58 108/48/59 117/47/60
f 38/40/61 36/43/61 31/21/61
f 36/43/62 116/23/62 31/21/62
f 113/49/63 109/50/63 39/38/63
f 130/51/64 113/52/64 39/53/64
f 36/43/65 112/46/65 116/23/65
f 39/38/66 109/50/66 108/48/66
f 39/38/67 35/36/68 130/54/69
f 40/44/70 39/38/58 117/47/60
f 44/55/71 17/17/72 101/56/73
f 21/1/74 102/3/74 17/17/74
f 102/3/75 101/56/73 17/17/76
f 41/57/77 43/58/78 35/36/68
f 88/59/79 41/57/80 46/60/81
f 41/57/82 35/36/82 46/60/82
f 127/61/83 128/62/84 47/63/85
f 45/64/86 89/65/86 101/56/86
f 43/58/78 130/54/69 35/36/68
f 44/55/87 140/66/87 88/59/87
f 46/60/81 44/55/88 88/59/79
f 42/67/89 105/68/89 127/61/89
f 45/64/90 105/68/90 42/67/90
f 128/62/84 43/58/91 47/63/85
f 45/64/92 101/56/92 104/69/92
f 89/65/93 44/55/93 101/56/93
f 89/65/94 140/66/94 44/55/94
f 128/62/95 130/54/95 43/58/95
f 45/64/96 125/70/97 105/68/98
f 45/64/96 103/71/99 125/70/97
f 47/63/85 42/67/100 127/61/83
f 104/69/101 103/71/101 45/64/101
f 50/72/102 29/73/102 24/74/102
f 50/72/103 55/75/103 29/73/103
f 58/76/104 51/77/104 31/78/104
f 51/77/105 33/79/105 31/78/105
f 48/80/106 35/81/106 37/82/106
f 48/80/107 60/83/107 35/81/107
f 60/83/108 46/84/108 35/81/108
f 61/85/109 17/86/109 44/87/109
f 61/85/110 52/88/110 17/86/110
f 48/89/111 54/90/111 60/91/112
f 59/92/113 56/93/113 52/94/113
f 54/90/111 61/95/112 60/91/112
f 59/92/113 52/94/113 61/96/113
f 62/97/114 64/98/114 57/99/114
f 64/98/115 53/100/115 57/99/115
f 64/101/116 65/102/116 53/103/116
f 68/104/117 65/105/118 64/106/119
f 68/104/117 71/107/120 65/105/118
f 71/107/121 63/108/122 65/105/122
f 66/109/123 67/110/124 62/111/125
f 67/110/124 64/106/119 62/111/125
f 67/110/124 68/104/117 64/106/119
f 25/112/126 26/113/126 66/114/126
f 26/115/127 69/116/127 66/117/127
f 69/116/128 67/118/128 66/117/128
f 69/116/129 68/119/129 67/118/129
f 69/116/130 27/120/130 68/119/130
f 27/121/131 71/122/131 68/123/131
f 27/121/132 30/124/132 71/122/132
f 72/125/133 73/126/133 56/127/133
f 73/128/134 74/129/134 56/130/134
f 79/131/135 74/132/136 73/133/137
f 79/131/138 75/134/139 74/132/140
f 76/135/141 77/136/142 72/137/143
f 77/136/142 73/133/137 72/137/143
f 77/136/142 79/131/135 73/133/137
f 15/138/144 78/139/144 76/140/144
f 78/139/145 77/141/145 76/140/145
f 78/139/146 139/142/146 77/141/146
f 139/142/147 21/143/147 77/141/147
f 21/143/148 79/144/148 77/141/148
f 21/145/149 20/146/149 79/147/149
f 20/146/150 75/148/150 79/147/150
f 20/146/151 23/149/151 75/148/151
f 83/150/152 82/151/152 59/152/152
f 82/151/153 49/153/153 59/152/153
f 84/154/154 82/155/155 83/156/156
f 87/157/157 81/158/158 80/159/159
f 87/157/157 85/160/160 81/158/158
f 84/154/161 86/161/162 82/155/163
f 86/161/164 80/159/159 82/155/165
f 86/161/164 87/157/157 80/159/159
f 47/162/166 43/163/166 87/164/166
f 43/163/167 41/165/167 87/164/167
f 41/165/168 85/166/168 87/164/168
f 89/167/169 45/168/169 84/169/169
f 45/170/170 42/171/170 84/172/170
f 42/171/171 86/173/171 84/172/171
f 42/174/172 47/162/172 86/175/172
f 47/162/173 87/164/173 86/175/173
f 91/176/174 94/177/174 54/178/174
f 97/179/175 95/180/176 94/181/177
f 95/180/178 92/182/122 94/181/179
f 95/180/178 98/183/120 92/182/122
f 96/184/180 91/185/180 90/186/180
f 96/184/181 97/179/175 91/185/182
f 97/179/175 94/181/177 91/185/182
f 98/183/120 93/187/183 92/182/122
f 100/188/184 40/189/184 95/190/184
f 40/189/185 98/191/185 95/190/185
f 40/192/186 36/193/186 98/194/186
f 32/195/187 97/196/187 96/197/187
f 32/195/188 34/198/188 97/196/188
f 34/199/189 100/188/189 97/200/189
f 100/188/190 95/190/190 97/200/190
f 119/201/191 115/202/191 112/203/191
f 108/204/192 106/205/192 117/206/192
f 106/207/193 110/42/193 117/47/193
f 114/208/194 107/209/194 137/210/194
f 111/211/195 137/212/195 107/213/195
f 115/214/196 116/215/196 112/216/196
f 119/217/197 112/218/197 13/219/197
f 121/220/198 116/221/198 115/222/198
f 122/223/199 120/224/199 118/225/199
f 132/226/200 120/227/200 124/228/200
f 121/229/201 118/230/201 116/231/201
f 122/232/202 124/233/202 120/234/202
f 126/235/203 127/61/203 105/68/203
f 128/62/204 127/61/204 126/235/204
f 130/236/205 128/237/205 129/238/205
f 14/239/206 130/240/206 129/241/206
f 113/52/207 130/51/207 14/242/207
f 133/243/208 134/244/208 123/245/208
f 131/32/209 133/246/209 123/33/209
f 114/247/210 137/248/210 135/249/210
f 136/15/211 134/16/211 133/246/211
f 51/77/212 48/250/212 33/79/212
f 48/250/213 37/251/213 33/79/213
f 55/75/214 58/252/214 29/73/214
f 58/252/215 31/253/215 29/73/215
f 52/88/216 24/254/216 17/86/216
f 52/88/217 50/255/217 24/254/217
f 60/256/218 44/87/218 46/257/218
f 60/256/219 61/85/219 44/87/219
f 39/38/220 100/258/220 34/37/220
f 39/259/221 40/189/221 100/188/221
f 78/139/222 21/143/222 139/142/222
f 2/260/223 3/261/223 4/262/223 1/263/223
f 7/264/224 8/265/224 6/266/224 5/267/224
f 9/268/225 10/269/225 8/270/225 7/271/225
f 11/272/226 12/273/226 10/274/226 9/275/226
f 5/276/227 6/277/227 12/278/227 11/279/227
f 8/280/223 10/281/223 12/282/223 6/283/223
f 9/284/113 7/285/113 5/286/113 11/287/113
l 90 93
l 81 83
