# Blender 5.1.1
# www.blender.org
mtllib antebrazo.mtl
o antebrazo
v -14.563697 130.116531 -9.680844
v -14.424837 130.016388 -9.996678
v -14.292500 130.001465 -10.257456
v -14.289449 129.991470 -10.633959
v -14.393169 130.481049 -10.772278
v -14.671338 130.839233 -10.561680
v -14.861985 130.956100 -10.175806
v -14.800071 130.406036 -9.369973
v -15.053410 130.582932 -9.457315
v -15.092606 130.825409 -9.796254
v -15.041574 130.815277 -10.255432
v -15.294124 129.912399 -9.702607
v -16.241447 129.181412 -11.456425
v -16.102802 129.337769 -11.454971
v -15.959914 129.035767 -11.495337
v -15.599319 129.029526 -11.455786
v -15.480174 129.084991 -11.305185
v -15.859406 129.564911 -11.167530
v -15.416634 128.599701 -11.334627
v -15.369987 128.267685 -11.147130
v -15.374456 128.720963 -11.163761
v -15.097972 129.018295 -10.617568
v -15.179145 129.005508 -10.290784
v -15.386431 128.758881 -10.295897
v -15.344285 128.449692 -10.640039
v -15.139143 129.158691 -11.029298
v -15.619532 128.895264 -10.036034
v -15.476768 128.425140 -10.223749
v -16.568378 129.277039 -11.111479
v -16.525000 129.041382 -11.219767
v -16.539726 128.943588 -11.262944
v -17.380909 128.047195 -11.445231
v -15.453716 128.155365 -10.909160
v -15.914187 128.598709 -9.916284
v -16.255732 128.463562 -9.907301
v -15.935253 128.007370 -10.080706
v -15.790985 128.478500 -9.995086
v -16.955496 128.879425 -10.711163
v -17.174137 128.483414 -10.757607
v -16.878855 128.801575 -10.487144
v -17.174038 128.338364 -10.420872
v -16.206291 127.408829 -11.771552
v -15.888831 127.702347 -11.608530
v -15.976754 127.463760 -11.416965
v -16.225971 126.988098 -11.466671
v -16.421844 127.049500 -11.895326
v -17.384823 128.041534 -11.226933
v -17.068731 128.374146 -10.927244
v -17.312038 126.961090 -12.634649
v -17.507519 126.909851 -12.792617
v -17.301910 126.740738 -12.316884
v -17.589985 126.761230 -12.634998
v -17.624933 127.368652 -12.277583
v -17.954027 127.221146 -11.943241
v -18.073715 127.177040 -11.887964
v -18.047985 127.127289 -11.669569
v -17.631208 127.354477 -11.876107
v -18.085217 126.815392 -12.536598
v -18.154207 126.825356 -12.252241
v -16.778269 126.120354 -12.047976
v -16.692625 126.056168 -11.452633
v -16.687069 125.896919 -12.054684
v -16.727922 125.333183 -11.959358
v -17.610294 127.521355 -11.318895
v -17.865532 127.169609 -11.546888
v -17.752913 127.206276 -11.195044
v -16.599743 126.421547 -11.294550
v -16.795143 126.112251 -11.176615
v -16.840788 126.050095 -11.824100
v -16.592445 126.578796 -11.626957
v -16.827454 125.682999 -11.235935
v -18.142380 126.843529 -11.995823
v -18.051987 126.836838 -11.680107
v -17.873320 126.602646 -11.071186
v -17.824116 127.104881 -10.868366
v -18.002796 126.639236 -11.259832
v -17.557230 126.693726 -10.628264
v -16.641483 125.344719 -12.107477
v -16.866980 125.171082 -11.867672
v -17.010628 125.096306 -12.158764
v -17.052809 125.749596 -10.992633
v -16.910183 126.058449 -11.100746
v -16.452549 126.744431 -11.008430
v -17.046703 125.975327 -10.890300
v -16.863462 126.754456 -10.470270
v -17.171284 126.374603 -10.625074
v -16.477089 127.249420 -10.370703
v -16.386238 127.546837 -10.257481
v -16.860456 128.224030 -10.104742
v -17.184052 127.220947 -10.294430
v -16.461954 128.593887 -9.922860
v -16.519299 128.945023 -9.944057
v -16.573521 128.928925 -10.046783
v -16.028301 129.149918 -9.678218
v -16.344173 129.411087 -9.824000
v -16.048384 129.623611 -9.723099
v -16.183327 129.678818 -9.832051
v -16.361242 129.508911 -10.115901
v -16.535198 129.154099 -10.388957
v -16.226852 129.681854 -10.575521
v -16.057814 129.952057 -10.336379
v -15.373423 130.482147 -9.915188
v -15.851595 130.156494 -10.174299
v -14.835189 130.530334 -10.727580
v -15.546273 129.920532 -10.979230
v -15.595014 130.299698 -10.506826
v -16.182798 129.580383 -10.857956
v -15.947151 129.907578 -10.519215
v -15.574018 129.341415 -11.225728
v -15.209322 129.406876 -11.128334
v -15.021662 129.968109 -10.981083
v -14.225227 130.274536 -10.729021
v -14.927801 129.294647 -10.506690
v -15.533672 130.176666 -9.641428
v -14.916028 129.685455 -9.925438
v -15.595143 129.611923 -9.736452
v -15.283367 129.197296 -10.029237
v -14.950573 129.379868 -10.247293
v -15.873331 129.002640 -9.673548
v -15.893475 129.966599 -9.693999
v -16.467566 129.361877 -11.261055
v -16.316923 129.355484 -11.076856
v -16.612013 129.043350 -10.758668
v -16.624413 129.149429 -11.164986
v -17.383242 127.727341 -10.440029
v -17.207615 127.924622 -10.285243
v -17.099604 127.872101 -10.196713
v -17.493397 127.246117 -10.463649
v -17.365988 127.133530 -10.348413
v -17.698595 126.330559 -10.981695
v -17.466110 126.123947 -10.950950
v -17.285961 125.706787 -11.063877
v -17.467123 125.005798 -12.510469
v -17.199753 124.957764 -12.469955
v -17.925894 125.260857 -12.743670
v -18.165707 125.516731 -12.358277
v -18.116856 125.495888 -12.803118
v -18.237066 125.850433 -12.944899
v -18.043755 127.028503 -11.281138
v -17.570229 127.326408 -10.905521
v -17.450981 127.483696 -10.741564
v -17.387455 128.050995 -10.828299
v -18.239105 126.161827 -12.978950
v -17.833710 126.515076 -13.098013
v -16.525654 126.847740 -10.573726
v -15.812557 128.005203 -10.149924
v -15.981876 127.183655 -10.825569
v -15.840836 127.571762 -10.531572
v -15.749149 127.624016 -10.752531
v -15.615026 128.074677 -11.365379
v -16.035042 127.952690 -11.774356
v -15.594789 128.328033 -11.558147
v -16.222860 128.209961 -11.882191
v -15.737631 128.638733 -11.554114
v -16.419670 128.401794 -11.905190
v -16.023623 128.734787 -11.565288
v -16.229479 129.006836 -11.432959
v -16.493971 128.718384 -11.625435
v -17.224436 127.849548 -12.056396
v -17.276340 128.036575 -11.759123
v -17.633736 127.391388 -12.112146
v -17.576771 127.194878 -12.362233
v -16.916403 127.435165 -12.289915
v -17.068081 127.659401 -12.214409
v -16.563244 127.808289 -12.100149
v -16.416859 127.482704 -12.077585
v -16.750881 126.695648 -11.996416
v -16.992573 126.853119 -12.223740
v -17.274199 127.011597 -12.364775
v -17.371317 126.795074 -12.576855
v -17.697275 127.181282 -12.347215
v -17.082464 126.462616 -12.173362
v -16.869946 126.516167 -12.305922
v -17.949707 126.903206 -12.340740
v -18.144375 126.936890 -12.226996
vn 0.1094 0.1089 -0.9880
vn -0.2484 0.5299 -0.8109
vn -0.3948 0.5775 -0.7146
vn 0.0428 0.1455 -0.9884
vn -0.1860 0.5916 -0.7845
vn 0.5033 0.2539 -0.8260
vn 0.8384 -0.0957 -0.5366
vn 0.9370 -0.1859 -0.2959
vn 0.8935 -0.4067 -0.1904
vn 0.8937 -0.4480 -0.0233
vn 0.6911 -0.5786 0.4331
vn 0.7530 -0.4016 0.5212
vn 0.5298 -0.4844 0.6962
vn 0.3933 -0.1700 0.9036
vn 0.7639 -0.2686 0.5868
vn 0.9298 -0.3491 0.1164
vn -0.5688 0.4832 -0.6656
vn -0.7479 0.2890 -0.5976
vn -0.4401 0.2443 -0.8641
vn -0.7081 0.6926 0.1376
vn -0.8848 0.4342 -0.1690
vn -0.7743 0.5144 -0.3685
vn -0.8225 0.5555 -0.1218
vn -0.8749 0.4827 0.0384
vn -0.9299 0.3366 0.1482
vn -0.9134 0.4051 0.0409
vn -0.4558 0.8758 0.1586
vn -0.7270 0.6866 0.0074
vn -0.5140 0.8431 -0.1580
vn 0.9015 -0.4323 -0.0193
vn 0.7467 -0.3755 0.5490
vn 0.9761 -0.1733 0.1312
vn 0.7293 -0.4454 0.5193
vn 0.1293 -0.9302 0.3434
vn 0.2152 -0.8904 0.4011
vn 0.1445 -0.7103 0.6890
vn 0.7710 -0.3363 0.5408
vn 0.7682 -0.6256 0.1357
vn 0.1802 -0.4259 0.8866
vn -0.1341 -0.4739 0.8703
vn 0.4121 -0.5440 0.7310
vn 0.0068 -0.3151 0.9490
vn -0.1112 -0.2375 0.9650
vn -0.3725 -0.0393 0.9272
vn -0.0127 -0.3050 0.9523
vn -0.3338 -0.1314 0.9335
vn -0.7026 0.1189 0.7016
vn -0.7292 0.2098 0.6513
vn -0.2193 -0.0161 0.9755
vn -0.1817 0.0440 0.9824
vn -0.7287 0.5188 0.4470
vn -0.8804 0.4631 0.1022
vn -0.5491 0.7712 -0.3221
vn -0.6506 0.6998 -0.2950
vn -0.6867 0.7263 0.0298
vn -0.5452 0.7001 -0.4612
vn -0.7298 0.6499 -0.2122
vn -0.6698 0.7251 -0.1601
vn -0.2920 0.5663 -0.7707
vn -0.1054 0.6745 -0.7307
vn 0.2739 0.4294 -0.8606
vn 0.0796 0.3121 -0.9467
vn 0.4316 0.0115 -0.9020
vn 0.7903 -0.6047 0.0988
vn 0.7116 -0.4133 -0.5682
vn 0.7318 -0.5936 -0.3350
vn 0.7801 -0.5754 0.2455
vn -0.6963 0.6925 0.1885
vn -0.6192 0.1307 0.7743
vn -0.8003 0.5860 0.1270
vn -0.4180 0.3190 0.8506
vn 0.5038 -0.4765 0.7205
vn 0.6696 -0.6215 0.4067
vn 0.4504 -0.5889 0.6710
vn 0.6718 0.1805 -0.7184
vn -0.4243 0.9055 -0.0002
vn -0.3362 0.8435 -0.4190
vn -0.6786 0.7204 0.1433
vn -0.6360 0.7504 0.1798
vn -0.5910 0.7421 -0.3164
vn -0.8436 0.5303 0.0839
vn -0.7338 0.6176 0.2831
vn -0.4807 -0.1923 0.8555
vn -0.4229 0.0090 0.9061
vn -0.1426 -0.9544 0.2622
vn -0.3218 -0.7296 0.6034
vn -0.7739 -0.5007 0.3877
vn -0.8211 -0.3511 0.4500
vn -0.9881 0.0253 0.1519
vn -0.8933 0.3556 0.2748
vn -0.7424 0.6091 0.2790
vn -0.9149 0.3974 0.0713
vn -0.7708 0.6325 0.0758
vn -0.8978 0.1699 0.4064
vn -0.8026 0.1434 0.5791
vn -0.6938 0.1864 0.6956
vn -0.9220 0.3580 -0.1474
vn -0.8135 0.4637 -0.3512
vn -0.6336 0.6224 -0.4595
vn -0.5296 -0.8109 0.2487
vn -0.5357 -0.5591 0.6328
vn -0.6562 -0.4817 0.5808
vn 0.2250 -0.3957 0.8904
vn 0.2919 -0.4573 0.8400
vn 0.8742 -0.4831 0.0490
vn 0.7677 -0.6184 0.1682
vn 0.8044 -0.5249 -0.2782
vn 0.8418 -0.4639 -0.2761
vn 0.7769 -0.3863 -0.4972
vn 0.3768 0.2045 -0.9034
vn 0.0934 0.3905 -0.9159
vn 0.3538 0.1935 -0.9151
vn -0.3403 0.2813 -0.8973
vn -0.2553 0.6796 -0.6877
vn -0.6785 0.6552 -0.3322
vn -0.4108 0.6239 -0.6648
vn -0.6220 0.7763 -0.1026
vn -0.0428 0.4511 -0.8914
vn -0.4363 0.5079 -0.7428
vn -0.4854 0.6456 -0.5895
vn 0.3326 0.1951 -0.9227
vn 0.5684 -0.1003 -0.8166
vn 0.2107 0.0985 -0.9726
vn 0.5807 -0.1478 -0.8006
vn -0.3917 0.9062 -0.1592
vn 0.3311 0.3186 -0.8882
vn -0.0916 0.9949 0.0428
vn 0.7398 -0.5266 0.4189
vn 0.5319 -0.5884 0.6089
vn -0.4991 0.6778 -0.5398
vn 0.4479 -0.3167 0.8361
vn -0.4561 0.3989 0.7955
vn -0.7523 0.5693 -0.3315
vn -0.9684 -0.0002 0.2496
vn 0.0528 -0.4116 0.9098
vn -0.6245 0.6971 -0.3522
vn -0.4230 0.0636 -0.9039
vn 0.0358 -0.3370 0.9408
vn 0.6570 -0.0765 -0.7500
vn 0.8058 -0.4404 -0.3959
vn 0.9073 -0.4189 0.0364
vn 0.5550 -0.4526 0.6979
vn -0.8172 0.3749 0.4378
vn 0.7035 -0.3942 -0.5913
vn 0.7705 -0.3000 -0.5625
vn -0.2845 0.9248 0.2527
vn -0.1519 0.5217 0.8395
vn -0.6789 0.7319 -0.0589
vn 0.8815 0.1636 0.4429
vn 0.8499 -0.3439 0.3992
vn 0.6746 0.4975 0.5454
vn 0.8868 0.4408 -0.1391
vn 0.8494 -0.4410 -0.2900
vn -0.7108 -0.3864 0.5878
vn -0.5630 -0.3201 0.7620
vn -0.8355 0.3154 0.4500
vn -0.8488 0.3823 0.3651
vn 0.8013 -0.4664 0.3747
vn 0.5123 -0.2335 -0.8265
vn 0.7115 -0.4879 0.5057
vn 0.6590 -0.5030 0.5591
vn 0.1908 -0.2022 0.9606
vn 0.1202 -0.3120 0.9425
vn -0.6804 -0.7282 0.0829
vn -0.8877 -0.4501 -0.0972
vn -0.9821 -0.1337 -0.1324
vn -0.6874 0.7193 0.1009
vn -0.9390 0.2510 -0.2353
vn 0.6023 -0.0951 -0.7926
vn 0.0610 0.4718 -0.8796
vn -0.0483 0.4122 -0.9098
vn 0.6908 -0.3499 -0.6327
vn 0.9809 0.1923 -0.0287
vn 0.3735 0.5551 0.7433
vn -0.2510 0.9673 -0.0369
vt 0.514172 0.176416
vt 0.520200 0.168800
vt 0.525982 0.174376
vt 0.512600 0.451700
vt 0.519978 0.456202
vt 0.505500 0.458500
vt 0.633600 0.455300
vt 0.629500 0.460600
vt 0.625800 0.448600
vt 0.614804 0.474151
vt 0.605400 0.474700
vt 0.603200 0.465900
vt 0.592600 0.467500
vt 0.591561 0.454687
vt 0.601142 0.456294
vt 0.613210 0.455640
vt 0.527639 0.440613
vt 0.531664 0.446048
vt 0.528301 0.444028
vt 0.545958 0.440187
vt 0.548300 0.429200
vt 0.543397 0.425404
vt 0.532780 0.409133
vt 0.541652 0.410886
vt 0.558443 0.404232
vt 0.549945 0.415368
vt 0.542406 0.382237
vt 0.533614 0.388162
vt 0.529294 0.377855
vt 0.617300 0.390300
vt 0.611102 0.379344
vt 0.620400 0.378500
vt 0.612456 0.368711
vt 0.605634 0.358181
vt 0.610216 0.362318
vt 0.602881 0.365735
vt 0.606200 0.376000
vt 0.610765 0.400771
vt 0.590490 0.400900
vt 0.587645 0.385146
vt 0.601848 0.373560
vt 0.589053 0.424368
vt 0.578519 0.406982
vt 0.572323 0.433079
vt 0.579628 0.448470
vt 0.573478 0.448532
vt 0.565489 0.455804
vt 0.563446 0.469188
vt 0.574894 0.469089
vt 0.566700 0.478800
vt 0.561896 0.477059
vt 0.555419 0.468616
vt 0.531900 0.490400
vt 0.538700 0.480700
vt 0.546226 0.490573
vt 0.533667 0.466961
vt 0.541788 0.470911
vt 0.545458 0.480400
vt 0.519921 0.482736
vt 0.520700 0.468300
vt 0.510480 0.468003
vt 0.509900 0.486700
vt 0.503872 0.476654
vt 0.913120 0.751476
vt 0.911000 0.762800
vt 0.889827 0.753412
vt 0.888577 0.742669
vt 0.905338 0.696424
vt 0.896212 0.704179
vt 0.893800 0.693400
vt 0.911700 0.709100
vt 0.918800 0.736700
vt 0.911958 0.742943
vt 0.906089 0.730713
vt 0.595339 0.479856
vt 0.606400 0.481700
vt 0.495915 0.474179
vt 0.501883 0.464417
vt 0.531299 0.458331
vt 0.528600 0.452400
vt 0.532799 0.450638
vt 0.542606 0.450445
vt 0.902301 0.667066
vt 0.919175 0.685268
vt 0.895926 0.680906
vt 0.551980 0.455697
vt 0.552800 0.442600
vt 0.573455 0.400500
vt 0.569848 0.422101
vt 0.359690 0.453155
vt 0.370347 0.459111
vt 0.360200 0.465300
vt 0.560211 0.356255
vt 0.559586 0.367485
vt 0.542116 0.363823
vt 0.551454 0.379858
vt 0.541937 0.375627
vt 0.545066 0.396336
vt 0.555400 0.396700
vt 0.562970 0.415059
vt 0.567714 0.401196
vt 0.565514 0.420960
vt 0.296751 0.466520
vt 0.290698 0.463273
vt 0.291534 0.450273
vt 0.579305 0.355800
vt 0.585118 0.367671
vt 0.575389 0.370273
vt 0.592713 0.442298
vt 0.592911 0.414997
vt 0.612315 0.429718
vt 0.611583 0.415710
vt 0.626123 0.406398
vt 0.628489 0.419349
vt 0.634750 0.424317
vt 0.500008 0.425877
vt 0.508083 0.443478
vt 0.500800 0.446900
vt 0.518271 0.446455
vt 0.517520 0.434067
vt 0.526000 0.407000
vt 0.517701 0.401523
vt 0.524250 0.385624
vt 0.507880 0.383311
vt 0.514589 0.379774
vt 0.517574 0.385241
vt 0.500700 0.410600
vt 0.491800 0.407672
vt 0.501200 0.397400
vt 0.492412 0.387846
vt 0.498361 0.377775
vt 0.500495 0.384771
vt 0.503318 0.374365
vt 0.605700 0.429800
vt 0.598917 0.403988
vt 0.276712 0.465394
vt 0.291428 0.469337
vt 0.585900 0.456700
vt 0.563100 0.489200
vt 0.297282 0.470845
vt 0.305002 0.469475
vt 0.909871 0.719027
vt 0.506491 0.288098
vt 0.498200 0.287500
vt 0.505500 0.274500
vt 0.511896 0.278122
vt 0.513788 0.266584
vt 0.520700 0.450700
vt 0.891800 0.712600
vt 0.637936 0.444041
vt 0.629200 0.439171
vt 0.627212 0.474853
vt 0.618971 0.442446
vt 0.598064 0.442838
vt 0.557694 0.429182
vt 0.639500 0.403700
vt 0.638200 0.413200
vt 0.271064 0.456064
vt 0.271700 0.463900
vt 0.263380 0.462831
vt 0.534757 0.373170
vt 0.629079 0.366893
vt 0.617067 0.362762
vt 0.635313 0.370950
vt 0.630690 0.376257
vt 0.629300 0.393700
vt 0.565400 0.372800
vt 0.574357 0.385865
vt 0.562186 0.391701
vt 0.560877 0.453288
vt 0.616200 0.360200
vt 0.923900 0.673200
vt 0.923545 0.698308
vt 0.908500 0.769500
vt 0.887465 0.759857
vt 0.918965 0.662842
vt 0.902613 0.648648
vt 0.924600 0.656600
vt 0.890189 0.733768
vt 0.900162 0.655378
vt 0.890200 0.725100
vt 0.921600 0.722700
vt 0.614000 0.482300
vt 0.581801 0.467874
vt 0.578200 0.486100
vt 0.492600 0.460800
vt 0.594366 0.358214
vt 0.353500 0.466700
vt 0.351030 0.456598
vt 0.567700 0.356100
vt 0.329575 0.470000
vt 0.326388 0.458172
vt 0.334870 0.456597
vt 0.314608 0.469900
vt 0.315356 0.459000
vt 0.549796 0.389740
vt 0.532969 0.361679
vt 0.306837 0.457790
vt 0.643300 0.427400
vt 0.491264 0.443278
vt 0.491800 0.425700
vt 0.508400 0.426000
vt 0.509599 0.399469
vt 0.642283 0.393453
vt 0.653414 0.393265
vt 0.648388 0.410943
vt 0.656200 0.382200
vt 0.655000 0.386100
vt 0.646000 0.383200
vt 0.647800 0.377700
vt 0.278795 0.455263
vt 0.492900 0.454700
vt 0.923600 0.711500
vt 0.519000 0.369000
vt 0.524773 0.366091
s 1
g antebrazo_rp_eric_rigged_001_mat.010
usemtl rp_eric_rigged_001_mat.010
f 5/1/1 104/2/2 6/3/3
f 15/4/4 14/5/5 16/6/6
f 19/7/7 21/8/8 20/9/9
f 22/10/10 23/11/11 24/12/12
f 27/13/13 37/14/14 24/12/12
f 24/12/12 28/15/15 25/16/16
f 31/17/17 124/18/18 30/19/19
f 38/20/20 124/18/18 39/21/21
f 48/22/22 32/23/23 47/24/24
f 141/25/25 142/26/26 47/24/24
f 142/26/26 48/22/22 47/24/24
f 65/27/27 57/28/28 54/29/29
f 67/30/30 68/31/31 61/32/32
f 68/31/31 71/33/33 61/32/32
f 80/34/34 79/35/35 81/36/36
f 71/33/33 81/36/36 79/35/35
f 71/33/33 68/31/31 82/37/37
f 82/37/37 68/31/31 83/38/38
f 85/39/39 86/40/40 84/41/41
f 88/42/42 90/43/43 85/39/39
f 88/42/42 89/44/44 90/43/43
f 88/42/42 35/45/45 89/44/44
f 91/46/46 92/47/47 89/44/44
f 95/48/48 94/49/49 96/50/50
f 97/51/51 98/52/52 95/48/48
f 106/53/53 108/54/54 103/55/55
f 107/56/56 100/57/57 108/54/54
f 108/54/54 100/57/57 101/58/58
f 101/58/58 103/55/55 108/54/54
f 107/56/56 105/59/59 18/60/60
f 109/61/61 18/60/60 105/59/59
f 105/59/59 111/62/62 109/61/61
f 110/63/63 109/61/61 111/62/62
f 113/64/64 26/65/65 4/66/66
f 4/66/66 3/67/67 113/64/64
f 102/68/68 9/69/69 10/70/70
f 9/69/69 102/68/68 114/71/71
f 117/72/72 118/73/73 115/74/74
f 117/75/72 23/11/11 118/76/73
f 26/77/65 17/78/75 110/63/63
f 122/79/76 121/80/77 29/81/78
f 122/79/76 29/81/78 123/82/79
f 100/57/57 122/79/76 123/82/79
f 124/18/18 29/81/78 121/80/77
f 122/79/76 14/5/5 121/80/77
f 104/83/2 106/84/53 11/85/80
f 99/86/81 123/82/79 40/87/82
f 129/88/83 90/43/43 127/89/84
f 86/40/40 85/39/39 90/43/43
f 134/90/85 80/91/34 132/92/86
f 136/93/87 76/94/88 73/95/89
f 73/95/89 139/96/90 56/97/91
f 65/27/27 56/97/91 139/96/90
f 141/25/25 64/98/92 140/99/93
f 141/25/25 125/100/94 142/26/26
f 128/101/95 126/102/96 125/100/94
f 73/95/89 76/94/88 139/96/90
f 59/103/97 58/104/98 144/105/99
f 133/106/100 131/107/101 130/108/102
f 88/42/42 36/109/103 35/45/45
f 87/110/104 36/109/103 88/42/42
f 149/111/105 147/112/106 45/113/107
f 149/111/105 44/114/108 43/115/109
f 153/116/110 156/117/111 154/118/112
f 157/119/113 15/4/4 156/117/111
f 158/120/114 31/17/17 157/119/113
f 160/121/115 32/23/23 31/17/17
f 160/121/115 159/122/116 161/123/117
f 162/124/118 171/125/119 53/126/120
f 165/127/121 166/128/122 163/129/123
f 168/130/124 170/131/125 169/132/126
f 170/131/125 52/133/127 162/124/118
f 162/124/118 52/133/127 171/125/119
f 148/134/128 147/112/106 149/111/105
f 145/135/129 83/38/38 147/112/106
f 52/136/127 58/104/98 174/137/130
f 34/138/131 37/14/14 27/13/13
f 81/36/36 71/33/33 84/41/41
f 97/51/51 96/50/50 120/139/132
f 175/140/133 59/103/97 72/141/134
f 114/71/71 12/142/135 9/69/69
f 6/143/3 104/144/2 11/145/80 7/146/136
f 7/146/136 11/145/80 10/147/70
f 15/4/4 157/119/113 13/148/137 14/5/5
f 12/142/135 8/149/138 9/69/69
f 107/56/56 122/79/76 100/57/57
f 109/61/61 16/6/6 14/5/5 18/60/60
f 16/6/6 109/61/61 17/78/75
f 152/150/139 19/7/7 20/9/9 150/151/140
f 21/8/8 26/152/65 22/10/10 25/16/16
f 22/10/10 24/12/12 25/16/16
f 117/75/72 27/13/13 24/12/12 23/11/11
f 25/16/16 33/153/141 20/9/9 21/8/8
f 36/109/103 37/14/14 34/138/131 35/45/45
f 37/14/14 36/109/103 146/154/142
f 41/155/143 40/87/82 38/20/20 39/21/21
f 40/87/82 123/82/79 38/20/20
f 46/156/144 42/157/145 44/114/108 45/113/107
f 42/157/145 43/115/109 44/114/108
f 47/24/24 64/98/92 141/25/25
f 48/22/22 31/17/17 32/23/23
f 49/158/146 170/159/125 51/160/147
f 161/123/117 53/126/120 54/29/29 57/28/28
f 53/126/120 171/125/119 54/29/29
f 65/27/27 54/29/29 55/161/148 56/97/91
f 59/103/97 175/140/133 174/137/130 58/104/98
f 62/162/149 61/32/32 71/33/33 63/163/150
f 62/162/149 60/164/151 69/165/152
f 62/162/149 69/165/152 61/32/32
f 67/30/30 61/32/32 69/165/152 70/166/153
f 76/94/88 74/167/154 77/168/155 75/169/156
f 74/167/154 130/108/102 77/168/155
f 93/170/157 95/48/48 98/52/52 99/86/81
f 79/35/35 78/171/158 63/163/150
f 79/35/35 63/163/150 71/33/33
f 71/33/33 82/37/37 84/41/41
f 82/37/37 83/38/38 84/41/41
f 84/41/41 83/38/38 145/135/129
f 145/135/129 85/39/39 84/41/41
f 85/39/39 145/135/129 87/110/104
f 87/110/104 88/42/42 85/39/39
f 89/44/44 35/45/45 91/46/46
f 92/47/47 93/170/157 89/44/44
f 92/47/47 91/46/46 94/49/49
f 92/47/47 94/49/49 95/48/48
f 95/48/48 93/170/157 92/47/47
f 95/48/48 96/50/50 97/51/51
f 98/52/52 97/51/51 101/58/58 100/57/57
f 122/79/76 107/56/56 18/60/60 14/5/5
f 102/68/68 11/85/80 106/84/53
f 102/68/68 10/70/70 11/85/80
f 104/83/2 105/172/59 106/84/53
f 106/53/53 107/56/56 108/54/54
f 103/173/55 102/68/68 106/84/53
f 110/174/63 112/175/159 4/66/66 26/65/65
f 107/56/56 106/53/53 105/59/59
f 111/176/62 105/172/59 104/83/2
f 111/176/62 112/177/159 110/178/63
f 113/64/64 3/67/67 2/179/160 118/73/73
f 112/177/159 111/176/62 5/180/1
f 12/142/135 115/74/74 1/181/161 8/149/138
f 2/179/160 1/181/161 115/74/74
f 104/83/2 5/180/1 111/176/62
f 115/74/74 118/73/73 2/179/160
f 116/182/162 117/72/72 115/74/74 12/142/135
f 22/10/10 113/183/64 118/76/73 23/11/11
f 96/50/50 119/184/163 116/185/162 120/139/132
f 116/185/162 119/184/163 117/75/72
f 119/184/163 27/13/13 117/75/72
f 35/45/45 119/184/163 94/49/49 91/46/46
f 34/138/131 27/13/13 119/184/163 35/45/45
f 98/52/52 100/57/57 123/82/79 99/86/81
f 119/184/163 96/50/50 94/49/49
f 113/183/64 22/10/10 26/152/65
f 26/77/65 21/186/8 17/78/75
f 110/63/63 17/78/75 109/61/61
f 13/148/137 124/18/18 121/80/77 14/5/5
f 123/82/79 29/81/78 38/20/20
f 157/119/113 30/19/19 124/18/18 13/148/137
f 89/44/44 93/170/157 126/102/96 127/89/84
f 99/86/81 40/87/82 93/170/157
f 93/170/157 40/87/82 41/155/143
f 41/155/143 126/102/96 93/170/157
f 126/102/96 41/155/143 125/100/94
f 128/101/95 129/88/83 127/89/84 126/102/96
f 90/43/43 129/88/83 77/168/155 86/40/40
f 127/89/84 90/43/43 89/44/44
f 130/108/102 131/107/101 86/40/40 77/168/155
f 84/41/41 86/40/40 132/187/86 81/36/36
f 131/107/101 132/187/86 86/40/40
f 132/187/86 80/34/34 81/36/36
f 134/90/85 132/92/86 131/188/101 133/189/100
f 130/108/102 74/167/154 135/190/164 133/106/100
f 136/191/87 137/192/165 135/193/164
f 136/93/87 135/190/164 74/167/154 76/94/88
f 137/192/165 136/191/87 73/194/89 138/195/166
f 66/196/167 139/96/90 75/169/156 140/99/93
f 56/97/91 72/197/134 73/95/89
f 56/97/91 55/161/148 72/197/134
f 139/96/90 66/196/167 65/27/27
f 139/96/90 76/94/88 75/169/156
f 41/155/143 39/21/21 142/26/26 125/100/94
f 140/99/93 64/98/92 66/196/167
f 140/99/93 75/169/156 141/25/25
f 39/21/21 48/22/22 142/26/26
f 141/25/25 128/101/95 125/100/94
f 128/101/95 141/25/25 75/169/156
f 75/169/156 77/168/155 128/101/95
f 73/194/89 72/141/134 143/198/168 138/195/166
f 143/198/168 72/141/134 59/103/97
f 146/154/142 36/109/103 87/110/104 145/135/129
f 129/88/83 128/101/95 77/168/155
f 148/134/128 146/154/142 145/135/129 147/112/106
f 33/153/141 28/15/15 148/134/128 149/111/105
f 146/154/142 148/134/128 28/15/15
f 150/151/140 33/153/141 149/111/105 43/115/109
f 28/15/15 33/153/141 25/16/16
f 28/15/15 37/14/14 146/154/142
f 149/111/105 45/113/107 44/114/108
f 151/199/169 152/150/139 150/151/140 43/115/109
f 16/6/6 154/118/112 156/117/111 15/4/4
f 152/200/139 151/201/169 153/116/110
f 153/116/110 154/118/112 152/200/139
f 153/116/110 155/202/170 156/117/111
f 156/117/111 158/120/114 157/119/113
f 159/122/116 160/121/115 31/17/17 158/120/114
f 157/119/113 31/17/17 30/19/19
f 158/120/114 156/117/111 155/202/170
f 57/28/28 32/23/23 160/121/115 161/123/117
f 32/23/23 57/28/28 64/98/92 47/24/24
f 162/124/118 53/126/120 159/122/116 164/203/171
f 57/28/28 66/196/167 64/98/92
f 159/122/116 53/126/120 161/123/117
f 169/132/126 162/124/118 164/203/171 163/129/123
f 155/202/170 153/116/110 165/127/121 164/203/171
f 164/203/171 165/127/121 163/129/123
f 166/128/122 165/127/121 153/116/110 151/201/169
f 167/204/172 168/205/124 166/206/122 46/156/144
f 163/129/123 166/128/122 168/130/124 169/132/126
f 51/207/147 170/208/125 172/209/173 173/210/174
f 166/206/122 42/157/145 46/156/144
f 169/132/126 170/131/125 162/124/118
f 52/136/127 50/211/175 58/104/98
f 172/209/173 170/208/125 168/205/124 167/204/172
f 69/165/152 60/164/151 173/210/174 172/209/173
f 69/165/152 172/209/173 167/204/172
f 70/166/153 167/204/172 46/156/144 45/113/107
f 167/204/172 70/166/153 69/165/152
f 42/157/145 166/206/122 151/199/169 43/115/109
f 158/120/114 155/202/170 164/203/171 159/122/116
f 83/38/38 68/31/31 67/30/30
f 83/38/38 67/30/30 70/166/153 45/113/107
f 66/196/167 57/28/28 65/27/27
f 124/18/18 31/17/17 48/22/22 39/21/21
f 154/118/112 16/6/6 19/212/7 152/200/139
f 147/112/106 83/38/38 45/113/107
f 38/20/20 29/81/78 124/18/18
f 28/15/15 24/12/12 37/14/14
f 19/212/7 16/6/6 17/78/75 21/186/8
f 20/9/9 33/153/141 150/151/140
f 103/173/55 120/213/132 114/71/71 102/68/68
f 174/214/130 175/215/133 54/29/29 171/125/119
f 103/55/55 101/58/58 97/51/51 120/139/132
f 171/125/119 52/133/127 174/214/130
f 55/161/148 54/29/29 175/215/133
f 72/197/134 55/161/148 175/215/133
f 116/182/162 12/142/135 114/71/71 120/213/132
